<svg width="3566" height="851" viewBox="0 0 3566 851" fill="none" xmlns="http://www.w3.org/2000/svg">
<g clip-path="url(#clip0_406_943)">
<path d="M1804.17 741.42C1842.68 741.8 1859.98 717.82 1872.8 689.26L1981.86 446.34L2098.41 449.25L1967.46 740.39L2104.9 740.78C2121.18 740.83 2146.29 724.29 2153.17 709.2L2273.25 445.85L2390.8 446.55L2328.81 582.93L2422.78 582.22L2467.34 481.58C2476.7 460.43 2505.57 445.05 2529.17 445.39L2805.88 449.37C2842.54 449.9 2863.55 510.81 2851.09 539.92L2805.37 646.71C2794.8 671.38 2760.31 694.93 2732.23 694.9L2493.71 694.7C2483.44 706.25 2476.39 724.45 2474.79 741.1L2821.78 741.49C2841.72 741.51 2864.67 727.15 2873.17 708.42L3181.09 29.4799L3299.21 30.5699L2979.99 736.47C3048.47 742.52 3115.42 756.9 3137.06 709.28L3446.17 29.1499L3565.36 28.1299L3244.38 736.55C3332.66 745.13 3407.78 739.45 3496.14 740.92L3496.29 847.41L2455.43 847.27C2418.41 847.27 2389.47 830.09 2371.35 802.24C2352.68 773.53 2354.94 740.65 2368.43 699.84L2275.75 700.41C2248.46 762.02 2209.79 832.48 2138.27 842.71C2036.77 857.23 1929.88 841.3 1832.93 845.62C1755.88 849.05 1679.8 850 1604.4 846.5C1559.92 844.44 1543.2 783.19 1558.47 749.49L1696.35 445.25L1813.66 446.79L1681.84 740.21L1804.16 741.41L1804.17 741.42ZM2711.41 596.51L2732.97 546.16L2546.56 545.1L2525.27 596.06L2711.4 596.51H2711.41Z" fill="black"/>
<path d="M1327.12 788.08C1303.29 841.68 1269.3 850.78 1215.89 850.2L999.9 847.859C983.06 847.679 956.97 836.09 948 825.19C938.33 813.45 927.08 780.15 933.84 764.68L1025.67 554.56L841.15 554.609L840.31 845.71L733.5 845.169L730.85 555.69L428.18 556.33L505.38 446.67L732.08 447.32L729.65 130.7C729.4 98.4195 663 109.01 646.45 132.19L137.71 844.81L0 847.049L575.23 38.1395C591.42 15.3795 620.77 -0.270467 647.36 -0.000466499L776.18 1.29953C814.51 1.68953 839.7 34.6295 839.82 71.5395L841.01 445.38L1128.87 446.26C1139.39 446.29 1154.97 451.2 1161.18 456.45C1168.64 462.75 1173.07 489.47 1168.78 499.11L1061.75 739.95L1229.11 741.44L1362.27 447.16L1472.12 445.07L1469.1 472.31C1523.58 445.98 1583.13 451.85 1641.13 455.89L1601.95 546.25L1479.79 547.46C1454.68 547.71 1425.83 566.029 1415.32 589.669L1327.1 788.09L1327.12 788.08Z" fill="black"/>
<path d="M1172.1 371.09C1208.41 371.09 1237.85 341.653 1237.85 305.34C1237.85 269.027 1208.41 239.59 1172.1 239.59C1135.79 239.59 1106.35 269.027 1106.35 305.34C1106.35 341.653 1135.79 371.09 1172.1 371.09Z" fill="black"/>
</g>
<defs>
<clipPath id="clip0_406_943">
<rect width="3565.36" height="850.22" fill="white"/>
</clipPath>
</defs>
</svg>
