<?xml version="1.0" encoding="UTF-8"?>
<svg id="Calque_1" xmlns="http://www.w3.org/2000/svg" version="1.1" viewBox="0 0 1696 497">
  <!-- Generator: Adobe Illustrator 30.2.1, SVG Export Plug-In . SVG Version: 2.1.1 Build 1)  -->
  <path d="M215.62,438.58c-18.87-2.13-43.32-8.58-45.09-11.9-2.08-3.89-3.22-18.9-2.09-27.45,4.85-36.42,33.28-61.62,69.48-61.57,12.35.02,20.63,1.87,31.09,6.96,27.61,13.43,42.97,43.05,38.53,74.3l-1.08,7.6c-.09.65-.53,1.2-1.15,1.43l-4.57,1.71c-8.71,3.26-18.85,5.83-29.73,7.53-12.12,1.9-43.85,2.69-55.39,1.39ZM95.93,375.43c-23.68-24.67-40.86-60.18-47.06-97.28-2.52-15.03-2.48-45.79.07-60,4.84-27,14.83-51.38,31.27-76.32,7.18-10.88,18.6-25.18,20.13-25.18.4,0,1.51,3.04,2.47,6.75,2.64,10.26,9.68,26.72,15.93,37.27,16.08,27.14,38.74,46.32,68.54,58l7.11,2.8c.69.27,1.14.94,1.14,1.69l-.25,25.73-.26,25.74c0,.74-.47,1.4-1.16,1.66l-4.85,1.83c-40.9,15.38-70.08,46.21-83.19,87.92-1.92,6.11-3.79,11.91-4.15,12.89-.56,1.5-1.47.95-5.74-3.5ZM373.01,373.93c-11.93-44.69-41.7-78.65-82.74-94.42l-7.58-2.91c-.7-.27-1.16-.94-1.15-1.69l.23-26.05.23-26.12c0-.71.44-1.36,1.09-1.64l8.92-3.79c31.65-13.48,55.37-35.3,69.82-64.24,3.84-7.69,9.65-23.77,11.65-32.22,1.23-5.22,1.29-5.28,3.26-3.5,9.05,8.15,25.67,32.02,33.27,47.8,13.21,27.4,18.56,51.61,18.57,84,0,37.79-8.47,68.6-27.18,98.78-6.9,11.12-23.07,31.47-25.83,32.5-.41.16-1.56-2.77-2.56-6.5ZM1050.81,210.53c.71,0,1.19.72.92,1.37-2.29,5.7-11.38,28.22-21.03,53.24-15.91,41.28-29.2,78.63-29.2,82.08,0,.23-6.97.42-15.5.42s-15.5-.35-15.5-.79,2.21-7.39,4.92-15.47l4.72-14.08c.13-.39.12-.82-.03-1.21l-19.69-51.51c-9.06-23.7-17.44-44.86-20.07-51.75-.43-1.13.41-2.33,1.62-2.32l30.26.27c.72,0,1.36.46,1.6,1.15l11.54,32.8c6.24,18.75,11.68,33.71,12.09,33.25.4-.46,5.81-15.8,12.01-34.09l11.68-32.73c.14-.4.51-.67.94-.67,3.92,0,23.19.02,28.72.03ZM470.8,318.4c1.48-3.65,62.19-159.06,63.87-163.51l1.55-4.1c.27-.7.94-1.17,1.7-1.16l27.81.26,27.85.25c.73,0,1.38.45,1.65,1.13l32.44,81.38c18.09,45.38,33.15,83.51,33.48,84.75h0c.3,1.14-.56,2.25-1.74,2.25h-24.15s-25.2,0-25.2,0c-.76,0-1.44-.48-1.69-1.2l-5.33-15.3-5.32-15.29c-.25-.72-.93-1.21-1.7-1.21h-64.94c-.76,0-1.44.48-1.69,1.2l-5.41,15.3-5.4,15.3c-.25.72-.93,1.2-1.69,1.2h-22.65c-18.74,0-23.81-.27-23.42-1.25ZM582.96,245.9c-1.31-4.26-6.09-19.8-10.61-34.54-6.09-19.83-8.46-26.35-9.15-25.12-.76,1.35-22.69,66.25-22.69,67.14,0,.15,10.09.27,22.42.27h20c1.21,0,2.07-1.17,1.71-2.33l-1.68-5.42ZM679.51,234.57v-83.26c0-1,.81-1.8,1.81-1.79l46.94.38c46.55.37,49.11.49,56.75,2.6,22.22,6.13,34.94,17.95,39.45,36.66,1.69,6.97,1.47,23.79-.39,30.77-6.04,22.59-23.9,35.74-52.57,38.68-5.61.58-17.8,1.05-27.1,1.05h-15.1c-.99,0-1.79.8-1.79,1.79v56.41c0,.99-.8,1.79-1.79,1.79h-44.41c-.99,0-1.79-.8-1.79-1.79v-83.29ZM763.73,223.74c8.65-2.72,13.72-10.34,13.76-20.68.03-9.11-2.88-14.07-10.48-17.89-5.75-2.89-6.46-2.99-22.72-3.37l-14.94-.34c-1.01-.02-1.84.79-1.84,1.79v40.76c0,1.01.84,1.82,1.85,1.79l14.4-.42c8.94-.26,17.92-1,19.97-1.65ZM867.75,317.59c-15.65-3.08-26.94-14.17-28.88-28.35l-.35-2.55c-.15-1.08.69-2.04,1.78-2.04h12.57c14.09,0,14.64.08,14.64,2.05,0,6.44,7.3,11.89,16.01,11.93,9.4.04,15.43-3.49,16.6-9.72,1.41-7.52-3.62-11.29-22.11-16.6-26.58-7.63-33.97-12.86-36.73-26-3.15-15.04,5.78-28.52,23.02-34.74,5.98-2.16,8.35-2.42,21.76-2.42h6.42c5.68,0,11.28,1.31,16.38,3.83h0c8.97,4.43,13.9,10.11,15.61,17.97,1.8,8.3,2.67,7.79-12.58,7.48l-12.35-.25c-.76-.02-1.43-.51-1.67-1.24l-.74-2.26c-1.7-5.2-6.57-8.03-13.83-8.03-8.95,0-14.8,3.97-14.8,10.05,0,5.34,5.91,8.64,24.23,13.5,28.39,7.54,36.88,14.87,36.88,31.88,0,6.06-.53,8.76-2.68,13.56-4.56,10.14-14.94,18.08-28.12,21.52-6.21,1.62-23.82,1.86-31.07.43ZM1088.28,317.1c-15.63-3.8-25.22-13.52-27.3-27.7l-.4-2.69c-.16-1.08.68-2.06,1.78-2.06h12.29s13.04,0,13.04,0c.78,0,1.48.51,1.71,1.25l1.1,3.5c1.27,4.02,2.18,5.08,5.96,6.99,11.12,5.61,26.04.34,26.04-9.19,0-6.76-6.26-10.62-26-16.04-22.77-6.25-32.28-14.14-33.71-27.97-1.24-12.09,5.25-22.68,17.74-28.93,9.48-4.74,16.08-5.92,30.43-5.45,11.05.37,12.61.67,18.98,3.65,8.67,4.06,13.98,9.48,16.02,16.36,3.03,10.21,3.51,9.82-11.88,9.82h-12.12c-.77,0-1.46-.5-1.7-1.23l-.7-2.12c-1.9-5.76-5.23-8-12.59-8.47-7.36-.47-11.56.86-14.49,4.59-3.93,4.99-1.92,9.75,5.76,13.63,1.77.89,9.19,3.21,16.5,5.16,28.37,7.54,37.12,15.06,37.12,31.94,0,3.3-.79,8.37-1.76,11.26-3.47,10.39-15.47,20.15-29.13,23.71-7.31,1.9-24.79,1.89-32.69-.02ZM1198.45,317.29c-7.95-2.15-11.18-4.65-14.44-11.15h0c-1.97-3.94-3.02-8.28-3.06-12.69l-.25-27.55-.29-32.47c0-.98-.81-1.78-1.79-1.78h-16.31c-.99,0-1.79-.8-1.79-1.79v-17.41c0-.99.8-1.79,1.79-1.79h16.41c.99,0,1.79-.8,1.79-1.79v-17.46c0-.76.48-1.44,1.19-1.69l13.56-4.83c8.11-2.9,15.09-5.26,15.5-5.24.41.01.75,7,.75,15.52v13.71c0,.99.8,1.79,1.79,1.79h20.41c.99,0,1.79.8,1.79,1.79v17.41c0,.99-.8,1.79-1.79,1.79h-21.41c-.99,0-1.8.81-1.79,1.8l.04,22.95c.05,27.88.59,32.34,4.37,36.11,2.39,2.39,3.3,2.62,9.57,2.47,3.82-.09,7.86-.46,8.98-.82,1.97-.62,2.04-.26,2.04,10.34v9.54c0,.85-.59,1.58-1.42,1.75l-1.33.29c-11.98,2.57-27.26,3.11-34.31,1.21ZM1284.51,316.84c-21.75-5.69-33.93-24.27-33.98-51.85-.06-29.47,12.36-48.83,35.24-54.92,6.71-1.79,23.72-1.8,30.39-.03,20.44,5.45,30.96,21.35,32.96,49.86l.55,7.83c.07,1.04-.75,1.92-1.79,1.92h-65.58c-.99,0-1.79.8-1.79,1.79v3.03c0,11.57,5.63,20.93,13.95,23.17,9.29,2.5,17.88-1.12,21.91-9.24l1.86-3.75c.3-.61.93-1,1.61-1h23.89c1.08,0,1.92.95,1.78,2.03l-.25,1.9c-1.36,10.11-9.09,20.68-18.69,25.54-10.89,5.52-29.01,7.12-42.05,3.72ZM1317.51,247.83c0-4.96-2.87-12.68-5.73-15.41-11.05-10.54-28.02-3.1-29.94,13.13l-.37,3.09c-.13,1.07.71,2.01,1.78,2.01h32.46c.99,0,1.79-.8,1.79-1.79v-1.03ZM1584.51,316.84c-15.37-4.02-24.06-13.05-25.95-26.94l-.44-3.21c-.15-1.08.69-2.04,1.78-2.04h25.01c.84,0,1.57.58,1.75,1.41l.36,1.61c2.01,9.2,14.44,13.79,25.41,9.4,4.89-1.96,7.08-5.15,7.08-10.3,0-3.19-.6-4.44-3.12-6.57-4.05-3.41-6.96-4.57-22.18-8.9-25.93-7.36-33.73-14.47-33.68-30.72.03-8.75,1.99-13.87,7.4-19.28,9.34-9.34,21.8-13.17,40.42-12.42,13.57.56,20.35,2.67,27.13,8.47,4.96,4.25,9.01,12.12,9.02,17.55v1.95c0,.99-.8,1.8-1.79,1.8h-23.6c-.84,0-1.57-.59-1.75-1.41l-.34-1.55c-.36-1.63-2.21-4.33-4.12-6-3.04-2.67-4.19-3.04-9.52-3.04-7.69,0-12.53,2.22-14.68,6.72-3.46,7.26,2.16,11.31,23.08,16.67,28.5,7.3,37.2,14.8,37.22,32.11.01,6.59-.46,9-2.66,13.69-4.87,10.39-16.61,18.99-29.63,21.7-7.88,1.65-24.61,1.28-32.2-.7ZM1372.51,278.81c0-20.81-.3-44.66-.66-53l-.57-13.29c-.04-1.02.77-1.87,1.79-1.87h25.65c.99,0,1.79.8,1.79,1.79v1.96c.02,2.06.29,5.36.61,7.33v.02c.25,1.46,2.06,2.01,3.08.94l2.55-2.7c2.79-2.95,7.55-6.56,10.65-8.09,5.21-2.56,6.49-2.75,18.11-2.75s12.86.19,17.56,2.67c5.23,2.76,11.69,9.1,13.65,13.38.61,1.35,1.38,2.43,1.7,2.41.32-.02,1.89-2.08,3.48-4.59,3.57-5.63,10.43-10.72,17.41-12.92,4.02-1.27,7.88-1.57,16-1.26,9.1.35,11.45.8,15.7,3.02,6.41,3.34,9.77,6.93,12.89,13.79,3.75,8.23,4.61,18.83,4.61,56.72v32.49c0,.99-.8,1.79-1.79,1.79h-27.32c-.99,0-1.79-.79-1.79-1.78l-.29-34.97c-.29-34.43-.44-37-2.31-40.69-2.78-5.46-6.39-7.8-12.85-8.34-9.4-.78-16.41,2.84-19.75,10.2-1.69,3.72-1.86,7.19-1.88,39.83l-.02,33.96c0,.99-.8,1.79-1.79,1.79h-27.34c-.99,0-1.79-.79-1.79-1.78l-.28-34.97c-.28-34.42-.43-37-2.3-40.74-2.85-5.67-7.54-8.51-14.08-8.51s-10,1.26-13.76,4.81c-6.21,5.88-6.13,5.32-6.47,44.94l-.29,34.47c0,.99-.81,1.78-1.79,1.78h-26.32c-.99,0-1.79-.8-1.79-1.79v-36.05ZM220.12,157.67c-24.68-6.65-43.66-25.9-50.32-51.02-1.98-7.44-2.3-29.72-.5-34.13.85-2.09,2.77-3.24,9.39-5.64,30.46-11.02,75.01-12.13,110.49-2.74,12.57,3.32,16.49,5.32,17.64,9.01,1.7,5.47,1.27,27.34-.67,34.37-6.95,25.18-25.74,43.89-50.41,50.2-9.98,2.55-26.05,2.53-35.62-.05Z"/>
</svg>