<svg width="1786" height="639" viewBox="0 0 1786 639" fill="none" xmlns="http://www.w3.org/2000/svg">
<g clip-path="url(#clip0_406_860)">
<path d="M368 4.69006C370.04 6.35673 371.706 8.02339 373 9.69006C373 12.3567 372.416 14.2934 371.25 15.5001C369.75 16.2934 368.333 16.6467 367 16.5601C365.666 15.9734 364.4 15.1701 363.2 14.1501C360.55 12.3801 359.04 12.3101 355.88 12.3701C355.01 12.3701 354.14 12.3701 353.25 12.3801C351.623 12.4467 350.21 13.2134 349.01 14.6801V18.6801C350.24 19.0701 351.47 19.4501 352.74 19.8501C354.37 20.3801 356.01 20.9001 357.64 21.4301C358.45 21.6801 359.26 21.9401 360.09 22.2001C365.91 24.0901 370.75 26.1201 374.89 30.8101C376.86 35.8401 377.01 40.8001 375.24 45.9301C372.07 51.8701 367.32 54.6801 361.01 56.6801C351.26 58.6001 343.3 57.6201 334.63 52.8001C331.97 50.6501 330.01 48.4401 328.01 45.6801C329.04 42.5901 329.88 41.7501 332.76 40.1201C334.926 39.8267 337.093 40.4534 339.26 42.0001C340.17 42.8901 341.08 43.7701 342.01 44.6901C345.19 46.2801 348.55 46.1001 352.01 45.6901C353.65 44.7967 354.983 43.7967 356.01 42.6901C355.91 41.3701 355.576 40.0367 355.01 38.6901C353.69 38.0167 352.21 37.5167 350.57 37.1901C340.236 34.4367 333.383 30.9367 330.01 26.6901C328.2 21.2701 327.91 15.1001 330.51 9.88006C333.5 5.37006 338.18 2.43006 343.37 1.08006C352.15 -0.209938 360.37 -0.209938 368.01 4.69006H368Z" fill="black"/>
<path d="M543.75 2.81994C547.74 5.18993 550.36 7.90993 553 11.6999C551.5 13.3666 549.833 15.0333 548 16.6999C545.333 16.6999 542.897 16.0333 540.69 14.6999C536.99 12.4899 534.35 12.0699 530 12.6999C526.65 14.1799 524.66 15.4099 522.96 18.7199C520.65 25.0599 519.87 30.6499 522.69 36.9499C524.63 40.4199 526.15 42.3299 530 43.6999C537.22 44.9399 542.04 42.6399 548 38.6999C549.98 41.0099 551.96 43.3199 554 45.6999C548.98 52.5999 542.92 55.8499 534.55 57.4399C525.36 58.3699 516.57 57.2699 509 51.6999C506.64 49.2199 504.79 46.6099 503 43.6999C502.4 42.7899 501.8 41.8899 501.19 40.9499C498.01 34.9199 498.06 27.5599 499.65 21.0399C502.43 13.3499 506.88 7.04994 514.25 3.25994C522.98 -0.630065 534.94 -1.34006 543.75 2.81994Z" fill="black"/>
<path d="M135.46 1.5698C136.24 1.5698 137.03 1.57313 137.83 1.5798C138.65 1.5798 139.47 1.5798 140.31 1.5798C143.03 1.5798 145.75 1.5798 148.48 1.5998C150.36 1.5998 152.24 1.5998 154.13 1.5998C159.09 1.5998 164.06 1.6098 169.02 1.6198C174.08 1.6298 179.14 1.6298 184.2 1.6398C194.14 1.6498 204.07 1.6698 214.01 1.6898C217.16 9.1098 220.15 16.5598 222.91 24.1398C223.263 25.0998 223.617 26.0665 223.97 27.0398C225.11 30.1498 226.25 33.2598 227.38 36.3698C228.19 38.5698 228.99 40.7698 229.8 42.9698C231.83 48.5098 233.85 54.0498 235.88 59.5898C237.55 64.1598 239.22 68.7298 240.89 73.2998C242.7 78.2598 244.52 83.2098 246.33 88.1698C253.43 107.6 260.57 127.02 267.71 146.44C271.1 155.67 274.49 164.91 277.89 174.14C279.76 179.24 281.64 184.34 283.51 189.44C284.26 191.48 285.01 193.52 285.76 195.56C286.13 196.57 286.5 197.58 286.88 198.62C289.133 204.746 290.633 208.83 291.38 210.87C292.13 212.91 292.88 214.96 293.63 217C295.5 222.09 297.37 227.18 299.24 232.27C303.08 242.72 306.91 253.16 310.75 263.6C314.51 273.83 318.27 284.07 322.03 294.3C323.28 297.7 324.53 301.1 325.78 304.5C327.07 308 328.35 311.5 329.64 315.01C330.28 316.77 330.93 318.52 331.58 320.28C334.44 328.07 337.22 335.87 340.01 343.68H228.01C222.91 328.38 217.87 313.06 213.01 297.68H106.01C99.98 312.75 95.14 328.28 90.01 343.68H0C1.98 337.07 4.03 330.66 6.48 324.23C6.81 323.35 7.14 322.47 7.49 321.57C8.57 318.71 9.66 315.85 10.75 312.99C11.52 310.97 12.29 308.94 13.05 306.92C18.39 292.86 23.78 278.81 29.19 264.78C34.31 251.49 39.38 238.19 44.43 224.87C44.83 223.81 45.24 222.75 45.65 221.66C47.26 217.41 48.88 213.16 50.49 208.9C54.38 198.66 58.28 188.42 62.18 178.18C62.84 176.46 63.49 174.73 64.15 173.01C66.42 167.05 68.69 161.1 70.96 155.14C73.24 149.15 75.52 143.17 77.8 137.18C78.13 136.33 78.45 135.47 78.79 134.59C84.77 118.9 90.73 103.2 96.7 87.4998C102.98 70.9698 109.27 54.4398 115.57 37.9098C115.87 37.1165 116.173 36.3165 116.48 35.5098C117.07 33.9598 117.66 32.3998 118.26 30.8498C119.91 26.5198 121.56 22.1798 123.19 17.8498C123.56 16.8798 123.92 15.9098 124.3 14.9098C125.01 13.0198 125.72 11.1398 126.43 9.2498C126.75 8.3998 127.07 7.5598 127.4 6.6898C127.687 5.93647 127.973 5.17646 128.26 4.4098C129.77 0.819798 131.82 1.5598 135.45 1.5498L135.46 1.5698ZM160 133.69C153.34 152.86 146.84 172.08 140.56 191.38C140.267 192.28 139.97 193.186 139.67 194.1C138.82 196.72 137.97 199.33 137.12 201.95C136.88 202.696 136.637 203.45 136.39 204.21C133.87 212.02 131.44 219.85 129 227.68H190C185.37 211.51 180.69 195.42 175.46 179.44C173.32 172.87 171.26 166.28 169.28 159.66C169.05 158.9 168.83 158.14 168.59 157.36C167.47 153.63 166.37 149.9 165.27 146.16C164.87 144.81 164.47 143.46 164.06 142.1C163.71 140.91 163.36 139.71 163 138.48C162.46 136.546 161.46 134.943 160 133.67V133.69Z" fill="black"/>
<path d="M275 1.68992H317V13.6899C310.067 14.0166 303.067 14.3499 296 14.6899C295.67 16.9999 295.34 19.3099 295 21.6899H313V33.6899H295V42.6899C295.72 42.6899 296.44 42.6799 297.19 42.6699C300.44 42.6499 303.69 42.6399 306.94 42.6199C308.08 42.6199 309.21 42.5999 310.38 42.5899C311.46 42.5899 312.54 42.5899 313.65 42.5899C314.65 42.5899 315.66 42.5833 316.68 42.5699C318.227 42.6433 319.333 43.0133 320 43.6799C320.1 45.5099 320.13 47.3499 320.12 49.1799C320.12 50.1799 320.12 51.1899 320.12 52.2099C320.033 53.8566 319.657 55.0133 318.99 55.6799C317.64 55.7799 316.29 55.8099 314.95 55.8099C314.09 55.8099 313.23 55.8099 312.35 55.8099C311.42 55.8099 310.49 55.8099 309.52 55.8099C308.567 55.8099 307.607 55.8099 306.64 55.8099C304.63 55.8099 302.61 55.8099 300.6 55.8099C297.51 55.8099 294.41 55.8099 291.32 55.8099C289.37 55.8099 287.42 55.8099 285.46 55.8099C284.527 55.8099 283.583 55.8099 282.63 55.8099C281.77 55.8099 280.91 55.8099 280.03 55.8099C279.27 55.8099 278.51 55.8099 277.73 55.8099C276.563 55.7233 275.647 55.3466 274.98 54.6799C274.89 53.0199 274.86 51.3599 274.87 49.6999C274.87 48.6399 274.87 47.5799 274.87 46.4799C274.87 45.3299 274.88 44.1699 274.89 42.9799C274.89 41.8099 274.89 40.6299 274.89 39.4199C274.89 35.6499 274.91 31.8799 274.92 28.1099C274.92 25.5599 274.92 23.0099 274.93 20.4599C274.94 14.1999 274.96 7.92992 274.98 1.66992L275 1.68992Z" fill="black"/>
<path d="M389 1.69027C394.75 1.63027 400.51 1.57027 406.44 1.50027C408.24 1.47027 410.04 1.45027 411.89 1.42027C424.003 1.30694 432.107 3.03361 436.2 6.60027C439.85 12.3403 441.16 16.9103 440.01 23.6903C438.34 28.4203 436.2 30.9603 432.01 33.6903C426.95 35.8203 422.52 35.9303 417.13 35.8103C414.45 35.7703 411.743 35.7303 409.01 35.6903V55.6903H389.01V1.69027H389ZM409 12.6903V27.6903C413.347 28.1236 416.493 27.5836 418.44 26.0703C420.5 22.9403 420.68 21.3803 420 17.6903C418.667 15.6903 417 14.0236 415 12.6903H409Z" fill="black"/>
<path d="M459 1.69043H474C477.01 7.53043 479.64 13.4304 482.11 19.5204C482.48 20.4304 482.85 21.3404 483.24 22.2804C484.02 24.1904 484.79 26.1004 485.57 28.0204C486.76 30.9504 487.96 33.8804 489.16 36.8004C489.92 38.6604 490.67 40.5304 491.43 42.3904C491.79 43.2638 492.153 44.1471 492.52 45.0404C492.85 45.8504 493.17 46.6704 493.51 47.5104C493.796 48.2238 494.09 48.9438 494.39 49.6704C494.803 51.0171 495.01 53.0238 495.01 55.6904C492.07 55.8204 489.14 55.9204 486.2 56.0004C485.37 56.0404 484.53 56.0804 483.67 56.1304C481.35 56.1804 479.28 56.1704 477.01 55.6904C475.67 54.0971 474.67 52.4304 474.01 50.6904L473.01 48.6904H455.01C454.02 51.0004 453.03 53.3104 452.01 55.6904H437.01C437.87 51.3704 438.97 48.0704 440.67 44.0504C440.94 43.4204 441.2 42.7804 441.48 42.1304C442.34 40.0804 443.21 38.0404 444.08 36.0004C444.67 34.6004 445.26 33.2004 445.85 31.8004C450.12 21.7104 454.48 11.6704 459.01 1.69043H459ZM464 23.6904C463.16 25.6704 462.33 27.6504 461.5 29.6304C461.04 30.7304 460.57 31.8304 460.09 32.9704C459.316 34.5638 458.953 35.8038 459 36.6904H469C467.68 32.4004 466.36 28.1104 465 23.6904H464Z" fill="black"/>
<path d="M564 1.69043H605V14.6904H584V22.6904H602V33.6904H584C584.33 36.6604 584.66 39.6304 585 42.6904C585.66 42.6904 586.32 42.6804 587 42.6704C589.98 42.6504 592.96 42.6404 595.93 42.6204C596.97 42.6138 598.02 42.6038 599.08 42.5904C600.07 42.5904 601.06 42.5904 602.08 42.5904C603 42.5904 603.91 42.5804 604.86 42.5704C606.28 42.6438 607.324 43.0138 607.99 43.6804V55.6804H563.99V1.69043H564Z" fill="black"/>
<path d="M650 1.69043H751C751.33 34.6904 751.66 67.6904 752 101.69C755.63 97.4004 759.26 93.1104 763 88.6904C776.06 75.6304 793.05 67.1204 811.7 67.0504C813.05 67.0704 814.4 67.1004 815.75 67.1304C816.45 67.1371 817.157 67.1471 817.87 67.1604C846.28 67.5404 867.12 77.1204 887.14 97.4904C914.19 125.74 923.22 167.97 923.26 205.89C923.26 206.59 923.26 207.29 923.26 208C923.23 227.75 920.98 246.82 915.01 265.7C914.8 266.37 914.59 267.04 914.37 267.73C907.55 288.87 896.18 307.59 881.01 323.7C880.4 324.39 879.79 325.08 879.15 325.79C866.38 339.57 845.23 349.8 826.49 350.84C810.863 351.374 799.367 349.994 792 346.7C790.853 346.227 789.7 345.747 788.54 345.26C772.3 337.93 762.19 324.96 752 310.7C751.67 321.59 751.34 332.48 751 343.7H650V1.69043ZM756 147.69C755.13 148.16 754.26 148.64 753.36 149.13C749.65 153.16 750.26 157.29 750.26 162.59C750.24 163.7 750.22 164.81 750.2 165.96C750.15 169.64 750.13 173.32 750.12 176.99C750.1 179.55 750.08 182.1 750.06 184.66C750.03 190.02 750.01 195.38 750.01 200.74C750.01 206.93 749.95 213.11 749.86 219.3C749.78 225.26 749.76 231.22 749.76 237.18C749.76 239.71 749.73 242.24 749.68 244.77C749.1 253.584 750.34 261.914 753.4 269.76C756.26 271.62 758.74 272.71 761.99 273.69C763.21 274.32 764.42 274.96 765.61 275.63C773.28 278.17 784.49 278.19 792.05 275.13C804.46 268.24 810.99 256.96 814.92 243.61C822.06 217.79 822.11 186.22 809.74 161.81C803.96 152.31 795.87 143.75 784.99 140.69C773.37 139.17 765.7 141.51 755.99 147.69H756Z" fill="black"/>
<path d="M1390.16 1.69043H1488.83C1489.48 1.69043 1490 2.21043 1490 2.86043C1490.02 46.0204 1490.04 89.1804 1490.05 132.35C1490.05 137.49 1490.05 142.62 1490.05 147.76C1490.05 148.78 1490.05 149.814 1490.05 150.86C1490.05 167.44 1490.06 184.02 1490.07 200.6C1490.07 217.6 1490.08 234.6 1490.09 251.6C1490.09 262.1 1490.09 272.6 1490.1 283.09C1490.1 290.28 1490.1 297.47 1490.1 304.66C1490.1 308.81 1490.1 312.97 1490.1 317.12C1490.1 320.92 1490.1 324.71 1490.1 328.51C1490.1 329.89 1490.1 331.27 1490.1 332.65C1490.1 334.51 1490.1 336.38 1490.1 338.24V341.36C1490.1 341.36 1490.1 341.4 1490.1 341.43C1489.99 343.41 1489.98 343.68 1489.32 344.36C1489.11 344.58 1488.81 344.72 1488.5 344.73C1485.59 344.82 1482.7 344.85 1479.79 344.84C1478.82 344.84 1477.85 344.84 1476.87 344.84C1473.67 344.84 1470.46 344.84 1467.26 344.84C1465.04 344.84 1462.83 344.84 1460.61 344.84C1455.96 344.84 1451.31 344.84 1446.66 344.84C1440.68 344.84 1434.71 344.84 1428.73 344.84C1424.15 344.84 1419.58 344.84 1415 344.84C1412.8 344.84 1410.59 344.84 1408.39 344.84C1405.32 344.84 1402.24 344.84 1399.17 344.84C1398.25 344.84 1397.33 344.84 1396.38 344.84C1390.79 344.82 1390.18 344.82 1389.32 344.04C1389.1 343.84 1388.97 343.55 1388.95 343.26C1388.81 341.12 1388.72 338.98 1388.66 336.83C1388.64 336.14 1388.62 335.46 1388.6 334.75C1388.53 332.55 1388.48 330.35 1388.42 328.15C1388.38 326.66 1388.33 325.17 1388.29 323.68C1388.22 321.15 1388.14 318.62 1388.07 316.09C1388.04 314.98 1386.63 314.53 1385.96 315.43C1372.43 333.55 1355.1 347.99 1332.04 351.71C1332 351.71 1331.95 351.72 1331.9 351.73C1327.57 352.03 1323.25 352.06 1318.91 352.04C1317.71 352.04 1316.51 352.04 1315.27 352.03C1290.73 351.71 1271.37 342.71 1253.98 325.73C1253.25 325.07 1252.51 324.407 1251.77 323.74C1228.15 301.95 1217.54 262.23 1215.86 231.39C1215.63 225.25 1215.6 219.12 1215.61 212.98C1215.61 212.04 1215.61 211.09 1215.61 210.12C1215.65 194.36 1216.64 179.18 1219.98 163.73C1220.17 162.84 1220.37 161.95 1220.56 161.03C1225.59 138.7 1234.24 117.43 1248.98 99.7304C1249.76 98.7904 1250.54 97.8404 1251.35 96.8704C1257.21 90.1104 1263.6 84.7604 1270.98 79.7304C1271.8 79.1604 1272.62 78.6004 1273.47 78.0204C1287.42 69.0304 1303.01 66.3304 1319.35 66.4204C1320.44 66.4204 1321.55 66.4271 1322.67 66.4404C1344.34 66.7604 1361.2 74.8104 1377.32 89.0004C1377.35 89.0304 1377.38 89.0504 1377.41 89.0804C1380.47 92.2404 1383.2 95.6904 1385.93 99.1504C1386.61 100.02 1388.01 99.5404 1388.02 98.4404L1388.98 2.90043C1388.98 2.26043 1389.51 1.74043 1390.15 1.74043L1390.16 1.69043ZM1336.75 149.97C1336.75 149.97 1336.69 150.04 1336.66 150.07C1328.48 159.86 1324.74 170.37 1322 182.69C1321.77 183.71 1321.54 184.73 1321.31 185.78C1316.84 210.57 1318.32 239.6 1331.78 261.45C1331.8 261.48 1331.82 261.51 1331.84 261.54C1337.56 269.54 1344.22 274.52 1353.91 276.66C1353.97 276.67 1354.02 276.68 1354.08 276.69C1367.05 278.04 1376.88 274.4 1387.84 267.77C1387.94 267.71 1388.04 267.63 1388.12 267.55C1389.57 265.99 1389.17 264.33 1389.21 262.18C1389.23 261.21 1389.25 260.23 1389.28 259.23C1389.3 258.15 1389.32 257.08 1389.34 255.97C1389.36 254.84 1389.39 253.72 1389.41 252.56C1389.61 242.14 1389.72 231.72 1389.81 221.31C1389.87 214.31 1389.96 207.3 1390.11 200.3C1390.26 193.54 1390.34 186.77 1390.37 180.01C1390.39 177.43 1390.44 174.86 1390.51 172.28C1390.51 172.28 1391.43 159.73 1387.78 148.03C1387.72 147.83 1387.61 147.65 1387.46 147.51C1381.29 141.56 1372.09 139.08 1363.72 138.45C1363.65 138.45 1363.59 138.45 1363.52 138.45C1352.76 139.21 1344.51 142.12 1336.74 149.98L1336.75 149.97Z" fill="black"/>
<path d="M1072.94 64.4404C1073.72 64.4404 1074.51 64.4404 1075.3 64.4404C1087.11 64.4504 1098.46 64.9804 1110 67.6904C1110.66 67.8304 1111.32 67.9804 1111.99 68.1304C1135.23 73.3104 1159.18 86.4104 1172.38 106.95C1172.91 107.85 1173.44 108.76 1173.99 109.69C1174.66 110.81 1175.32 111.93 1176.01 113.08C1188.12 134.19 1190.16 156.64 1190.1 180.55C1190.1 182.33 1190.1 184.12 1190.1 185.9C1190.1 190.72 1190.1 195.53 1190.09 200.35C1190.09 205.39 1190.09 210.44 1190.09 215.48C1190.09 225.02 1190.08 234.55 1190.07 244.09C1190.06 256.99 1190.05 269.88 1190.05 282.78C1190.05 303.08 1190.02 323.38 1190 343.68H1089C1088.67 332.79 1088.34 321.9 1088 310.68C1085.03 314.64 1082.06 318.6 1079 322.68C1066.53 338.02 1050.48 347.43 1031 350.68C1026.2 351.09 1021.44 351.16 1016.62 351.12C1015.34 351.12 1014.07 351.1 1012.75 351.09C992.2 350.71 973.63 343.31 958.99 328.68C940.18 308.12 935.15 282.69 935.85 255.56C936.89 233.7 946.38 212.24 961.92 196.76C963.88 194.98 965.9 193.32 967.99 191.68C968.7 191.11 969.42 190.53 970.15 189.94C993.37 172.42 1024.55 169.39 1052.53 172.99C1064.53 174.72 1078.09 178.23 1088.98 183.68C1087.36 156.26 1087.31 155.53 1073.19 134.48C1072.39 133.29 1071.47 132.19 1070.43 131.2C1059.27 120.86 1046.03 121.02 1031.61 121.52C1010.09 122.91 993.12 140.15 978.98 154.69C972.84 149.52 967.02 144.06 961.21 138.52C957.24 134.76 953.23 131.13 948.98 127.69C959.66 102.97 990.74 83.5404 1014.42 73.6704C1033.34 66.3704 1052.78 64.4604 1072.92 64.4404H1072.94ZM1040 237.69C1033.94 245.9 1032.33 254.3 1033.34 264.3C1034.79 271.73 1037.93 278.47 1043.88 283.31C1051.24 288.03 1058.52 288.45 1067 286.69C1067.43 286.56 1067.86 286.42 1068.29 286.27C1082.16 281.43 1090.87 267.64 1089.97 252.98C1089.9 251.8 1089.82 250.62 1089.75 249.45C1089.69 247.63 1089.63 245.8 1089.59 243.98C1089.46 239.55 1089.25 235.13 1089 230.7C1081.93 228.29 1076.26 227.49 1068.81 227.45C1067.9 227.43 1066.99 227.41 1066.06 227.39C1055.58 227.33 1047.47 230.2 1040 237.7V237.69Z" fill="black"/>
<path d="M1647.93 64.6104C1682.27 63.3304 1714.92 73.7804 1740.53 97.0804C1761.11 116.18 1773.25 140.55 1780 167.69C1780.31 168.87 1780.63 170.05 1780.95 171.26C1785.9 191.67 1785 212.86 1785 233.69H1623C1627.82 255.37 1631.7 270.25 1650.32 282.66C1665.29 291.88 1685.56 293.37 1702.5 289.63C1707.13 288.14 1711.46 286.15 1715.84 284.07C1716.53 283.74 1717.22 283.42 1717.93 283.08C1719.62 282.28 1721.31 281.49 1722.99 280.69C1727.3 284.87 1731.59 289.07 1735.86 293.29C1737.32 294.72 1738.78 296.15 1740.25 297.57C1742.35 299.61 1744.44 301.67 1746.53 303.74C1747.19 304.38 1747.85 305.01 1748.53 305.67C1749.13 306.27 1749.73 306.87 1750.35 307.49C1750.89 308.01 1751.42 308.54 1751.97 309.08C1752.65 310.16 1752.93 311.377 1752.82 312.73C1751.39 316.1 1748.49 318.16 1745.74 320.45C1745.11 320.98 1744.48 321.51 1743.83 322.06C1737.92 326.93 1731.71 331.01 1724.99 334.7C1724.38 335.034 1723.77 335.37 1723.16 335.71C1690.51 353.55 1651.87 356.72 1616.12 346.45C1582.71 336.16 1556.24 315.13 1539.74 284.39C1527.55 260.91 1522.54 235.35 1522.68 209.01C1522.68 208.27 1522.68 207.53 1522.68 206.76C1522.73 194.86 1523.4 183.34 1525.99 171.69C1526.16 170.91 1526.32 170.13 1526.49 169.33C1531.82 145.06 1542.37 123.13 1558.99 104.69C1559.99 103.44 1560.99 102.19 1561.99 100.94C1581.06 78.9404 1611.69 67.8104 1639.87 65.0004C1642.55 64.8304 1645.24 64.7204 1647.92 64.6004L1647.93 64.6104ZM1630 136.69C1621.83 148.91 1620.03 163.46 1618 177.69H1688C1686.86 156.85 1686.64 152.81 1679.49 140.96C1669.08 123.73 1644.88 120.76 1631.12 135.45C1630.74 135.85 1630.37 136.26 1630 136.69Z" fill="black"/>
<path d="M352 78.6904H452C452.03 91.3304 452.05 103.97 452.08 116.99C452.11 125 452.13 133.01 452.16 141.03C452.21 153.74 452.25 166.46 452.27 179.17C452.28 188.43 452.31 197.69 452.35 206.95C452.37 211.85 452.39 216.75 452.39 221.65C452.39 226.27 452.41 230.89 452.44 235.51C452.44 237.2 452.45 238.89 452.44 240.57C452.4 252.77 453.27 264.38 461.45 274.14C466.12 278.84 471.54 279.39 477.9 279.75C487.04 279.59 492.72 276.05 498.99 269.7C499.55 269.33 500.11 268.96 500.69 268.58C504.34 265.83 505.81 263.66 506.64 259.12C506.98 254.42 506.92 249.72 506.87 245.01C506.87 243.2 506.89 241.38 506.9 239.57C506.93 234.66 506.91 229.75 506.9 224.83C506.88 219.69 506.9 214.55 506.93 209.42C506.96 199.69 506.96 189.97 506.93 180.25C506.91 167.1 506.94 153.96 506.97 140.82C507.02 120.12 506.99 99.4104 506.97 78.7104H607.97V343.71H506.97C506.64 332.49 506.31 321.27 505.97 309.71C503.483 312.63 501 315.55 498.52 318.47C495.47 322.04 492.34 325.43 488.97 328.71C488.32 329.36 487.67 330 487.01 330.67C470.03 346.64 449.29 351.52 426.51 350.84C407.14 349.87 387 341.15 373.65 326.84C348.25 294.65 351.65 254.12 351.77 215.33C351.78 210.51 351.78 205.68 351.79 200.86C351.79 191.78 351.81 182.69 351.83 173.61C351.86 161.3 351.87 148.99 351.88 136.68C351.9 117.36 351.94 98.0404 351.98 78.7204L352 78.6904Z" fill="black"/>
<path d="M0 396.69H1785V584.69C1769.61 587.77 1758.1 589.953 1750.48 591.24C1749.19 591.46 1747.91 591.68 1746.58 591.9C1742.45 592.6 1738.32 593.3 1734.18 594C1733.47 594.12 1732.75 594.24 1732.02 594.36C1706.8 598.62 1681.56 602.65 1656.24 606.22C1652.79 606.71 1649.34 607.2 1645.88 607.7C1576.84 617.6 1507.52 625.12 1437.99 630.68C1436.77 630.78 1435.54 630.88 1434.3 630.98C1416.54 632.41 1398.78 633.63 1380.99 634.68C1379.75 634.76 1378.51 634.83 1377.23 634.91C1294.09 639.92 1209.88 640.37 1126.75 634.93C1122.91 634.68 1119.07 634.44 1115.24 634.2C1037.65 629.24 960.45 619.9 883.28 610.71C813.93 602.45 744.59 594.44 674.89 589.79C673.98 589.73 673.07 589.67 672.13 589.6C628.11 586.75 584.1 585.29 539.99 585.37C536.49 585.37 532.98 585.37 529.48 585.37C489.25 585.41 449.15 586.3 408.99 588.57C405.73 588.75 402.47 588.93 399.2 589.1C312.37 593.86 225.6 603.29 16.78 635.34C15.93 635.5 15.09 635.66 14.21 635.82C12.66 636.11 11.1 636.41 9.55 636.71C6.27 637.33 3.35 637.67 0 637.67V396.67L0 396.69ZM57.06 458.69C52.73 464.98 52.15 471.21 53 478.69C54.67 484.32 57.87 488.72 63 491.69C68.59 494.21 74.36 495.83 80.31 497.25C87.2367 498.91 91.8 501.39 94 504.69C94.6 509.43 94.62 514.57 92 518.69C90.3733 519.523 88.7067 520.19 87 520.69C86.01 521.02 85.02 521.35 84 521.69C76.03 522.36 68.78 522.32 62 517.69C59.99 515.8 58.62 513.97 57 511.69C56.4 510.91 55.8 510.12 55.19 509.31C54.8 508.77 54.41 508.24 54 507.69C52.68 508.023 51.3467 508.357 50 508.69C50.75 517.38 53.05 522.2 59.57 528.08C66.26 532.53 72.54 533.22 80.37 533.13C81.3 533.13 82.23 533.12 83.18 533.11C92.87 532.88 100.07 530.62 106.99 523.69C111.68 517.7 113.52 511.5 113.3 503.95C112.43 497.59 108.69 492.51 104.08 488.22C97.11 483.13 87.53 481.69 79.28 479.62C75.0267 478.42 72.16 476.903 70.68 475.07C69.63 471.46 69.78 468.21 70.99 464.69C73.47 461.66 76.26 459.93 79.99 458.69C87.55 458.15 94.21 458.11 100.99 461.69C102.53 463.357 103.863 465.023 104.99 466.69C105.97 467.71 106.96 468.72 107.99 469.69C109.31 469.03 110.63 468.37 111.99 467.69C110.33 461.27 108.31 455.9 102.99 451.69C88.3 443.41 68.33 446.12 57.05 458.69H57.06ZM1596 460.69C1586.89 473 1583.32 485.05 1585.62 500.5C1587.99 511.03 1593.7 520.29 1602.6 526.51C1615.48 534.03 1629.57 534.22 1643.87 530.94C1644.56 530.78 1645.25 530.62 1645.96 530.46C1651.24 529.13 1654.92 527.23 1660 524.69V489.69H1629V501.69H1643C1642.67 507.63 1642.34 513.57 1642 519.69C1633.13 522.65 1625.55 522.71 1617 518.69C1609.45 514.1 1605.8 505.47 1603.56 497.13C1601.74 486.74 1604.57 477.27 1610 468.44C1614.67 463.44 1621.47 460.22 1628.17 459.21C1636.77 458.98 1643.53 460.77 1650 466.69C1651.02 467.67 1652.03 468.66 1653 469.69C1653.99 469.36 1654.98 469.03 1656 468.69C1656 462.44 1653.64 459.19 1649.39 454.71C1634.31 441.97 1608.68 446.81 1596 460.69ZM895.47 456.94C890.4 462.95 889.38 469.24 889.68 476.95C890.4 483.07 893.39 486.79 898 490.68C903.59 494.06 909.37 495.76 915.69 497.24C922.523 498.853 927.293 500.667 930 502.68C931.73 506.13 931.35 509.9 931 513.68C929.65 517.13 928.48 518.35 925.44 520.43C918.23 523.05 911.69 523.33 904.4 520.83C898.55 518.02 893.84 513.54 891.01 507.68C889.36 508.34 887.71 509 886.01 509.68C886.96 516.76 889.28 521.36 894.01 526.68C894.45 527.2 894.88 527.73 895.33 528.27C902.53 534.33 914.13 534.43 923.01 533.68C930.45 532.83 937.6 530.28 942.84 524.75C948.99 516.84 950.1 509.64 949.01 499.68C946.97 494.04 942.95 490.01 938.01 486.68C935.49 485.55 932.92 484.79 930.26 484.06C929.56 483.85 928.86 483.64 928.13 483.43C925.07 482.53 922 481.68 918.92 480.88C913.75 479.5 910.17 478.32 907.01 473.68C906.36 469.63 906.54 467.54 908.51 463.93C913.78 459.18 919.58 458.18 926.55 458.38C930.39 458.85 933.48 460.13 937.01 461.68C938 462.01 938.99 462.34 940.01 462.68C941.38 464.97 942.16 467.14 943.01 469.68C944.99 469.35 946.97 469.02 949.01 468.68C947.86 462.74 946.4 458.01 942.01 453.68C928.53 444.99 907.3 445.73 895.48 456.93L895.47 456.94ZM1074.62 462.44C1066.38 473.54 1063.73 487.06 1065 500.69C1066.65 508.92 1069.32 515.49 1075 521.69C1075.54 522.32 1076.07 522.94 1076.62 523.59C1082.08 529.58 1089.15 533.16 1097.28 533.9C1108.54 534.52 1119.11 532.45 1129 527.69C1133.22 523.56 1135.7 519.73 1136 513.69C1134.57 512.99 1132.91 512.657 1131 512.69C1129.08 514.02 1127.45 515.54 1125.74 517.12C1120.61 521.73 1114.71 522.85 1108 522.69C1100.01 521.27 1093.7 518.31 1088.81 511.69C1082.81 502.01 1082.08 491.75 1084 480.69C1086.36 472.32 1090.07 466.22 1097.67 461.77C1105.3 458.24 1113.09 457.98 1121 460.69C1124.6 462.62 1126.62 464.18 1129.06 467.44C1130.23 469.133 1131.79 469.987 1133.75 470C1134.49 469.9 1135.23 469.79 1136 469.69C1136.86 468.363 1136.96 466.973 1136.29 465.52C1132.83 458.22 1129.13 454 1121.72 450.66C1105.4 444.91 1085.89 449.2 1074.63 462.44H1074.62ZM155 450.69C152.6 454.54 150.56 458.51 148.59 462.59C148.27 463.25 147.95 463.92 147.62 464.6C146.58 466.75 145.54 468.91 144.5 471.07C143.78 472.57 143.05 474.06 142.33 475.56C136.92 486.75 131.54 497.95 126.2 509.18C124.99 511.73 123.77 514.27 122.55 516.82C121.8 518.39 121.06 519.95 120.31 521.52C119.97 522.23 119.63 522.93 119.28 523.66C118.14 525.907 117.38 528.257 117 530.71H131C132.17 528.44 133.34 526.17 134.5 523.9C134.83 523.26 135.17 522.61 135.51 521.95C137 519.01 138 517.05 138 513.71C149.22 514.04 160.44 514.37 172 514.71C174.31 519.99 176.62 525.27 179 530.71H197C190.97 516.19 184.42 501.94 177.71 487.73C177.39 487.06 177.07 486.38 176.75 485.69C176.43 485.02 176.12 484.35 175.79 483.66C171.41 474.36 167.14 465 162.88 455.64C162.27 454.32 161.64 453.02 160.99 451.72C158.97 451.28 156.97 450.947 154.99 450.72L155 450.69ZM205 451.69C204.9 454.15 204.87 456.59 204.89 459.06C204.89 459.83 204.89 460.6 204.89 461.4C204.89 463.96 204.89 466.52 204.91 469.08C204.91 470.85 204.91 472.62 204.91 474.39C204.91 479.06 204.92 483.72 204.93 488.39C204.94 493.99 204.95 499.58 204.95 505.18C204.95 513.69 204.98 522.2 205 530.7H258V519.7C246.12 519.37 234.24 519.04 222 518.7V451.7C219.01 450.21 216.26 450.57 212.94 450.58C211.67 450.58 210.4 450.58 209.09 450.58C207.117 450.433 205.753 450.81 205 451.71V451.69ZM768 450.69C766.29 452.4 766.88 454.55 766.88 456.83C766.88 457.57 766.88 458.3 766.89 459.06C766.89 459.83 766.89 460.6 766.89 461.4C766.89 463.96 766.89 466.52 766.91 469.08C766.91 470.85 766.91 472.62 766.91 474.39C766.91 479.06 766.92 483.72 766.93 488.39C766.94 493.15 766.94 497.91 766.95 502.67C766.96 512.01 766.98 521.36 767 530.7H783V450.7H768V450.69ZM1539 450.69C1534.09 460.25 1529.47 469.92 1525 479.69C1521.7 486.89 1518.39 494.07 1514.81 501.13C1511.81 507.06 1508.87 513.01 1506 519.01C1505.6 519.83 1505.2 520.65 1504.79 521.49C1504.42 522.257 1504.06 523.03 1503.69 523.81C1503.36 524.49 1503.03 525.177 1502.7 525.87C1502.11 527.183 1501.88 528.793 1502 530.7H1516C1517.17 528.24 1518.34 525.79 1519.5 523.32C1519.83 522.62 1520.17 521.913 1520.51 521.2C1521.74 518.8 1522.57 516.297 1523 513.69H1557C1557.99 516.66 1558.98 519.63 1560 522.69C1560.68 524.23 1561.4 525.76 1562.19 527.25C1562.79 528.38 1563.39 529.52 1564 530.69H1581C1578.73 523.11 1575.51 516.11 1572.1 508.99C1570.41 505.46 1568.75 501.93 1567.08 498.39C1566.74 497.67 1566.4 496.943 1566.05 496.21C1562.55 488.77 1559.16 481.27 1555.81 473.76C1555.28 472.58 1554.75 471.4 1554.21 470.18C1553.71 469.06 1553.22 467.95 1552.7 466.8C1552.23 465.76 1551.75 464.707 1551.27 463.64C1550.45 461.76 1549.69 459.85 1548.99 457.92C1548.14 455.64 1547.41 453.67 1545.99 451.69C1543.58 450.877 1541.24 450.543 1538.99 450.69H1539ZM268 451.69V530.69H320V519.69H284V451.69H268ZM330 451.69C329.98 461.037 329.963 470.38 329.95 479.72C329.95 485.43 329.94 491.15 329.92 496.86C329.91 501.46 329.9 506.07 329.9 510.67C329.9 512.43 329.9 514.19 329.89 515.95C329.89 518.41 329.89 520.86 329.89 523.32C329.89 524.06 329.89 524.79 329.88 525.55C329.687 527.783 330.06 529.83 331 531.69C332.69 531.78 334.38 531.81 336.07 531.8C337.15 531.8 338.23 531.8 339.35 531.8C340.53 531.8 341.7 531.79 342.91 531.78C344.11 531.78 345.3 531.78 346.54 531.78C350.38 531.78 354.22 531.76 358.06 531.75C360.66 531.75 363.25 531.75 365.85 531.74C372.23 531.73 378.61 531.71 385 531.69V520.69H347V494.69H376V483.69H347V461.69H380V451.69H330ZM429 451.69V530.69C435.54 530.77 442.08 530.85 448.81 530.94C450.85 530.973 452.91 531.01 454.99 531.05C467.66 531.18 477.9 530.17 487.99 521.74C496.17 513.37 499.62 502.32 500.18 490.88C499.99 479.67 496.22 469.49 489.2 460.77C483.69 455.56 475.36 451.55 467.71 451.57C466.837 451.57 465.957 451.57 465.07 451.57C464.183 451.57 463.26 451.577 462.3 451.59C461.46 451.59 460.62 451.59 459.75 451.59C456.6 451.59 453.46 451.61 450.31 451.62C443.277 451.64 436.173 451.66 429 451.68V451.69ZM515 451.69C514.98 461.037 514.963 470.38 514.95 479.72C514.95 485.43 514.94 491.15 514.92 496.86C514.91 501.46 514.9 506.07 514.9 510.67C514.9 512.43 514.9 514.19 514.89 515.95C514.89 518.41 514.89 520.86 514.89 523.32C514.89 524.06 514.89 524.79 514.88 525.55C514.687 527.783 515.06 529.83 516 531.69C517.65 531.79 519.31 531.82 520.96 531.82C522.02 531.82 523.08 531.82 524.17 531.82C525.32 531.82 526.47 531.82 527.66 531.82C528.83 531.82 530.01 531.82 531.21 531.82C533.69 531.82 536.18 531.82 538.66 531.82C542.48 531.82 546.3 531.82 550.12 531.82C552.53 531.82 554.94 531.82 557.34 531.82C558.493 531.82 559.657 531.82 560.83 531.82C561.89 531.82 562.96 531.82 564.04 531.82C564.98 531.82 565.91 531.82 566.88 531.82C568.287 531.893 569.33 531.517 570.01 530.69V520.69C557.47 520.36 544.93 520.03 532.01 519.69V495.69C541.58 495.36 551.15 495.03 561.01 494.69V484.69C560.283 483.81 559.023 483.44 557.23 483.58C556.02 483.58 554.81 483.59 553.56 483.6C552.25 483.6 550.95 483.6 549.6 483.6C548.21 483.6 546.82 483.62 545.43 483.63C544.04 483.63 542.64 483.63 541.25 483.64C537.83 483.65 534.41 483.67 530.99 483.69C531.32 476.76 531.65 469.83 531.99 462.69C542.88 462.36 553.77 462.03 564.99 461.69V451.69H514.99H515ZM614 451.69V531.69C632.613 533.23 650.613 530.563 668 523.69C669.61 521.41 670.76 519.22 672 516.69C672.36 516.06 672.71 515.42 673.08 514.77C675.05 510.29 674.67 505.11 673.38 500.47C670.38 493.58 664.6 489.84 658 486.69C658.91 486.13 659.82 485.58 660.75 485C664.42 482.39 666.98 479.73 669 475.69C669.97 468.52 669.1 463.62 665 457.66C660.01 452.73 655.62 451.23 648.77 451.23C647.9 451.25 647.03 451.27 646.13 451.29C645.31 451.29 644.49 451.29 643.65 451.3C640.62 451.32 637.59 451.38 634.56 451.43C627.773 451.51 620.92 451.593 614 451.68V451.69ZM715 451.69C714.48 452.783 713.957 453.887 713.43 455C711.46 459.16 709.48 463.32 707.51 467.48C706.63 469.33 705.75 471.18 704.87 473.03C700.29 482.67 695.71 492.31 691.08 501.93C686.5 511.44 682.15 521 678 530.7H693C695.31 525.42 697.62 520.14 700 514.7C711.22 514.37 722.44 514.04 734 513.7C734.327 515.347 734.66 517.013 735 518.7C735.96 520.83 736.99 522.93 738.06 525.01C739.03 526.89 740 528.76 741 530.7H758C756.13 524.78 753.99 519.27 751.25 513.7C746.85 504.57 742.62 495.37 738.44 486.14C738.113 485.427 737.783 484.703 737.45 483.97C732.58 473.24 727.75 462.49 723 451.7H715V451.69ZM861 450.69C860.67 466.2 860.34 481.71 860 497.69C855.27 492.44 850.58 487.21 845.95 481.89C843.5 479.13 841 476.41 838.5 473.69C835.38 470.3 832.28 466.91 829.25 463.44C828.7 462.83 828.14 462.21 827.57 461.58C826.523 460.32 825.527 458.933 824.58 457.42C823.46 455.633 821.6 453.723 819 451.69H803V530.69H816C816.33 511.88 816.66 493.07 817 473.69C827 484.357 834.333 492.357 839 497.69C840.45 499.32 841.91 500.94 843.38 502.57C844.14 503.41 844.9 504.25 845.68 505.12C846.45 505.97 847.22 506.82 848.01 507.7C853.71 514.013 857.96 518.763 860.76 521.95C861.32 522.58 861.88 523.22 862.46 523.87C863.47 525.06 864.45 526.28 865.38 527.53C866.287 528.783 867.497 530.173 869.01 531.7H874.01V450.7H861.01L861 450.69ZM1177 451.69C1166.65 472.11 1156.82 492.79 1147.23 513.58C1146.72 514.69 1146.21 515.79 1145.68 516.93C1145.23 517.9 1144.79 518.87 1144.33 519.87C1143.37 521.91 1142.37 523.93 1141.33 525.93C1140.34 527.63 1139.9 529.217 1140 530.69H1154C1154.97 528.81 1155.95 526.913 1156.94 525C1157.49 523.94 1158.03 522.89 1158.59 521.8C1159.69 519.58 1160.49 516.877 1161 513.69C1172.22 514.02 1183.44 514.35 1195 514.69C1197.31 519.97 1199.62 525.25 1202 530.69H1220C1216.15 521.21 1211.93 511.93 1207.61 502.65C1201.08 488.62 1194.64 474.57 1188.44 460.39C1187.99 459.37 1187.55 458.36 1187.09 457.31C1186.71 456.43 1186.32 455.55 1185.93 454.65C1185.42 453.363 1184.77 452.373 1184 451.68C1181.67 451.64 1179.33 451.64 1177 451.68V451.69ZM1229 451.69V530.69H1245V495.69C1251 496.357 1254.84 497.553 1256.53 499.28C1257.18 500.41 1257.82 501.54 1258.49 502.7C1258.85 503.31 1259.2 503.91 1259.57 504.54C1260.7 506.47 1261.78 508.42 1262.87 510.38C1263.62 511.68 1264.37 512.97 1265.13 514.26C1268.26 519.66 1271.2 525.11 1274 530.69H1293C1289.25 524.07 1285.47 517.47 1281.57 510.93C1280.98 509.94 1280.39 508.95 1279.78 507.93C1278.59 505.94 1277.4 503.96 1276.21 501.98C1275.66 501.06 1275.12 500.15 1274.55 499.21C1274.06 498.39 1273.56 497.57 1273.05 496.72C1272.34 495.373 1271.98 494.033 1271.98 492.7C1273.42 491.76 1274.87 490.82 1276.32 489.9C1280.99 486.54 1283.78 482.27 1284.98 476.7C1285.81 469.96 1284.62 464.47 1280.98 458.7C1277.51 454.79 1273.25 451.98 1267.95 451.53C1265.47 451.47 1263 451.48 1260.52 451.51C1259.72 451.51 1258.92 451.51 1258.09 451.51C1255.11 451.52 1252.14 451.55 1249.16 451.57C1242.5 451.61 1235.84 451.65 1228.97 451.69H1229ZM1303 451.69V530.69H1319V495.69C1325 496.357 1328.7 497.337 1330.1 498.63C1330.55 499.47 1331.01 500.31 1331.47 501.18C1331.99 502.107 1332.52 503.047 1333.05 504C1333.57 504.99 1334.09 505.99 1334.62 507.01C1335.19 508.01 1335.75 509.01 1336.33 510.03C1338.69 514.21 1340.93 518.36 1342.71 522.82C1343.99 525.807 1345.75 528.43 1347.99 530.69C1354.25 532.07 1360.68 531.37 1366.99 530.69C1363.25 524.06 1359.46 517.47 1355.56 510.93C1354.97 509.94 1354.38 508.95 1353.77 507.93C1352.58 505.94 1351.39 503.96 1350.2 501.98C1349.65 501.06 1349.11 500.15 1348.54 499.21C1348.05 498.39 1347.55 497.57 1347.04 496.72C1346.33 495.373 1345.97 494.033 1345.97 492.7C1346.88 492.1 1347.78 491.5 1348.72 490.89C1354.2 487.2 1356.86 482.93 1358.97 476.7C1359.56 470.62 1358.85 465.16 1355.97 459.7C1352.26 455.4 1347.75 452.02 1341.94 451.53C1339.46 451.47 1336.99 451.48 1334.51 451.51C1333.71 451.51 1332.91 451.51 1332.08 451.51C1329.1 451.52 1326.13 451.55 1323.15 451.57C1316.49 451.61 1309.83 451.65 1302.96 451.69H1303ZM1377 451.69C1376.98 461.037 1376.96 470.38 1376.95 479.72C1376.95 485.43 1376.94 491.15 1376.92 496.86C1376.91 501.46 1376.9 506.07 1376.9 510.67C1376.9 512.43 1376.9 514.19 1376.89 515.95C1376.89 518.41 1376.89 520.86 1376.89 523.32C1376.89 524.06 1376.89 524.79 1376.88 525.55C1376.69 527.783 1377.06 529.83 1378 531.69C1379.65 531.79 1381.31 531.82 1382.96 531.82C1384.02 531.82 1385.08 531.82 1386.17 531.82C1387.32 531.82 1388.47 531.82 1389.66 531.82C1390.83 531.82 1392.01 531.82 1393.21 531.82C1395.69 531.82 1398.18 531.82 1400.66 531.82C1404.48 531.82 1408.3 531.82 1412.12 531.82C1414.53 531.82 1416.94 531.82 1419.34 531.82C1420.49 531.82 1421.66 531.82 1422.83 531.82C1423.89 531.82 1424.96 531.82 1426.04 531.82C1426.98 531.82 1427.91 531.82 1428.88 531.82C1430.29 531.893 1431.33 531.517 1432.01 530.69V520.69C1419.47 520.36 1406.93 520.03 1394.01 519.69V495.69C1403.58 495.36 1413.15 495.03 1423.01 494.69V484.69C1422.28 483.81 1421.02 483.44 1419.23 483.58C1418.02 483.58 1416.81 483.59 1415.56 483.6C1414.25 483.6 1412.95 483.6 1411.6 483.6C1410.21 483.6 1408.82 483.62 1407.43 483.63C1406.04 483.63 1404.64 483.63 1403.25 483.64C1399.83 483.65 1396.41 483.67 1392.99 483.69C1393.32 476.76 1393.65 469.83 1393.99 462.69C1404.88 462.36 1415.77 462.03 1426.99 461.69V451.69H1376.99H1377ZM1444 451.69V530.69H1496V519.69C1484.45 519.357 1472.79 519.023 1461 518.69C1460.67 496.25 1460.34 473.81 1460 450.69C1454.66 450.69 1449.33 451.33 1444 451.69ZM1719.37 450.67C1718.41 450.69 1717.45 450.71 1716.46 450.73C1715.42 450.757 1714.37 450.783 1713.31 450.81C1712.25 450.837 1711.18 450.86 1710.09 450.88C1706.69 450.96 1703.28 451.04 1699.88 451.12C1697.58 451.17 1695.27 451.23 1692.97 451.28C1687.31 451.41 1681.66 451.54 1676.01 451.68C1675.99 461.96 1675.97 472.25 1675.96 482.53C1675.96 487.3 1675.95 492.08 1675.94 496.85C1675.93 501.45 1675.92 506.06 1675.92 510.66C1675.92 512.42 1675.92 514.18 1675.91 515.94C1675.91 518.4 1675.91 520.85 1675.91 523.31C1675.91 524.05 1675.91 524.78 1675.9 525.54C1675.71 527.773 1676.08 529.82 1677.02 531.68C1678.67 531.78 1680.33 531.81 1681.98 531.81C1683.04 531.81 1684.1 531.81 1685.19 531.81C1686.34 531.81 1687.49 531.81 1688.68 531.81C1689.85 531.81 1691.03 531.81 1692.23 531.81C1694.71 531.81 1697.2 531.81 1699.68 531.81C1703.5 531.81 1707.32 531.81 1711.14 531.81C1713.55 531.81 1715.96 531.81 1718.36 531.81C1719.51 531.81 1720.68 531.81 1721.85 531.81C1722.91 531.81 1723.98 531.81 1725.06 531.81C1726 531.81 1726.93 531.81 1727.9 531.81C1729.31 531.883 1730.35 531.507 1731.03 530.68V520.68C1718.49 520.35 1705.95 520.02 1693.03 519.68V495.68C1702.6 495.35 1712.17 495.02 1722.03 494.68V484.68C1721.3 483.8 1720.04 483.43 1718.25 483.57C1717.04 483.57 1715.83 483.58 1714.58 483.59C1713.27 483.59 1711.97 483.59 1710.62 483.59C1709.23 483.59 1707.84 483.61 1706.45 483.62C1705.06 483.62 1703.66 483.62 1702.27 483.63C1698.85 483.64 1695.43 483.66 1692.01 483.68C1692.34 476.75 1692.67 469.82 1693.01 462.68C1703.9 462.35 1714.79 462.02 1726.01 461.68V451.68C1723.57 450.46 1722.1 450.59 1719.38 450.66L1719.37 450.67ZM993 483.5C991.78 487.4 991.27 490.65 992 494.69C994.7 499.79 997.52 502.86 1003 504.69C1009.5 505.46 1013.76 504.67 1019 500.69C1022.36 496.03 1022.88 491.27 1022 485.69C1019.58 480.56 1016.26 477.61 1011 475.69C1003.26 474.58 997.57 477.07 993 483.5Z" fill="black"/>
<path d="M453.44 461.38C461.3 461.38 467.93 462.12 474.06 467.49C480.72 474.61 482.99 482.07 483.01 491.69C482.43 500.59 480.9 507.78 474.49 514.21C466.12 521.54 456.69 521.21 446.01 520.69C444.29 518.97 444.88 516.7 444.88 514.36C444.88 513.22 444.88 512.08 444.88 510.91C444.88 509.67 444.88 508.43 444.88 507.16C444.88 505.9 444.88 504.64 444.88 503.34C444.88 500.67 444.88 497.99 444.88 495.32C444.88 491.89 444.88 488.45 444.88 485.02C444.88 481.76 444.88 478.49 444.88 475.23C444.88 473.99 444.88 472.75 444.88 471.48C444.88 470.34 444.88 469.2 444.88 468.03C444.88 467.02 444.88 466.02 444.88 464.98C445.15 460.09 449.54 461.43 453.44 461.39V461.38Z" fill="black"/>
<path d="M630 461.69C632.353 461.61 634.727 461.526 637.12 461.44C637.85 461.4 638.58 461.37 639.33 461.33C644.38 461.25 647.13 462.52 651 465.69C653.01 469.7 652.76 474.35 652 478.69C649.36 482.36 646.24 484.28 642 485.69H630V461.69Z" fill="black"/>
<path d="M1244 462.69C1246.4 462.61 1248.79 462.55 1251.19 462.5C1251.86 462.47 1252.54 462.45 1253.23 462.42C1258.7 462.34 1261.51 463.81 1265.75 467C1267.63 469.54 1267.82 471.54 1268 474.69C1267.06 479.97 1265.25 484.29 1261 487.69C1255.79 490.29 1250.77 491.17 1245 490.69C1244.33 490.023 1243.96 488.827 1243.89 487.1C1243.89 485.97 1243.9 484.85 1243.91 483.69C1243.91 482.48 1243.91 481.26 1243.91 480.01C1243.91 478.73 1243.93 477.45 1243.94 476.13C1243.94 474.85 1243.94 473.56 1243.95 472.24C1243.96 469.06 1243.98 465.87 1244 462.69Z" fill="black"/>
<path d="M1319 462.69C1321.35 462.61 1323.73 462.526 1326.12 462.44C1326.85 462.4 1327.58 462.37 1328.33 462.33C1333.39 462.24 1336.12 463.53 1340 466.69C1342.5 470.5 1342.18 474.13 1341.52 478.48C1340.68 482.07 1339.56 484.01 1337 486.69C1330.68 490.28 1326.48 490.69 1319 490.69V462.69Z" fill="black"/>
<path d="M155 477.69C158.35 481.55 160.11 486.11 162.12 490.75C162.48 491.57 162.84 492.38 163.21 493.22C164.59 496.36 165.91 499.43 167 502.69H144C146.35 496.81 148.7 490.95 151.19 485.13C151.7 483.93 152.21 482.73 152.73 481.5C153.577 479.627 154.333 478.357 155 477.69Z" fill="black"/>
<path d="M716 477.69C718.56 479.98 719.87 482.16 721.26 485.29C721.66 486.17 722.05 487.06 722.46 487.97C722.867 488.89 723.274 489.82 723.68 490.76C724.087 491.7 724.507 492.634 724.94 493.56C726.974 498.134 727.99 501.18 727.99 502.7H705.99C708.244 495.954 709.85 491.494 710.81 489.32L711.74 487.22C712.05 486.53 712.36 485.84 712.68 485.14C713 484.42 713.32 483.69 713.65 482.95C714.43 481.2 715.21 479.45 715.99 477.7L716 477.69Z" fill="black"/>
<path d="M1178 477.69C1181.34 481.56 1183.15 486.12 1185.19 490.75C1185.56 491.57 1185.93 492.38 1186.31 493.22C1186.66 494 1187 494.79 1187.36 495.6C1187.67 496.314 1187.99 497.034 1188.32 497.76C1188.78 499.047 1189.01 500.69 1189.01 502.69H1167.01C1170.35 494.14 1173.7 485.8 1178.01 477.69H1178Z" fill="black"/>
<path d="M1539 477.69H1541C1542.67 481.48 1544.34 485.27 1546 489.07C1546.48 490.15 1546.95 491.23 1547.45 492.34L1548.82 495.46C1549.24 496.41 1549.66 497.37 1550.09 498.35C1550.7 499.91 1551.01 501.357 1551.01 502.69H1529.01C1529.78 498.84 1530.49 496.28 1532.08 492.83L1533.3 490.14C1533.72 489.23 1534.14 488.32 1534.58 487.38C1535 486.45 1535.43 485.52 1535.87 484.56C1536.92 482.27 1537.97 479.98 1539.02 477.69H1539Z" fill="black"/>
<path d="M637.06 491.44C644.36 491.51 649.23 492.33 654.94 497.19C657.95 500.84 658.35 503.94 658.29 508.63C657.7 512.92 655.09 515.74 651.94 518.51C648.93 520.36 646.45 520.82 642.99 520.8C642.23 520.8 641.467 520.8 640.7 520.8C639.91 520.8 639.13 520.78 638.32 520.77C637.52 520.77 636.73 520.77 635.9 520.76C633.93 520.75 631.97 520.73 630 520.71C629.98 516.74 629.96 512.77 629.95 508.8C629.95 507.45 629.94 506.1 629.93 504.75C629.92 502.81 629.91 500.87 629.91 498.93C629.91 497.76 629.9 496.59 629.89 495.39C630.1 490.46 632.7 491.52 637.07 491.46L637.06 491.44Z" fill="black"/>
</g>
<defs>
<clipPath id="clip0_406_860">
<rect width="1785.06" height="638.85" fill="white"/>
</clipPath>
</defs>
</svg>
