<svg width="3662" height="782" viewBox="0 0 3662 782" fill="none" xmlns="http://www.w3.org/2000/svg">
<g clip-path="url(#clip0_406_948)">
<path d="M1995.76 1.04944L2118.76 1.5493L1989.15 627.643L1849.11 628.183L1757.28 204.322L1665.32 627.773L1524.69 628.193L1395.67 1.76924L1518.57 0.179688L1605.51 470.787L1699.21 4.13857L1820.99 3.11886L1913.47 465.089L1995.76 1.04944Z" fill="black"/>
<path d="M388.321 285.17C473.612 303.505 520.648 377.224 513.467 461.82C507.517 531.9 470.962 587.315 402.393 610.518C366.608 619.636 326.173 627.893 287.388 627.973L0 628.603V0L300.379 0.299916C328.673 0.329907 359.617 7.69783 385.921 14.5259C448.109 37.8594 483.933 89.5448 486.004 154.477C487.984 216.209 454.47 265.335 388.301 285.18L388.321 285.17ZM289.308 248.28C335.834 247.62 359.487 206.692 358.187 169.892C356.887 133.422 327.343 100.092 284.757 99.7419L123.716 98.4123L123.016 250.62L289.318 248.28H289.308ZM386.461 429.709C381.58 304.794 212.678 351.461 123.256 342.954L123.076 519.254C213.798 510.017 391.561 560.352 386.461 429.709Z" fill="black"/>
<path d="M2109.26 427.21C2128.16 395.429 2165.15 369.616 2200.4 362.758L2384.83 326.868C2389.15 309.103 2390.48 273.813 2372.62 261.397C2335.87 235.854 2283.67 237.334 2244.83 260.597C2234.72 266.655 2229.87 291.408 2226.93 307.254L2118.48 307.354C2112.24 244.772 2151.32 192.576 2210.73 172.252C2303.95 140.361 2498.17 147.679 2498.57 283.881L2499.58 627.324L2396.45 628.923L2384.34 589.744C2309.57 651.447 2177.89 662.204 2118.49 579.567C2087.25 536.12 2079.13 477.846 2109.25 427.22L2109.26 427.21ZM2387.07 510.637L2386.15 413.584C2325.15 432.139 2194.09 425.671 2210.08 502.869C2224.27 571.38 2339.69 541.078 2387.07 510.647V510.637Z" fill="black"/>
<path d="M573.315 420.942C594.858 389.7 633.243 367.367 669.388 360.439L842.801 327.188C849.942 311.912 850.142 276.862 835.45 263.416C812.027 241.962 775.732 243.042 746.028 245.131C710.033 247.67 687.48 268.874 687.86 307.603L577.456 307.034C573.766 242.642 613.151 190.836 673.699 171.052C736.637 150.488 805.716 152.837 869.594 170.482C926.652 186.248 959.506 235.874 959.536 295.037L959.716 627.773L855.122 628.613L845.431 589.974C769.181 650.977 633.293 664.003 575.186 574.718C546.122 530.051 539.331 470.208 573.305 420.932L573.315 420.942ZM847.501 511.086L845.991 413.424L711.864 441.416C684.79 447.064 665.988 470.957 668.848 496.66C670.938 515.485 690.091 538.988 714.284 542.927C761.1 550.545 804.466 532.36 847.491 511.086H847.501Z" fill="black"/>
<path d="M3309.04 544.217C3351.16 542.018 3370.85 518.014 3387.48 486.373L3494.56 513.546C3466.27 634.252 3327.86 649.597 3227.81 631.333C3068.48 602.241 3062.18 396.829 3093.65 282.861C3128.03 158.326 3265.21 141.12 3370.77 166.193C3492.08 195.005 3511.09 322.969 3501.46 427.54L3194.45 427.89C3192.01 461.81 3199.91 498.49 3225.76 523.633C3245.38 542.707 3279.13 545.787 3309.04 544.227V544.217ZM3389.74 345.683C3391.99 311.992 3386.24 275.703 3356.29 258.757C3320.04 238.243 3268.62 237.833 3232.5 259.037C3201.88 277.022 3193.6 314.442 3194.52 345.853L3389.75 345.683H3389.74Z" fill="black"/>
<path d="M1235.95 694.934C1207.77 788.098 1095.07 796.895 1023.38 765.944L1023.56 685.567L1075.6 692.305C1091.02 694.304 1115.45 688.346 1124.8 677.009C1134.15 665.672 1139.62 642.349 1134.11 626.613L976.648 177.32L1094.72 176.71L1192.8 489.992L1276.77 177.4C1314.98 175.69 1351.6 175.78 1392.22 178.349L1235.96 694.924L1235.95 694.934Z" fill="black"/>
<path d="M2848.13 627.704L2736.3 628.253L2736.14 177.23L2838.39 175.261L2851.87 218.299C2889.3 172.802 2942.91 152.417 3005.69 159.025L3006.51 260.817L2943.86 262.896C2890.45 264.666 2850.27 310.863 2849.9 365.997L2848.14 627.694L2848.13 627.704Z" fill="black"/>
<path d="M3037.94 513.126H2925.62V628.454H3037.94V513.126Z" fill="black"/>
<path d="M3662 511.156H3551.77V628.453H3662V511.156Z" fill="black"/>
</g>
<defs>
<clipPath id="clip0_406_948">
<rect width="3662" height="782" fill="white"/>
</clipPath>
</defs>
</svg>
