<svg width="48" height="48" viewBox="0 0 48 48" fill="none" xmlns="http://www.w3.org/2000/svg">
<rect x="1" y="1" width="46" height="46" rx="23" stroke="black" stroke-width="2"/>
<path d="M24.35 33H17C16.4696 33 15.9609 32.7893 15.5858 32.4143C15.2107 32.0392 15 31.5305 15 31V22C14.9998 21.7087 15.0632 21.4208 15.1858 21.1565C15.3085 20.8923 15.4874 20.658 15.71 20.47L22.71 14.47C23.0708 14.1655 23.5278 13.9984 24 13.9984C24.4722 13.9984 24.9292 14.1655 25.29 14.47L32.29 20.47C32.5126 20.658 32.6915 20.8923 32.8142 21.1565C32.9368 21.4208 33.0002 21.7087 33 22V24.35" stroke="black" stroke-width="2" stroke-linecap="round" stroke-linejoin="round"/>
<path d="M26.8 24.4C26.7069 24.2758 26.5861 24.175 26.4472 24.1056C26.3084 24.0361 26.1552 24 26 24H22C21.7348 24 21.4804 24.1054 21.2929 24.2929C21.1054 24.4804 21 24.7348 21 25V33" stroke="black" stroke-width="2" stroke-linecap="round" stroke-linejoin="round"/>
<path d="M27 30H33" stroke="black" stroke-width="2" stroke-linecap="round" stroke-linejoin="round"/>
<path d="M30 27V33" stroke="black" stroke-width="2" stroke-linecap="round" stroke-linejoin="round"/>
</svg>
