<svg width="75" height="60" viewBox="0 0 75 60" fill="none" xmlns="http://www.w3.org/2000/svg">
<path d="M23.8195 21.0399L28.7374 20.7833C29.051 20.8118 29.2078 20.9686 29.2078 21.2537V21.2965C29.2078 21.9522 28.6946 22.4226 27.6683 22.7077C27.0981 22.7077 26.2998 22.893 25.2735 23.2636C24.2472 23.6057 23.5915 23.8623 23.3064 24.0334C22.5651 24.404 22.1945 24.7603 22.1945 25.1025C22.1945 25.4446 22.5936 25.8865 23.3919 26.4281C23.677 26.5992 23.9478 26.9413 24.2044 27.4545C24.461 27.9676 24.5893 28.6234 24.5893 29.4216C24.5893 31.2462 23.7198 33.8691 21.9807 37.2902C20.2701 40.7113 18.2175 44.0611 15.8227 47.3397C13.4564 50.6183 10.9333 53.4835 8.25345 55.9353C5.54506 58.3871 3.33559 59.613 1.62503 59.613C1.14037 59.613 0.769751 59.499 0.513168 59.2709C0.256584 59.0428 0.114038 58.8147 0.0855281 58.5866C0.0285094 58.3586 0 58.045 0 57.6458C0 55.9353 1.48248 52.0153 4.44745 45.8857C7.41242 39.7848 11.2184 32.857 15.8654 25.1025C15.9225 24.9884 15.951 24.8744 15.951 24.7603C15.951 24.0761 15.224 23.734 13.77 23.734C13.5134 23.734 13.3851 23.5915 13.3851 23.3064C13.3851 22.8217 13.8983 22.2515 14.9246 21.5958C15.2097 21.3962 15.6944 21.2965 16.3786 21.2965H17.0628C17.69 21.2965 18.0749 21.1824 18.2175 20.9543C21.439 15.167 24.6606 10.2348 27.8821 6.15801C31.1322 2.05267 33.6695 0 35.4941 0C36.663 0 37.2474 0.726987 37.2474 2.18096C37.2474 4.03407 36.5632 6.18652 35.1948 8.63832C33.8263 11.0616 32.2298 13.1143 30.4052 14.7963C28.6091 16.4784 27.0981 17.3194 25.8722 17.3194C25.5586 17.3194 25.4018 17.2339 25.4018 17.0628C25.4018 16.8062 25.5871 16.5497 25.9577 16.2931C27.5257 15.2382 29.0367 13.5562 30.4907 11.2469C31.9447 8.93767 32.6717 7.29839 32.6717 6.32907C32.6717 6.01547 32.5576 5.85867 32.3296 5.85867C31.2462 5.85867 29.3218 7.93985 26.5564 12.1022C23.8195 16.2361 22.4511 18.8874 22.4511 20.0563C22.4511 20.712 22.9072 21.0399 23.8195 21.0399ZM18.4313 26.8985C18.1177 26.8985 17.8041 27.1409 17.4905 27.6255C14.6966 32.4151 12.259 37.1049 10.1778 41.6949C8.09665 46.3134 7.05606 49.3781 7.05606 50.8891V50.9319C7.05606 51.5021 7.26988 51.7872 7.69752 51.7872C8.21068 51.7872 9.15149 51.0459 10.5199 49.5634C11.8884 48.1095 13.2996 46.3419 14.7536 44.2607C16.2075 42.208 17.4905 39.8845 18.6023 37.2902C19.7427 34.6958 20.3129 32.4436 20.3129 30.5335C20.3129 28.1102 19.6857 26.8985 18.4313 26.8985Z" fill="white"/>
<path d="M27.0031 38.6159C26.604 38.6159 26.1621 38.3593 25.6774 37.8461C25.1928 37.3615 24.9504 36.7628 24.9504 36.05C24.9504 35.6509 25.877 33.641 27.7301 30.0203C29.6117 26.3711 30.581 23.9051 30.6381 22.6221C30.6381 22.223 30.8946 21.8524 31.4078 21.5103C32.3201 20.9686 33.6743 20.6978 35.4704 20.6978C35.8125 20.6978 36.1689 20.769 36.5395 20.9116C36.9386 21.0256 37.1382 21.1967 37.1382 21.4248C37.1382 21.5388 37.0954 21.6386 37.0099 21.7241C35.9265 23.0925 34.3443 25.5586 32.2631 29.1223C30.1819 32.6859 28.6139 35.5796 27.559 37.8034C27.4165 38.345 27.2312 38.6159 27.0031 38.6159ZM36.3684 18.303C35.114 18.303 34.4583 17.8041 34.4013 16.8062V16.7635C34.4013 15.9082 34.8147 15.2097 35.6414 14.668C36.4967 14.1264 37.3377 13.8555 38.1645 13.8555C39.4189 13.8555 40.0746 14.3544 40.1317 15.3523C40.1317 16.2075 39.7183 16.9203 38.8915 17.4905C38.0647 18.0321 37.2237 18.303 36.3684 18.303Z" fill="white"/>
<path d="M38.8083 38.8725C37.1548 38.8725 35.9431 38.3735 35.1734 37.3757C34.4036 36.4064 34.0187 35.209 34.0187 33.7835C34.0187 32.3296 34.3323 30.8186 34.9595 29.2506C35.5868 27.654 36.442 26.1145 37.5254 24.6321C38.6373 23.1496 40.077 21.9094 41.8446 20.9116C43.6406 19.8853 45.565 19.3721 47.6177 19.3721C48.5585 19.3721 49.2712 19.6714 49.7559 20.2701C50.2405 20.8403 50.4829 21.5245 50.4829 22.3228C50.4829 23.9763 49.8984 25.5158 48.7295 26.9413C47.5607 28.3668 46.2635 29.4501 44.838 30.1914C43.4126 30.9326 42.1439 31.3603 41.032 31.4743C39.9487 31.5598 39.2217 31.7594 38.8511 32.073C38.4805 32.3866 38.2951 33.0138 38.2951 33.9546C38.2951 34.8954 38.509 35.6081 38.9366 36.0928C39.3642 36.5775 39.7919 36.9053 40.2195 37.0764C40.6472 37.2474 40.861 37.4185 40.861 37.5895C40.861 37.9887 40.6472 38.3023 40.2195 38.5303C39.7919 38.7584 39.3215 38.8725 38.8083 38.8725ZM46.3348 23.3919C46.3348 22.5081 45.9356 22.0662 45.1374 22.0662C43.997 22.0662 42.7283 22.8645 41.3314 24.461C39.9629 26.0575 39.2787 27.4972 39.2787 28.7802C39.2787 29.0938 39.521 29.2506 40.0057 29.2506C41.1746 29.2506 42.5145 28.6519 44.0255 27.4545C45.565 26.2571 46.3348 24.9029 46.3348 23.3919Z" fill="white"/>
<path d="M61.5721 21.0399L66.49 20.7833C66.8036 20.8118 66.9604 20.9686 66.9604 21.2537V21.2965C66.9604 21.9522 66.4472 22.4226 65.4209 22.7077C64.8507 22.7077 64.0524 22.893 63.0261 23.2636C61.9998 23.6057 61.344 23.8623 61.0589 24.0334C60.3177 24.404 59.9471 24.7603 59.9471 25.1025C59.9471 25.4446 60.3462 25.8865 61.1445 26.4281C61.4296 26.5992 61.7004 26.9413 61.957 27.4545C62.2136 27.9676 62.3419 28.6234 62.3419 29.4216C62.3419 31.2462 61.4723 33.8691 59.7333 37.2902C58.0227 40.7113 55.97 44.0611 53.5752 47.3397C51.209 50.6183 48.6859 53.4835 46.006 55.9353C43.2976 58.3871 41.0882 59.613 39.3776 59.613C38.8929 59.613 38.5223 59.499 38.2657 59.2709C38.0092 59.0428 37.8666 58.8147 37.8381 58.5866C37.7811 58.3586 37.7526 58.045 37.7526 57.6458C37.7526 55.9353 39.2351 52.0153 42.2 45.8857C45.165 39.7848 48.971 32.857 53.618 25.1025C53.675 24.9884 53.7035 24.8744 53.7035 24.7603C53.7035 24.0761 52.9766 23.734 51.5226 23.734C51.266 23.734 51.1377 23.5915 51.1377 23.3064C51.1377 22.8217 51.6509 22.2515 52.6772 21.5958C52.9623 21.3962 53.447 21.2965 54.1312 21.2965H54.8154C55.4426 21.2965 55.8275 21.1824 55.97 20.9543C59.1916 15.167 62.4131 10.2348 65.6347 6.15801C68.8848 2.05267 71.4221 0 73.2467 0C74.4156 0 75 0.726987 75 2.18096C75 4.03407 74.3158 6.18652 72.9473 8.63832C71.5789 11.0616 69.9824 13.1143 68.1578 14.7963C66.3617 16.4784 64.8507 17.3194 63.6248 17.3194C63.3112 17.3194 63.1544 17.2339 63.1544 17.0628C63.1544 16.8062 63.3397 16.5497 63.7103 16.2931C65.2783 15.2382 66.7893 13.5562 68.2433 11.2469C69.6973 8.93767 70.4243 7.29839 70.4243 6.32907C70.4243 6.01547 70.3102 5.85867 70.0821 5.85867C68.9988 5.85867 67.0744 7.93985 64.309 12.1022C61.5721 16.2361 60.2037 18.8874 60.2037 20.0563C60.2037 20.712 60.6598 21.0399 61.5721 21.0399ZM56.1838 26.8985C55.8702 26.8985 55.5566 27.1409 55.243 27.6255C52.4491 32.4151 50.0116 37.1049 47.9304 41.6949C45.8492 46.3134 44.8086 49.3781 44.8086 50.8891V50.9319C44.8086 51.5021 45.0224 51.7872 45.4501 51.7872C45.9633 51.7872 46.9041 51.0459 48.2725 49.5634C49.641 48.1095 51.0522 46.3419 52.5061 44.2607C53.9601 42.208 55.243 39.8845 56.3549 37.2902C57.4953 34.6958 58.0655 32.4436 58.0655 30.5335C58.0655 28.1102 57.4383 26.8985 56.1838 26.8985Z" fill="white"/>
</svg>
