<svg xmlns="http://www.w3.org/2000/svg" width="1024" height="292" viewBox="0 0 1024 292">
<g>
<path d="M 497.24 271.90 C493.25,271.43 488.52,270.68 486.74,270.22 C483.54,269.39 483.50,269.30 483.21,262.79 L 482.91 256.20 L 504.80 255.85 C530.50,255.44 530.24,255.53 529.80,247.11 C529.40,239.70 528.02,239.03 512.93,239.01 C498.70,239.00 492.76,237.43 487.67,232.34 C482.91,227.58 481.69,222.82 482.17,210.88 C482.52,202.38 482.88,200.77 485.35,197.04 C490.87,188.71 505.66,185.06 526.07,187.01 C546.96,189.00 547.19,189.11 546.80,197.31 L 546.50 203.50 L 525.90 204.00 C510.50,204.37 504.88,204.85 503.65,205.87 C501.26,207.86 501.33,217.58 503.75,218.85 C504.71,219.35 511.80,219.99 519.50,220.26 C544.80,221.17 550.02,225.59 549.98,246.07 C549.95,258.65 548.19,263.52 542.26,267.45 C534.76,272.41 516.87,274.18 497.24,271.90 ZM 591.50 272.30 C569.50,269.38 562.28,257.49 563.25,225.72 C563.80,207.78 565.21,202.31 571.03,195.71 C577.42,188.45 583.25,186.64 600.50,186.56 C611.24,186.51 615.84,186.91 620.27,188.28 C627.90,190.64 633.92,196.45 637.09,204.50 C639.28,210.06 639.45,211.89 639.45,229.50 C639.45,247.00 639.27,248.95 637.15,254.27 C634.21,261.62 630.91,265.50 625.12,268.44 C617.92,272.08 602.88,273.81 591.50,272.30 ZM 610.78 252.44 C615.65,249.03 616.50,245.62 616.50,229.50 C616.50,208.02 614.65,205.00 601.50,205.00 C589.01,205.00 586.77,208.01 586.18,225.54 C585.66,240.91 587.02,247.99 591.14,251.46 C593.76,253.66 595.11,254.00 601.35,254.00 C606.26,254.00 609.26,253.50 610.78,252.44 ZM 715.50 271.86 C710.31,269.93 705.83,265.88 703.79,261.26 C702.15,257.56 701.88,255.08 702.16,246.49 C702.48,236.89 702.71,235.86 705.51,231.89 C707.33,229.30 710.48,226.60 713.48,225.05 C718.05,222.70 719.73,222.46 734.97,222.00 L 751.50 221.50 L 751.43 217.50 C751.21,205.69 749.40,204.77 725.25,204.19 L 707.00 203.76 L 707.00 198.00 C707.00,194.44 707.51,191.83 708.32,191.15 C710.59,189.27 724.00,186.89 735.50,186.33 C755.51,185.36 766.76,189.42 771.95,199.48 L 774.50 204.44 L 774.81 238.22 L 775.12 272.00 L 765.70 272.00 L 756.27 272.00 L 754.57 267.53 L 752.86 263.06 L 749.11 265.54 C740.49,271.25 722.81,274.57 715.50,271.86 ZM 743.36 255.41 C746.74,254.54 750.06,253.36 750.75,252.79 C751.59,252.10 752.00,248.66 752.00,242.38 L 752.00 233.00 L 747.75 233.02 C745.41,233.03 740.58,233.46 737.00,233.97 C731.64,234.74 730.02,235.44 727.75,237.97 C722.94,243.33 724.42,253.61 730.36,256.01 C733.57,257.30 736.57,257.17 743.36,255.41 ZM 132.50 270.89 C116.31,268.56 96.68,260.70 82.18,250.75 C66.93,240.29 51.82,222.71 43.12,205.29 C39.38,197.81 35.60,186.79 33.36,176.84 C30.32,163.36 31.34,129.99 35.00,123.11 C35.47,122.22 36.75,124.75 38.52,130.11 C42.68,142.63 44.74,147.00 46.50,147.00 C49.63,147.00 49.11,143.70 43.54,128.03 L 37.87 112.07 L 41.94 103.38 C44.18,98.60 46.22,94.89 46.47,95.13 C46.71,95.38 50.58,106.14 55.06,119.04 C59.53,131.94 63.62,143.29 64.13,144.25 C65.28,146.40 68.58,146.55 69.37,144.48 C69.69,143.65 65.69,130.73 60.47,115.77 C55.26,100.81 51.00,88.15 51.00,87.63 C51.00,86.36 59.06,75.73 59.61,76.27 C59.84,76.51 65.35,91.96 71.85,110.60 C82.90,142.29 83.83,144.52 86.17,144.80 C92.03,145.50 91.79,144.32 78.46,106.01 C71.53,86.10 66.08,69.23 66.35,68.54 C66.95,66.96 75.89,59.56 76.48,60.15 C76.72,60.39 82.51,76.76 89.36,96.54 C105.51,143.22 105.73,143.78 108.02,144.50 C110.45,145.28 113.61,143.61 114.23,141.21 C114.50,140.19 108.32,120.94 100.51,98.43 C92.69,75.92 85.99,56.54 85.61,55.36 C85.04,53.56 85.75,52.71 89.98,50.11 C92.76,48.40 95.38,47.00 95.82,47.00 C96.72,47.00 96.16,45.48 114.97,99.00 C131.33,145.52 132.40,147.41 139.37,141.93 C140.81,140.79 142.00,138.90 142.00,137.72 C142.00,136.55 134.54,114.54 125.43,88.81 C116.32,63.08 109.10,41.64 109.39,41.17 C110.25,39.78 123.06,36.65 123.93,37.62 C124.36,38.10 132.54,60.76 142.11,87.97 C151.71,115.29 160.44,138.54 161.59,139.89 C164.55,143.34 169.55,143.22 172.66,139.61 C173.95,138.11 175.00,136.28 175.00,135.54 C175.00,134.80 167.12,111.85 157.50,84.54 C147.88,57.24 140.00,34.68 140.00,34.41 C140.00,34.14 143.42,34.05 147.59,34.21 L 155.19 34.50 L 173.11 85.50 C192.58,140.93 192.61,141.00 199.83,141.00 C204.56,141.00 207.54,138.91 208.97,134.60 C210.01,131.45 208.92,127.89 193.66,84.36 C184.63,58.59 177.61,37.36 178.05,37.19 C179.64,36.58 197.51,43.16 205.38,47.26 C227.64,58.84 247.25,79.33 257.97,102.19 C266.34,120.05 269.55,136.83 268.73,158.38 C267.60,187.91 257.15,212.84 236.88,234.35 C218.46,253.91 196.03,265.96 169.62,270.48 C160.11,272.11 142.31,272.30 132.50,270.89 ZM 670.56 270.51 C664.75,268.44 661.81,265.87 659.01,260.43 L 656.50 255.56 L 656.20 215.78 L 655.89 176.00 L 638.50 176.00 C628.93,176.00 618.82,175.51 616.03,174.91 C608.11,173.21 602.03,168.56 598.50,161.50 L 595.50 155.50 L 595.22 95.75 L 594.94 36.00 L 608.94 36.00 L 622.95 36.00 L 623.23 90.47 L 623.50 144.95 L 625.78 147.22 C628.00,149.45 628.67,149.51 653.78,150.00 L 679.50 150.50 L 679.50 199.66 L 679.50 248.83 L 681.87 251.36 C683.48,253.07 685.89,254.15 689.37,254.70 L 694.50 255.51 L 694.79 263.76 L 695.08 272.00 L 684.79 271.96 C678.60,271.93 672.93,271.35 670.56,270.51 ZM 792.46 270.75 C792.19,270.06 792.09,251.05 792.24,228.50 L 792.50 187.50 L 801.29 187.21 L 810.08 186.92 L 812.63 192.71 C814.04,195.89 815.36,198.68 815.58,198.90 C815.79,199.12 818.16,197.26 820.83,194.76 C823.50,192.26 827.13,189.47 828.90,188.55 C832.69,186.59 840.76,185.47 844.45,186.40 L 847.06 187.05 L 846.78 198.70 L 846.50 210.35 L 839.85 210.11 C831.61,209.81 826.74,211.08 820.69,215.08 L 816.00 218.19 L 816.00 245.09 L 816.00 272.00 L 804.47 272.00 C796.16,272.00 792.80,271.65 792.46,270.75 ZM 498.50 175.99 C472.65,171.33 462.19,156.20 460.15,120.50 C459.70,112.80 459.69,100.29 460.12,92.69 C462.59,48.67 478.69,33.62 521.50,35.31 C529.20,35.62 537.86,36.53 540.74,37.34 C562.71,43.52 571.52,58.11 573.95,92.30 C575.16,109.25 573.87,131.27 571.04,142.35 C566.42,160.40 557.55,170.16 541.65,174.70 C535.51,176.46 505.99,177.34 498.50,175.99 ZM 526.77 150.88 C542.48,148.14 546.67,137.10 545.75,100.85 C545.18,78.83 543.97,73.18 538.48,67.11 C533.22,61.28 521.64,58.87 509.10,60.98 C500.03,62.51 496.19,65.10 492.77,72.00 C488.78,80.05 487.70,89.56 488.26,111.49 C488.79,132.26 490.02,138.49 494.64,143.99 C500.52,150.97 512.04,153.44 526.77,150.88 ZM 818.08 175.41 C811.30,173.59 806.69,170.78 803.39,166.45 C798.21,159.65 798.00,157.38 798.01,108.09 C798.02,83.02 798.30,60.80 798.64,58.73 C799.71,52.28 804.89,44.88 810.83,41.33 C819.69,36.04 825.91,35.46 858.56,36.83 C874.14,37.48 887.59,38.29 888.44,38.62 C889.73,39.11 890.00,41.22 890.00,50.61 L 890.00 62.00 L 864.25 62.02 C825.96,62.06 826.66,61.71 826.17,80.86 L 825.85 93.68 L 845.58 94.34 C856.44,94.70 868.85,95.00 873.16,95.00 L 881.00 95.00 L 881.00 106.38 L 881.00 117.75 L 853.42 118.49 L 825.85 119.23 L 826.17 132.20 C826.50,145.01 826.54,145.21 829.31,147.59 L 832.11 150.00 L 861.06 150.00 L 890.00 150.00 L 890.00 161.98 C890.00,173.59 889.93,173.98 887.75,174.47 C883.72,175.38 850.10,177.00 836.64,176.93 C828.48,176.89 821.44,176.32 818.08,175.41 ZM 939.39 175.44 C926.26,172.18 917.25,163.81 912.55,150.50 C908.05,137.73 907.50,132.94 907.50,106.50 C907.50,85.63 907.81,80.18 909.36,73.50 C914.38,51.98 923.43,41.34 940.41,37.02 C953.67,33.64 977.96,34.80 995.21,39.64 L 1001.00 41.26 L 1001.00 52.26 L 1001.00 63.26 L 996.75 62.65 C994.41,62.32 985.94,61.53 977.91,60.90 C961.26,59.60 951.26,60.67 945.83,64.34 C938.62,69.19 935.09,82.55 935.03,105.18 C934.99,122.88 936.38,133.05 939.80,140.00 C944.94,150.46 951.84,152.62 977.00,151.60 C986.08,151.24 995.19,150.67 997.25,150.34 L 1001.00 149.74 L 1001.00 160.83 L 1001.00 171.92 L 997.10 172.97 C987.59,175.53 982.35,176.10 964.50,176.52 C949.69,176.86 944.15,176.62 939.39,175.44 ZM 370.69 175.27 C370.35,174.72 339.10,75.41 327.41,37.75 C326.91,36.14 328.02,36.00 341.39,36.00 L 355.91 36.00 L 358.90 45.75 C360.54,51.11 366.89,72.38 373.00,93.00 C379.12,113.62 385.16,133.65 386.42,137.50 L 388.73 144.50 L 391.31 136.00 C392.73,131.32 399.78,107.70 406.99,83.50 C414.19,59.30 420.32,38.71 420.61,37.75 C421.08,36.19 422.69,36.00 435.63,36.00 C448.99,36.00 450.09,36.14 449.59,37.75 C446.14,48.82 415.81,145.68 411.78,158.50 L 406.44 175.50 L 388.79 175.77 C379.09,175.92 370.94,175.70 370.69,175.27 ZM 718.00 119.00 L 718.00 62.00 L 699.00 62.00 L 680.00 62.00 L 680.00 49.00 L 680.00 36.00 L 732.50 36.00 L 785.00 36.00 L 785.00 49.00 L 785.00 62.00 L 765.50 62.00 L 746.00 62.00 L 746.00 119.00 L 746.00 176.00 L 732.00 176.00 L 718.00 176.00 L 718.00 119.00 Z" fill="rgba(0,0,0,1)"/>
</g>
</svg>