<svg width="34" height="14" viewBox="0 0 34 14" fill="none" xmlns="http://www.w3.org/2000/svg">
<path d="M4.34414 5.38828C4.35703 5.5 4.36348 5.63105 4.36348 5.78145V10.9377H3.26133V5.78145C3.26133 5.2873 3.1582 4.8748 2.95195 4.54395L1.81113 5.4334V10.9377H0.708984V4.89199C0.708984 4.62559 0.554297 4.35918 0.244922 4.09277C0.158984 4.01973 0.0773437 3.95742 0 3.90586L0.612305 2.99063C1.1752 3.35586 1.53184 3.74043 1.68223 4.14434L3.12598 3.00996C3.56855 3.5127 3.86934 3.92305 4.02832 4.24102L5.59453 3.01641C6.24766 3.74688 6.68379 4.48594 6.90293 5.23359C6.98027 5.5 7.01894 5.76426 7.01894 6.02637C7.01894 6.38301 6.99746 6.77402 6.95449 7.19941C6.87285 8.00723 6.83203 8.61309 6.83203 9.01699C6.83203 9.4166 7.11133 9.8291 7.66992 10.2545L7.0125 11.1246C6.325 10.5918 5.9168 10.0547 5.78789 9.51328C5.74492 9.33711 5.72344 9.13731 5.72344 8.91387C5.72773 8.69043 5.74062 8.4584 5.76211 8.21777C5.7793 7.97715 5.80078 7.74082 5.82656 7.50879C5.88672 6.89004 5.9168 6.3959 5.9168 6.02637C5.9168 5.52793 5.75566 5.03379 5.4334 4.54395L4.34414 5.38828Z" fill="white"/>
<path d="M9.15905 9.5584C9.15905 9.72598 9.2278 9.84844 9.3653 9.92578L10.6157 8.99121V4.68574L9.71334 5.38828C9.34381 5.67617 9.15905 6.06719 9.15905 6.56133V9.5584ZM11.9241 11.1311C11.4643 10.8475 11.1292 10.523 10.9186 10.1578L9.61666 11.1311C8.92487 11.0064 8.45221 10.6928 8.1987 10.19C8.10846 10.0096 8.06334 9.79902 8.06334 9.5584V6.56133C8.06334 5.69336 8.37916 5.02305 9.0108 4.55039L11.0475 3.00996L11.7114 3.35156V8.73984C11.7114 9.0707 11.7758 9.35 11.9047 9.57773C12.0337 9.80547 12.2485 10.0246 12.5493 10.2352L11.9241 11.1311Z" fill="white"/>
<path d="M14.5734 0.908789C14.1652 1.19668 13.9611 1.55117 13.9611 1.97227C13.9611 2.49648 14.38 3.11094 15.2179 3.81563C15.7378 4.25391 16.0988 4.62988 16.3007 4.94355C16.6917 5.55801 16.8872 6.17891 16.8872 6.80625C16.8872 7.98359 16.3759 9.0127 15.3532 9.89355L13.9224 11.1311L13.149 10.6992V5.60098C13.149 5.24863 13.2521 4.96074 13.4583 4.7373L13.9675 4.17012C13.237 3.51699 12.8718 2.78867 12.8718 1.98516C12.8718 1.3707 13.1017 0.822852 13.5615 0.341602C13.6904 0.204102 13.8193 0.0902344 13.9482 0L14.5734 0.908789ZM15.4564 8.18555C15.5853 7.95352 15.6734 7.74297 15.7206 7.55391C15.7679 7.36484 15.7915 7.16719 15.7915 6.96094C15.7915 6.75469 15.7636 6.55703 15.7077 6.36797C15.6519 6.17891 15.5767 5.99414 15.4822 5.81367C15.3017 5.46563 15.074 5.15625 14.799 4.88555L14.2447 5.52363V9.42949L14.6443 9.075C15.0568 8.70977 15.3275 8.41328 15.4564 8.18555Z" fill="white"/>
<path d="M19.298 11.1311C18.0777 10.7787 17.4676 10.0482 17.4676 8.93965V6.11016C17.4633 5.62461 17.5213 5.25723 17.6416 5.00801C17.8392 4.58262 18.125 4.23887 18.4988 3.97676L19.8781 3.00996L21.1801 5.47852L18.5633 7.45078V8.93965C18.5633 9.38652 18.7373 9.70449 19.0853 9.89355L20.3937 8.8752L21.0383 9.77754L19.298 11.1311ZM19.1305 4.87266C18.7609 5.14766 18.5719 5.55156 18.5633 6.08437L19.8008 5.16914C19.6418 4.88555 19.5408 4.69863 19.4978 4.6084L19.1305 4.87266Z" fill="white"/>
<path d="M27.0587 3.00996C27.9396 3.86074 28.4616 4.75449 28.6249 5.69121C28.6765 5.9834 28.7023 6.28633 28.7023 6.6C28.7023 7.91484 28.1909 9.0127 27.1683 9.89355L25.7374 11.1311L24.964 10.6992V3.03574C24.964 2.02168 25.3486 1.18379 26.1177 0.52207C26.3497 0.324414 26.6011 0.152539 26.8718 0.00644531L27.4196 0.960352C26.7837 1.29551 26.3669 1.76387 26.1693 2.36543C26.1005 2.57168 26.0661 2.79512 26.0661 3.03574V3.82207L27.0587 3.00996ZM26.0597 5.25293V9.42949L26.4593 9.075C27.2241 8.40469 27.6066 7.5668 27.6066 6.56133C27.6066 5.87383 27.3466 5.22715 26.8267 4.62129L26.0597 5.25293Z" fill="white"/>
<path d="M31.0679 12.0334C31.1926 12.0807 31.3408 12.1043 31.5127 12.1043C31.6846 12.1043 31.8543 12.0613 32.0219 11.9754C32.1851 11.8852 32.3312 11.7713 32.4601 11.6338C32.7351 11.333 32.8726 10.9893 32.8726 10.6025C32.8726 10.3576 32.8189 10.1213 32.7115 9.89355C32.6084 9.66152 32.5353 9.49395 32.4924 9.39082L31.2678 10.3705C31.1904 10.3189 31.0959 10.2588 30.9842 10.19L30.6168 9.98379C30.3074 9.81191 30.0066 9.67012 29.7144 9.5584V4.7373C29.7144 4.51387 29.607 4.29902 29.3922 4.09277C29.3148 4.01543 29.2138 3.92734 29.0892 3.82852L29.8305 3.00996C30.2129 3.34941 30.4578 3.59648 30.5652 3.75117C30.7328 4.00469 30.8166 4.26895 30.8166 4.54395V8.83008C30.8853 8.86445 30.9541 8.89883 31.0228 8.9332C31.0916 8.96758 31.1517 8.9998 31.2033 9.02988L32.2603 8.1791V5.79434C32.2646 5.39473 32.1207 5.01016 31.8285 4.64062C31.7426 4.52891 31.6459 4.41504 31.5385 4.29902L31.0808 3.78984L31.8672 3.00996L32.3183 3.50625C32.6535 3.87148 32.8812 4.16797 33.0015 4.3957C33.2379 4.83398 33.356 5.29375 33.356 5.775V8.14043C33.356 8.34668 33.3883 8.54863 33.4527 8.74629C33.5129 8.94395 33.5816 9.1416 33.659 9.33926C33.8652 9.88066 33.9683 10.3189 33.9683 10.6541C33.9683 10.985 33.9039 11.3072 33.775 11.6209C33.6461 11.9389 33.4699 12.2139 33.2465 12.4459C32.7566 12.9529 32.1679 13.2064 31.4804 13.2064C30.8875 13.2064 30.3676 13.0582 29.9207 12.7617C29.4008 12.418 29.1408 11.9604 29.1408 11.3889C29.1408 11.0924 29.2439 10.841 29.4502 10.6348C29.6607 10.4242 29.9142 10.3189 30.2107 10.3189C30.5029 10.3189 30.7564 10.4221 30.9713 10.6283C31.1818 10.8346 31.2871 11.0709 31.2871 11.3373C31.2871 11.608 31.214 11.84 31.0679 12.0334Z" fill="white"/>
</svg>
