<svg width="2951" height="424" viewBox="0 0 2951 424" fill="none" xmlns="http://www.w3.org/2000/svg">
<g clip-path="url(#clip0_406_884)">
<path d="M1668.43 423.63L1667.27 108.5L1561.53 423.33L1466.51 423.31L1364.85 104.8L1364.33 423.37L1260.85 423.74L1260.69 8.01047L1430.72 8.13047L1518.33 279.06L1609.01 8.10047L1772.82 7.98047L1772.88 423.36L1668.43 423.63Z" fill="black"/>
<path d="M1191.3 293.31C1155.94 414.28 1018.51 447.33 911.59 408.43C796 366.38 776.34 232.8 804.31 129.87C819.29 74.7597 857.6 33.2397 911.78 15.2397C1020.56 -20.9003 1160.36 10.7297 1192.83 134.49C1206.58 186.9 1206.51 241.26 1191.29 293.31H1191.3ZM1078.43 138.51C1065.39 101.74 1033.68 81.3897 996.89 81.6097C962.76 81.8097 932.43 104.07 919.24 139.35C900.73 188.87 901.89 247.23 924.31 295.71C939.47 328.5 973.02 345.04 1007.38 342.24C1092.4 335.31 1104.44 211.88 1078.43 138.52V138.51Z" fill="black"/>
<path d="M2419.89 328.33L2267.7 328.4L2233.17 423.58L2122.84 423.16L2280.28 8.18988L2412.86 8.12988L2571.83 423.16L2453.06 423.86L2419.89 328.32V328.33ZM2394.34 250.71L2345.79 93.1999L2292.81 251.57L2394.34 250.7V250.71Z" fill="black"/>
<path d="M666.31 264.24C630.23 273.93 595.22 275.15 556.23 273.88L555.8 423.54L448.1 423.65L447.83 9.14967L593.87 8.04967C624.39 7.81967 654.76 13.5197 682.34 23.4997C735.6 42.7797 761.83 90.6797 759.68 145.52C757.4 203.68 724.96 248.47 666.3 264.23L666.31 264.24ZM633.76 182.04C659.95 160.07 656.68 111.17 627.41 94.6597C605.2 82.1397 579.29 85.5197 556.04 87.5697L556.37 194.59C582.19 196.66 611.07 201.08 633.76 182.05V182.04Z" fill="black"/>
<path d="M2059.01 264.12C2022.91 273.95 1988.16 275.24 1948.77 273.87L1948.3 423.04L1840.43 423.4L1840.38 9.18969L1986.38 8.07969C2016.8 7.84969 2047.2 13.7897 2074.77 23.5397C2128.3 42.4597 2154.3 90.6697 2152.13 145.58C2149.82 203.87 2117.7 248.13 2059 264.11L2059.01 264.12ZM2022.47 185.23C2050.8 166.12 2050.99 116.83 2024.42 97.7397C2002.54 82.0197 1976.2 85.9097 1948.83 87.1697L1948.58 194.94C1972.99 196.18 1999.4 200.79 2022.47 185.22V185.23Z" fill="black"/>
<path d="M2944.83 321.38L2950.08 405.95C2828.6 441.38 2647.6 430.12 2605.76 284.6C2577.49 186.28 2612.4 63.3099 2716.52 22.1699C2792.02 -7.66011 2875.65 -7.47011 2950.1 23.1599L2941.79 108.95C2907.81 91.5299 2873.6 80.9999 2836.37 81.0999C2761.97 81.2999 2708.06 138.47 2707.48 211.14C2706.98 274.25 2744.64 328.26 2809.38 339.78C2853.82 347.69 2899.54 339.15 2944.82 321.37L2944.83 321.38Z" fill="black"/>
<path d="M185.37 81.0798L62.4302 151.95L61.6802 79.6798L186.66 8.7998L311.08 82.8898L310.3 152L185.37 81.0798Z" fill="black"/>
<path d="M123.23 417.029L0.05 342.309L0 195.07L58.7 163.729L58.78 309.17L181.71 379.189L123.23 417.029Z" fill="black"/>
<path d="M253.39 416.28C233.67 405.37 215.35 393.75 193.56 379.26L316.55 308.44L316.97 165.47L375.16 195.4L374.83 341.93L253.39 416.28Z" fill="black"/>
<path d="M255.54 263.549L254.79 331.909L193.36 366.369L193.12 230.759L306.3 165.939L306.69 232.559L255.54 263.549Z" fill="black"/>
<path d="M124.17 332.1L123.88 264.98L71.1401 230.34L71.5401 165.13L185.77 230.86L185.81 366.46L124.17 332.1Z" fill="black"/>
<path d="M191.34 207.27C217.408 207.27 238.54 186.138 238.54 160.07C238.54 134.002 217.408 112.87 191.34 112.87C165.272 112.87 144.14 134.002 144.14 160.07C144.14 186.138 165.272 207.27 191.34 207.27Z" fill="black"/>
</g>
<defs>
<clipPath id="clip0_406_884">
<rect width="2950.1" height="423.91" fill="white"/>
</clipPath>
</defs>
</svg>
