<svg width="2287" height="438" viewBox="0 0 2287 438" fill="none" xmlns="http://www.w3.org/2000/svg">
<g clip-path="url(#clip0_406_914)">
<path d="M166.167 97.5868L198.972 77.9469L336.593 155.171L336.688 79.9941L204.127 0H200.346L171.985 16.8737L66.4136 76.2361L66.7006 155.221L166.167 97.5868Z" fill="black"/>
<path d="M406.337 198.375L361.128 174.85L342.038 167.6L342.02 321.163L207.872 397.055L271.89 437.887L406.383 357.195L406.337 198.375Z" fill="black"/>
<path d="M63.48 320.996L63.1789 289.884L62.7325 167.543L46.1051 174.152L0 197.724V357.793L81.5139 406.679L133.49 438L170.316 414.436L195.744 397.307L173.877 383.798L63.48 320.996Z" fill="black"/>
<path d="M274.625 277.204L331.101 242.646C331.165 218.451 331.671 196.47 330.049 170.841L206.387 241.045L206.614 388.261L274.392 350.118L274.625 277.204Z" fill="black"/>
<path d="M76.6034 170.904L75.9976 242.787L132.445 277.314L132.795 349.714L173.264 373.484C181.792 378.492 189.59 383.284 198.408 388.03L198.454 241.338L173.427 226.129L76.5999 170.9L76.6034 170.904Z" fill="black"/>
<path d="M205.016 211.023C230.34 211.023 250.87 190.57 250.87 165.34C250.87 140.109 230.34 119.656 205.016 119.656C179.692 119.656 159.163 140.109 159.163 165.34C159.163 190.57 179.692 211.023 205.016 211.023Z" fill="black"/>
<path d="M1861.89 419.288L1729.49 419.437L1729.44 264.156L1605.07 264.078L1605.01 419.391L1472.71 419.366V18.9774L1604.99 18.9385L1605.08 154.002L1729.4 154.031L1729.49 18.9597L1861.88 18.9739L1861.89 419.288Z" fill="black"/>
<path d="M1400.89 263.011L1220.83 263.107L1220.68 325.537L1442.17 325.657L1442.17 419.39L1077.33 419.348L1077.32 18.9842L1433.55 18.9346L1433.58 112.646L1220.86 112.661L1220.71 169.611L1400.81 169.671L1400.89 263.011Z" fill="black"/>
<path d="M1042.49 18.9521H904.874V419.38H1042.49V18.9521Z" fill="black"/>
<path d="M2267.96 285.432C2281.04 336.499 2262.56 407.784 2287 406.842L2286.74 419.391L2154.01 419.366C2144.68 383.624 2150.12 350.238 2145.13 314.716C2137.49 284.21 2115.66 282.297 2088.46 279.698L2037.86 279.768L2037.71 419.426L1906.31 419.316V18.9668L2111.78 19.1262C2137.01 19.1439 2160.24 22.4414 2184.52 26.6173C2223.14 35.8582 2257.83 53.6811 2268.25 95.001C2281.65 148.126 2268.57 211.916 2207.92 230.66L2233.92 242.554C2251.72 250.7 2263.12 266.504 2267.97 285.432H2267.96ZM2151.45 154.863C2151.66 138.212 2143.71 125.561 2129.66 118.544C2121.36 115.36 2111.93 112.665 2102.62 112.668L2037.8 112.693L2037.83 191.667L2097.94 191.759C2121.5 190.176 2151.05 185.968 2151.45 154.863Z" fill="black"/>
<path d="M822.559 394.377C780.726 422.142 729.473 429.531 679.527 429.651C621.454 429.793 559.916 412.526 521.715 367.045C504.577 346.64 494.118 322.059 493.474 295.498L624.855 295.473C634.687 340.799 695.166 344.89 729.619 328.803C737.654 325.052 742.784 317.33 743.518 309.867C745.807 286.611 708.042 277.236 689.412 272.695L613.865 254.288C590.527 248.603 569.166 239.068 549.453 226.105C518.93 206.036 502.941 174.669 502.455 138.357C501.53 68.9997 551.94 29.5215 614.907 15.7116C653.221 7.30664 692.08 6.19802 730.983 11.8615C800.769 22.0197 855.02 64.1047 863.346 135.308L733.232 135.276C730.763 121.186 722.362 111.577 709.569 106.275C692.109 98.7978 640.806 95.9961 635.063 118.728C627.672 147.984 685.388 158.766 707.585 163.923C780.439 180.85 877.943 200.585 875.608 295.438C874.609 336.021 856.522 371.83 822.559 394.374V394.377Z" fill="black"/>
</g>
<defs>
<clipPath id="clip0_406_914">
<rect width="2287" height="438" fill="white"/>
</clipPath>
</defs>
</svg>
