<svg width="4508" height="1112" viewBox="0 0 4508 1112" fill="none" xmlns="http://www.w3.org/2000/svg">
<g clip-path="url(#clip0_408_975)">
<path d="M745.675 51.2437C770.084 133.978 739.397 223.537 669.55 273.671C599.742 323.778 506.049 323.354 435.875 275.52C364.648 226.963 332.789 136.385 355.785 52.6676C386.307 35.0265 454.427 1.12879 547.325 0.027451C643.922 -1.11716 715.008 33.8189 745.675 51.2437Z" fill="black"/>
<path d="M746.033 1078.78C674.16 1110.41 573.807 1116.46 496.053 1109.29C447.295 1107.78 401.384 1096.93 356.579 1078.83C333.292 993.397 363.64 906.065 433.212 856.501C502.209 807.345 595.792 806.661 665.938 854.963C736.859 903.799 769.58 991.438 746.033 1078.78Z" fill="black"/>
<path d="M0 585.873V539.275C5.90844 490.135 10.6328 441.385 28.779 392.273C56.854 316.297 97.2099 245.996 154.453 185.819C200.627 339.087 277.162 435.548 427.634 487.056L427.878 644.26C284.317 688.298 190.533 799.541 157.84 945.335C65.7599 854.911 16.8481 742.519 3.67802 623.759C5.33018 609.076 5.2279 595.719 0 585.873Z" fill="black"/>
<path d="M944.717 944.486C905.077 788.607 821.532 695.441 674.781 643.202L674.84 486.332C819.184 441.201 911.878 330.555 944.901 184.36C1052.31 292.048 1101.7 428.551 1100.37 571.91C1099.79 712.41 1046.98 845.121 944.717 944.49V944.486Z" fill="black"/>
<path d="M1574.47 679.086L1387.02 678.898L1353.64 771.233L1222.64 769.597L1405.62 301.362L1566.98 300.41L1754.23 769.483L1607.09 770.769L1574.47 679.09V679.086ZM1541.38 588.21L1481.31 394.524L1415.6 588.246L1541.38 588.21Z" fill="black"/>
<path d="M2119.26 589.379C2085.06 601.796 2047.86 603.964 2010.54 603.924L1936.34 603.846L1936.03 770.585L1803.56 770.187L1803.57 300.289L2029.06 300.218C2060.89 300.21 2092.76 306.346 2121.72 315.259C2180.36 335.791 2210.35 385.922 2211.57 446.248C2212.88 510.668 2181.73 566.695 2119.26 589.379ZM2077.56 448.403C2077.44 372.784 1987.59 390.355 1936.59 388.061L1936.11 511.01C1987.99 509.634 2077.68 526.295 2077.56 448.407V448.403Z" fill="black"/>
<path d="M3836.41 796.022L3925.97 795.53C3929.93 828.134 3955.14 837.896 3983.58 837.385C4012.82 836.858 4039.28 822.186 4043.01 790.735C4045.63 768.551 4045.92 747.303 4046.81 717.992C4022.09 752.141 3980.76 767.029 3937.18 762.108C3824.21 749.352 3801.66 596.105 3844.74 505.881C3863.56 466.449 3898.73 441.976 3937.69 437.673C3980.62 432.933 4023.59 447.325 4046.98 487.556L4052.62 445.74L4140.74 446.673L4137.15 783.482C4136.59 836 4100.71 877.202 4052.5 889.022C3978.8 907.092 3837.18 908.142 3836.41 796.026V796.022ZM4038.25 657.626C4053.57 618.45 4052.77 573.999 4035.96 537.69C4024.51 512.961 4002.01 500.626 3976.38 502.44C3955.35 503.927 3934.98 518.932 3926.6 542.603C3907.68 596.054 3913.06 697.161 3981.01 697.487C4004.96 697.601 4027.78 684.417 4038.25 657.626Z" fill="black"/>
<path d="M3169.02 609.183C3169.02 704.574 3091.43 781.904 2995.73 781.904C2900.03 781.904 2822.44 704.574 2822.44 609.183C2822.44 513.791 2900.03 436.461 2995.73 436.461C3091.43 436.461 3169.02 513.791 3169.02 609.183ZM3058.91 546.575C3049.65 514.656 3024.81 497.298 2994.48 497.42C2914.43 497.747 2915.82 616.027 2932.72 669.312C2942.71 700.838 2968.47 717.633 2999.14 716.178C3075.68 712.543 3074.31 599.723 3058.91 546.571V546.575Z" fill="black"/>
<path d="M3465.2 661.745C3475.98 573.594 3583.43 559.509 3659.32 562.801C3663.07 548.063 3661.65 528.073 3654.2 511.817C3647.87 498.019 3628.85 492.838 3614.47 492.771C3588.38 492.65 3573.07 507.518 3571.17 534.473L3478.31 534.587C3477.06 493.023 3500.21 460.577 3538.34 448.144C3583.24 433.5 3632.69 432.465 3677.46 445.701C3725.8 459.995 3750.54 499.741 3750.53 548.712C3750.51 623.198 3751.25 691.795 3755.3 771.426L3675 773.059L3670.77 729.391C3628.62 782.098 3563.29 797.359 3509.58 765.633C3472.72 743.854 3460.26 702.113 3465.2 661.741L3465.2 661.745ZM3660.96 613.541C3624 612.173 3568.28 618.918 3558.18 657.536C3554.29 672.416 3556.95 690.639 3567.29 702.526C3578.61 715.533 3602.25 718.161 3618.15 714.058C3657.96 703.792 3663.15 649.24 3660.96 613.541Z" fill="black"/>
<path d="M2527.08 677.336C2516.57 774.101 2395.08 801.28 2310.66 768.228C2270.94 752.676 2248.19 716.579 2249.05 674.311L2335.58 674.917C2339.42 690.474 2344.04 708.477 2356.96 714.231C2376.14 722.767 2398.12 722.916 2417.45 715.167C2428.31 710.817 2436.92 695.835 2437.65 685.372C2442.55 614.886 2223.06 655.034 2258.68 512.029C2276.22 441.594 2390.51 419.434 2462.23 450.444C2493.99 464.18 2513.3 490.427 2513.41 529.379L2431.15 530.516C2425.57 501.81 2406.46 490.344 2378.68 493.141C2369.47 494.069 2355.3 499.733 2348.41 504.992C2342.2 509.724 2337.46 528.046 2342.62 534.477C2379.68 580.694 2540.14 556.889 2527.06 677.328L2527.08 677.336Z" fill="black"/>
<path d="M2779.56 709.008L2780.03 771.717C2745.09 779.73 2710.18 783.71 2673.57 779.926C2638.97 776.351 2612.6 746.866 2612.39 711.096L2611.23 512.623L2550.34 511.117L2550.19 446.33L2611.36 445.492L2611.7 383.05L2704.73 348.677L2705.67 445.288L2780.68 446.853L2779.84 511.345L2704.94 512.139L2705 678.579C2705.01 697.605 2720.7 712.332 2739.26 711.285L2779.56 709.012V709.008Z" fill="black"/>
<path d="M3324.9 772.335L3231.75 771.584L3229.47 446.145L3310.95 445.98L3316.86 496.433C3334.31 453.666 3382.08 432.925 3427.49 438.33L3427.01 520.45C3379.77 516.985 3325.23 532.416 3325.16 585.367L3324.9 772.331L3324.9 772.335Z" fill="black"/>
<path d="M4412.47 670.039L4497.41 669.721C4495.1 717.68 4466.28 756.503 4420.67 771.776C4381.17 785.004 4338.17 785.464 4298.42 771.74C4205.87 739.798 4194.42 622.489 4216.45 540.691C4234.85 472.388 4293.27 436.355 4362.09 436.327C4424.22 436.304 4477.38 467.066 4496.51 528.442C4506.25 559.677 4509.57 593.068 4507.33 627.905L4298.98 628.487C4297.56 650.219 4300.92 673.501 4310.75 693.777C4321.66 716.284 4344.81 723.132 4368.49 719.879C4390 716.925 4408.13 701.986 4412.47 670.036L4412.47 670.039ZM4411.19 567.166C4410.47 546.206 4407.29 525.835 4394 511.875C4374.99 491.906 4339.75 492.484 4320.83 512.04C4306.82 526.527 4302.2 545.899 4300.06 567.048L4411.19 567.166Z" fill="black"/>
</g>
<defs>
<clipPath id="clip0_408_975">
<rect width="4508" height="1112" fill="white"/>
</clipPath>
</defs>
</svg>
