<svg width="3968" height="757" viewBox="0 0 3968 757" fill="none" xmlns="http://www.w3.org/2000/svg">
<g clip-path="url(#clip0_408_963)">
<path d="M1833.55 731.932C1716.61 773.106 1602.55 759.473 1483.85 720.609C1442.23 706.98 1404.93 683.927 1378.41 649.8C1340.15 600.566 1320.3 546.615 1318.4 484.811C1314.49 358.085 1380.94 258.742 1506.95 228.635C1631.8 198.799 1755.67 191.713 1880.43 222.355C1929.38 234.38 1992.87 261.828 1993.24 320.52L1995.63 705.425C1968.77 753.833 1890.07 749.375 1840.9 753.856L1833.55 731.936V731.932ZM1826.29 610.901L1826.39 346.387C1826.39 337.932 1809.78 326.819 1800.91 325.055C1729.41 310.844 1655.43 311.713 1587.93 334.994C1516.7 359.562 1479.16 422.192 1489.54 495.37C1496.71 545.976 1521.21 588.945 1568.69 612.889C1640.06 648.877 1752.23 654.548 1826.29 610.901Z" fill="black"/>
<path d="M2481.14 329.904C2415.23 306.673 2291.14 317.876 2227.31 361.31L2227.04 752.922L2056.07 752.984L2055.96 268.263C2055.94 194.41 2212.26 208.4 2212.7 210.482L2216.42 227.828C2317.98 196.38 2496.89 189.27 2599.37 229.325C2663.22 254.284 2696.12 315.221 2705.92 382.743L2706.25 752.972L2535.35 753.015L2534.75 403.644C2534.7 369.21 2512.34 340.894 2481.14 329.896L2481.14 329.904Z" fill="black"/>
<path d="M3966.67 623.367C3969.88 653.564 3968.72 690.358 3946.6 712.919C3895.96 764.571 3744.77 758.225 3673.99 753.651C3620.05 750.17 3571.76 736.65 3519.41 720.567C3436.41 695.068 3370.68 624.751 3357.02 537.08C3350.54 495.498 3351.48 450.726 3356.79 408.924C3368.11 319.931 3455.64 246.238 3538.54 228.926L3614.84 212.994C3716.77 191.709 3817.7 200.721 3922.03 213.986L3922.09 327.978C3826.42 315.244 3682.56 303.995 3599.96 346.534C3546.9 373.858 3520.61 423.712 3524.36 482.536C3537.69 691.618 3827.86 644.664 3966.67 623.363V623.367Z" fill="black"/>
<path d="M2926.35 588.227C2926.36 614.342 2945.84 636.089 2971.1 636.651L3077.47 639.015L3077.1 752.813L2943.32 752.348C2899.43 752.197 2848.3 736.943 2812.06 712.038C2776.76 687.78 2760.63 643.175 2760.61 600.093L2760.41 123.271L2925.42 123.132L2926.65 207.741L3076.17 208.439C3077.7 256.936 3060.62 318.709 3002.99 319.694L2926.22 321.008L2926.35 588.22V588.227Z" fill="black"/>
<path d="M3299.36 208.036H3123.93V753.062H3299.36V208.036Z" fill="black"/>
<path d="M3286.26 117.485C3244.46 154.659 3153.48 154.263 3120.47 97.223C3105.89 72.0267 3116.19 41.0896 3140.59 23.1073C3181.24 -6.84915 3241.81 -7.05847 3282.64 23.491C3298.14 35.0968 3308.1 53.3234 3308.9 70.7669C3309.67 87.191 3299.62 105.604 3286.26 117.485Z" fill="black"/>
<path d="M522.762 753.003L515.402 730.536C402.539 773.641 281.595 758.333 170.961 721.128C61.28 684.237 -1.41469 582.804 0.0232273 469.386C1.24798 372.803 47.7342 293.47 134.835 250.105C156.179 239.48 177.546 230.468 202.386 225.479C349.949 195.844 434.499 194.313 581.752 226.925C632.486 238.162 677.298 282.132 677.375 338.001L677.864 692.21C677.914 730.102 622.358 746.82 589.279 748.875L522.758 753.007L522.762 753.003ZM508.55 610.102L509.092 359.569C509.131 342.044 499.337 328.09 480.237 324.415C408.814 310.673 332.17 312.425 264.662 336.92C200.96 360.035 168.097 412.292 170.166 477.515C172.085 537.963 200.053 591.352 258.007 616.722C328.434 647.555 437.181 654.509 508.55 610.102Z" fill="black"/>
<path d="M903.442 593.011C903.45 616.726 925.674 635.941 947.89 636.472L1054.01 639.004L1053.91 752.972L944.677 753.065C888.272 753.112 829.868 742.095 783.944 708.173C749.969 683.074 737.485 637.492 737.481 595.74L737.419 123.271L902.57 123.136L903.694 207.725L1053.45 208.477C1051.98 256.56 1038.8 318.86 979.935 319.705L903.349 320.806L903.442 593.011Z" fill="black"/>
<path d="M1272.8 0H1101.66V753.062H1272.8V0Z" fill="black"/>
</g>
<defs>
<clipPath id="clip0_408_963">
<rect width="3968" height="757" fill="white"/>
</clipPath>
</defs>
</svg>
