<svg width="2390" height="358" viewBox="0 0 2390 358" fill="none" xmlns="http://www.w3.org/2000/svg">
<path fill-rule="evenodd" clip-rule="evenodd" d="M2157.31 4.26698L2252.12 176.246L2292.2 4.26698L2389.71 0.518803L2306.23 357.239H2153.31L2065.15 193.522L2027.08 357.239H1908.86L1992.35 0.518803L2157.31 4.26698ZM1904.61 0.518803L1817.66 357.239H1675.81L1762.75 0.518803H1904.61ZM1424.73 0.518803L1391.24 129.685L1526.68 0.518803H1678.17L1506.3 165.728L1606.07 357.239H1455.32L1372.29 214.546L1333.71 357.239H1185.85L1276.89 0.518803H1424.73ZM1195.84 0.518803L1106.96 357.239H961.903L1050.78 0.518803H1195.84ZM709.368 140.54L645.596 225.389H731.352L709.368 140.54ZM680.044 0.103701H842.023L907.248 356.085H760.677L751.144 305.01H611.148L575.235 356.085H455.771L680.044 0.103701ZM230.784 87.8701L180.111 273.377H201.939C230.797 273.377 256.516 265.854 278.357 251.587C297.838 238.825 320.457 192.264 325.139 173.484C330.586 154.703 330.586 121.656 318.109 108.894C304.854 95.3796 283.026 87.8701 252.625 87.8701H230.784ZM279.122 0C360.209 0 419.468 18.028 456.899 53.3187C490.426 85.6005 500.568 125.418 487.313 173.484C474.058 222.302 449.104 274.103 396.862 309.42C339.159 347.719 261.976 356.707 181.668 356.707H0L98.246 0H279.122Z" fill="black"/>
</svg>
