<svg width="150" height="27" viewBox="0 0 150 27" fill="none" xmlns="http://www.w3.org/2000/svg">
<g clip-path="url(#clip0_169_3075)">
<mask id="mask0_169_3075" style="mask-type:luminance" maskUnits="userSpaceOnUse" x="0" y="-1" width="154" height="28">
<path d="M0 26.7012H153.653V-0.000598907H0V26.7012Z" fill="white"/>
</mask>
<g mask="url(#mask0_169_3075)">
<path d="M13.0505 26.7732C7.93338 26.7732 3.27205 23.8407 1.06547 19.1878C0.683922 18.3808 1.02833 17.4168 1.83533 17.0335C2.64063 16.652 3.60464 16.9964 3.98788 17.8017C5.71499 21.4484 9.43932 23.6972 13.4692 23.5317C17.2105 23.3764 20.5279 21.1766 22.1284 17.7916C22.51 16.9829 23.4723 16.6385 24.2793 17.02C25.0863 17.4016 25.4324 18.3656 25.0508 19.1726C22.9354 23.6482 18.5493 26.5571 13.6026 26.7614C13.4186 26.7698 13.2346 26.7732 13.0505 26.7732Z" fill="black"/>
<path d="M24.4795 14.8569H1.61688C0.723783 14.8569 -0.000488281 14.1327 -0.000488281 13.2396C-0.000488281 12.3482 0.723783 11.6239 1.61688 11.6239H22.7288C21.9454 6.87139 17.8024 3.23315 12.8338 3.23315C9.09088 3.23315 5.68563 5.29285 3.9467 8.612C3.53308 9.40211 2.55556 9.70769 1.76545 9.29237C0.973646 8.87875 0.669758 7.90124 1.08339 7.11112C3.38282 2.72498 7.88545 0.000101089 12.8338 0.000101089C20.1339 0.000101089 26.0834 5.93777 26.0952 13.2379C26.0969 13.6667 25.9264 14.0786 25.6242 14.3825C25.3203 14.6864 24.9083 14.8569 24.4795 14.8569Z" fill="black"/>
</g>
<mask id="mask1_169_3075" style="mask-type:luminance" maskUnits="userSpaceOnUse" x="0" y="-1" width="154" height="28">
<path d="M0 26.7012H153.653V-0.000598907H0V26.7012Z" fill="white"/>
</mask>
<g mask="url(#mask1_169_3075)">
<path d="M71.1454 22.3194C70.3368 22.3194 69.6834 21.6643 69.6834 20.8574V6.26052C69.6834 5.45352 70.3368 4.79678 71.1454 4.79678H77.1489C80.4276 4.79678 82.808 7.09452 82.808 10.2617C82.808 13.4289 80.4276 15.7284 77.1489 15.7284H72.6075V20.8574C72.6075 21.6643 71.9524 22.3194 71.1454 22.3194ZM72.6075 12.8043H77.1489C78.8102 12.8043 79.8823 11.8065 79.8823 10.2617C79.8823 8.71864 78.8102 7.72087 77.1489 7.72087H72.6075V12.8043ZM127.017 22.6392C124.816 22.6392 122.552 21.768 120.99 20.2097C120.418 19.6408 120.416 18.7139 120.987 18.1416C121.558 17.571 122.483 17.5693 123.055 18.1382C124.612 19.6897 126.972 19.9919 128.5 19.4888C129.167 19.2694 129.992 18.8017 130.141 17.8259C130.266 17.002 129.82 16.2254 127.235 15.1145C126.995 15.0115 126.788 14.922 126.609 14.8326C126.489 14.7735 126.251 14.6772 125.999 14.576C124.363 13.9192 120.957 12.5534 121.019 9.3997C121.056 7.47168 122.223 5.85769 124.139 5.08277C126.815 4.00228 130.191 4.7485 132.347 6.89598C132.92 7.46662 132.921 8.39348 132.351 8.96412C131.782 9.53645 130.855 9.53813 130.283 8.9675C128.777 7.46662 126.602 7.24208 125.233 7.79583C124.392 8.13518 123.957 8.694 123.943 9.4571C123.921 10.5916 125.981 11.4189 127.088 11.8629C127.412 11.9929 127.691 12.1043 127.919 12.2174C128.02 12.2698 128.199 12.3457 128.39 12.4285C129.943 13.0953 133.581 14.6587 133.033 18.2648C132.746 20.1456 131.427 21.6042 129.415 22.2661C128.65 22.5176 127.838 22.6392 127.017 22.6392ZM98.6527 4.79864C97.8457 4.79864 97.1906 5.45369 97.1906 6.26068V11.7797H88.8522V6.26068C88.8522 5.45369 88.1972 4.79864 87.3902 4.79864C86.5815 4.79864 85.9265 5.45369 85.9265 6.26068V13.2383C85.9265 13.24 85.9265 13.2434 85.9265 13.2451V20.8575C85.9265 21.6645 86.5815 22.3196 87.3902 22.3196C88.1972 22.3196 88.8522 21.6645 88.8522 20.8575V14.7038H97.1906V20.8575C97.1906 21.6645 97.8457 22.3196 98.6527 22.3196C99.4597 22.3196 100.115 21.6645 100.115 20.8575V6.26068C100.115 5.45369 99.4597 4.79864 98.6527 4.79864ZM63.6201 22.3194H63.247C62.7962 22.3194 62.3708 22.1117 62.0939 21.7572L53.011 10.1165V20.8574C53.011 21.6643 52.3559 22.3194 51.5489 22.3194C50.7419 22.3194 50.0869 21.6643 50.0869 20.8574V6.26052C50.0869 5.45352 50.7419 4.79847 51.5489 4.79847H51.8562C52.307 4.79847 52.7324 5.00612 53.0093 5.36066L62.1581 17.0841V6.26052C62.1581 5.45352 62.8131 4.79847 63.6201 4.79847C64.4271 4.79847 65.0822 5.45352 65.0822 6.26052V20.8574C65.0822 21.6643 64.4271 22.3194 63.6201 22.3194ZM118.259 20.2887L116.569 16.2808C116.566 16.274 116.564 16.269 116.562 16.2639L112.102 5.6919C112.095 5.67671 112.087 5.66151 112.08 5.64632C112.068 5.62099 112.056 5.59567 112.043 5.57035C112.033 5.55009 112.021 5.53152 112.009 5.51126C111.996 5.48931 111.984 5.46905 111.97 5.44879C111.957 5.42853 111.942 5.40827 111.926 5.3897C111.913 5.36944 111.899 5.35087 111.884 5.33399C111.869 5.31542 111.852 5.29685 111.837 5.27828C111.82 5.26139 111.805 5.24451 111.788 5.22763C111.771 5.21074 111.754 5.19555 111.737 5.17867C111.719 5.16347 111.702 5.14659 111.682 5.1314C111.665 5.1162 111.646 5.1027 111.628 5.08919C111.607 5.07399 111.587 5.0588 111.567 5.04529C111.547 5.03179 111.526 5.01997 111.504 5.00815C111.486 4.99633 111.466 4.98283 111.445 4.9727C111.42 4.95919 111.395 4.94737 111.371 4.93556C111.354 4.9288 111.339 4.92036 111.324 4.91361C111.32 4.91192 111.317 4.91192 111.314 4.91023C111.288 4.9001 111.261 4.88997 111.234 4.88153C111.216 4.87478 111.195 4.86633 111.177 4.86127C111.155 4.85452 111.133 4.84945 111.111 4.84439C111.01 4.81907 110.907 4.80387 110.805 4.80049C110.789 4.80049 110.772 4.79881 110.755 4.79881C110.745 4.79881 110.735 4.80049 110.724 4.80049C110.613 4.80218 110.502 4.81738 110.39 4.84608C110.372 4.85114 110.353 4.85452 110.334 4.86127C110.312 4.86633 110.29 4.87647 110.269 4.88322C110.245 4.89166 110.221 4.9001 110.196 4.91023C110.194 4.91192 110.189 4.91192 110.188 4.91361C110.169 4.92205 110.152 4.93049 110.133 4.93893C110.112 4.94906 110.088 4.95919 110.066 4.97101C110.044 4.98283 110.022 4.99633 110 5.00984C109.982 5.02166 109.963 5.03348 109.943 5.04529C109.921 5.0588 109.9 5.07568 109.88 5.09088C109.863 5.10438 109.845 5.1162 109.828 5.12971C109.809 5.14659 109.789 5.16347 109.771 5.18036C109.754 5.19555 109.738 5.21074 109.722 5.22594C109.705 5.24451 109.688 5.26139 109.671 5.27996C109.656 5.29685 109.641 5.31542 109.625 5.3323C109.61 5.35087 109.597 5.37113 109.581 5.3897C109.568 5.40996 109.553 5.42853 109.541 5.44879C109.526 5.46905 109.514 5.491 109.5 5.51295C109.489 5.53152 109.477 5.55009 109.467 5.57035C109.453 5.59567 109.441 5.621 109.429 5.64801C109.423 5.6632 109.414 5.67671 109.408 5.6919L104.949 16.2639C104.945 16.269 104.944 16.2757 104.94 16.2808L103.25 20.2887C102.936 21.0333 103.286 21.8909 104.03 22.2049C104.214 22.2826 104.407 22.3197 104.598 22.3197C105.168 22.3197 105.709 21.9838 105.945 21.425L107.262 18.3033H114.248L115.565 21.425C115.799 21.9838 116.343 22.3197 116.912 22.3197C117.101 22.3197 117.295 22.2826 117.479 22.2049C118.224 21.8909 118.573 21.0333 118.259 20.2887ZM108.496 15.3792L110.755 10.0223L113.014 15.3792H108.496ZM148.538 19.3948H140.058V14.7031H146.075C146.883 14.7031 147.538 14.048 147.538 13.241C147.538 12.434 146.883 11.779 146.075 11.779H140.058V7.72374H147.922C148.73 7.72374 149.384 7.06869 149.384 6.26001C149.384 5.45301 148.73 4.79796 147.922 4.79796H138.596C137.787 4.79796 137.132 5.45301 137.132 6.26001V20.8568C137.132 21.6638 137.787 22.3189 138.596 22.3189H148.538C149.347 22.3189 150 21.6638 150 20.8568C150 20.0499 149.347 19.3948 148.538 19.3948ZM45.5947 19.3948H37.1145V14.7031H43.1315C43.9402 14.7031 44.5936 14.048 44.5936 13.241C44.5936 12.434 43.9402 11.779 43.1315 11.779H37.1145V7.72374H44.9785C45.7872 7.72374 46.4422 7.06869 46.4422 6.26001C46.4422 5.45301 45.7872 4.79796 44.9785 4.79796H35.6525C34.8438 4.79796 34.1887 5.45301 34.1887 6.26001V20.8568C34.1887 21.6638 34.8438 22.3189 35.6525 22.3189H45.5947C46.4034 22.3189 47.0568 21.6638 47.0568 20.8568C47.0568 20.0499 46.4034 19.3948 45.5947 19.3948Z" fill="black"/>
</g>
</g>
<defs>
<clipPath id="clip0_169_3075">
<rect width="150" height="26.7013" fill="white"/>
</clipPath>
</defs>
</svg>
