<svg width="150" height="35" viewBox="0 0 150 35" fill="none" xmlns="http://www.w3.org/2000/svg">
<g clip-path="url(#clip0_169_3051)">
<path d="M144.478 30.2721C144.517 29.6684 144.325 29.0725 143.941 28.6047C143.754 28.4063 143.526 28.251 143.274 28.1493C143.021 28.0476 142.749 28.0021 142.476 28.0158C142.087 28.0088 141.704 28.11 141.369 28.3081C141.043 28.5055 140.782 28.7945 140.62 29.1391C140.438 29.5214 140.347 29.9408 140.355 30.3642V30.4821C140.341 30.7831 140.389 31.0837 140.497 31.3649C140.605 31.6462 140.771 31.902 140.983 32.116C141.199 32.3221 141.455 32.4825 141.735 32.5878C142.014 32.6932 142.312 32.7413 142.611 32.7293C142.967 32.7338 143.32 32.6597 143.644 32.5123C143.94 32.381 144.196 32.1732 144.384 31.9102L143.787 31.2419C143.659 31.4083 143.492 31.5415 143.301 31.63C143.111 31.7185 142.901 31.7598 142.691 31.7505C142.416 31.7604 142.147 31.6642 141.94 31.4819C141.739 31.295 141.613 31.0412 141.586 30.7681H144.481L144.478 30.2721ZM143.284 29.9407H141.595C141.618 29.6843 141.719 29.4409 141.883 29.243C141.957 29.1622 142.048 29.0985 142.149 29.0562C142.251 29.0139 142.36 28.9941 142.469 28.9981C142.579 28.9912 142.688 29.0074 142.791 29.0457C142.894 29.0839 142.987 29.1433 143.066 29.22C143.216 29.3937 143.294 29.6184 143.284 29.8479V29.9407ZM65.4056 28.0165C65.029 28.0104 64.6585 28.111 64.3367 28.3067C64.0196 28.506 63.7659 28.7916 63.6056 29.13C63.4265 29.5051 63.3367 29.9165 63.3433 30.3321V30.3865C63.3132 31.0057 63.5181 31.6134 63.9167 32.0881C64.1038 32.2989 64.335 32.4657 64.5939 32.5768C64.8528 32.6879 65.1331 32.7404 65.4146 32.7307C65.7974 32.7379 66.1742 32.6358 66.5009 32.4363C66.8178 32.2386 67.0704 31.9531 67.2279 31.6144C67.4023 31.242 67.4894 30.8347 67.4826 30.4235V30.3698C67.5131 29.7478 67.3081 29.1372 66.9084 28.6598C66.7207 28.4485 66.4887 28.2814 66.2289 28.1703C65.9691 28.0592 65.6879 28.0063 65.4056 28.0165ZM66.3558 31.6312C66.2456 31.7762 66.1034 31.8939 65.9403 31.9751C65.7773 32.0563 65.5977 32.0989 65.4155 32.0995C65.2333 32.1001 65.0535 32.0588 64.8898 31.9786C64.7262 31.8985 64.5833 31.7817 64.4721 31.6374C64.2237 31.283 64.1009 30.8557 64.1233 30.4235C64.0935 29.9598 64.2176 29.4993 64.4763 29.1133C64.5826 28.9677 64.7226 28.85 64.8843 28.7703C65.046 28.6906 65.2246 28.6512 65.4049 28.6556C65.588 28.6506 65.7697 28.6902 65.9341 28.7711C66.0986 28.8519 66.2409 28.9715 66.3488 29.1195C66.5987 29.4727 66.7234 29.8992 66.7033 30.3314C66.7308 30.791 66.6084 31.2471 66.3544 31.6312H66.3558ZM72.4821 31.5747L71.4021 28.1009H70.7742L69.7151 31.5035L68.82 28.1009H68.0491L69.3684 32.6456H69.9963L71.0721 29.2012L72.1779 32.6456H72.8058L74.1314 28.1009H73.3542L72.4821 31.5747ZM76.7135 28.0165C76.3559 28.0155 76.006 28.1198 75.7074 28.3165C75.3941 28.5214 75.1438 28.8093 74.9846 29.1481C74.8073 29.5256 74.7187 29.9388 74.7258 30.3558V30.4953C74.7111 30.7908 74.7547 31.0862 74.8542 31.3648C74.9537 31.6433 75.1071 31.8996 75.3056 32.1188C75.4994 32.3203 75.7336 32.4785 75.9928 32.5832C76.252 32.688 76.5304 32.7368 76.8098 32.7265C77.1478 32.7453 77.4848 32.6738 77.7861 32.5195C78.0875 32.3651 78.3423 32.1334 78.5247 31.8481L78.0495 31.4791C77.9129 31.658 77.7431 31.8089 77.5493 31.9235C77.3361 32.0413 77.0951 32.0996 76.8516 32.0923C76.6718 32.0969 76.4932 32.0623 76.3281 31.9908C76.163 31.9194 76.0155 31.8128 75.8958 31.6786C75.636 31.377 75.4964 30.9903 75.5037 30.5923H78.5833V30.2721C78.6239 29.6737 78.4509 29.0804 78.0949 28.5977C77.9247 28.4019 77.712 28.2475 77.4731 28.1463C77.2342 28.0451 76.9753 27.9998 76.7163 28.0137L76.7135 28.0165ZM77.806 29.9574H75.5281C75.5547 29.6037 75.693 29.2675 75.923 28.9974C76.0225 28.8872 76.1445 28.7996 76.2807 28.7406C76.417 28.6817 76.5643 28.6526 76.7128 28.6556C76.8577 28.649 77.0023 28.6747 77.136 28.731C77.2697 28.7872 77.3892 28.8725 77.4858 28.9807C77.6932 29.2418 77.806 29.5654 77.806 29.8988V29.9574ZM137.269 29.3023C137.339 29.2137 137.426 29.1406 137.526 29.0878C137.626 29.0349 137.735 29.0033 137.848 28.9951C137.96 28.9869 138.073 29.0022 138.18 29.0401C138.286 29.078 138.383 29.1376 138.465 29.2151C138.609 29.3726 138.686 29.5786 138.683 29.7914H139.822C139.83 29.5514 139.788 29.3125 139.698 29.0899C139.607 28.8674 139.472 28.6662 139.299 28.4993C138.925 28.1631 138.433 27.9877 137.931 28.0109C137.645 27.9966 137.359 28.0454 137.094 28.1539C136.828 28.2624 136.59 28.428 136.396 28.6388C136.006 29.1069 135.807 29.7048 135.838 30.3133V30.3935C135.802 31.015 136.003 31.627 136.401 32.1056C136.597 32.3137 136.835 32.4767 137.1 32.5836C137.365 32.6904 137.65 32.7385 137.936 32.7244C138.265 32.7296 138.591 32.6579 138.887 32.5151C139.165 32.383 139.4 32.1764 139.566 31.9186C139.73 31.6666 139.817 31.3728 139.818 31.0723H138.679C138.68 31.1646 138.66 31.2559 138.623 31.3401C138.585 31.4243 138.53 31.4995 138.461 31.5607C138.309 31.6885 138.114 31.7545 137.915 31.7456C137.789 31.7541 137.663 31.7304 137.549 31.6767C137.435 31.623 137.337 31.541 137.263 31.4386C137.095 31.1297 137.021 30.7788 137.049 30.4284V30.3028C137.022 29.9542 137.097 29.6054 137.265 29.2988L137.269 29.3023ZM80.25 28.6235L80.2381 28.0988H79.4819V32.6435H80.2591V29.4195C80.339 29.2139 80.4831 29.0395 80.67 28.9222C80.8568 28.8049 81.0766 28.7511 81.2965 28.7686C81.4248 28.768 81.5529 28.778 81.6795 28.7986V28.0758C81.5703 28.0305 81.4523 28.0103 81.3342 28.0165C81.1153 28.0105 80.8989 28.064 80.708 28.1713C80.517 28.2785 80.3588 28.4355 80.25 28.6256V28.6235ZM4.90116 11.7781V11.7767C4.90116 11.6795 4.90558 11.5828 4.91442 11.4865C4.92326 11.3902 4.93651 11.2949 4.95419 11.2005C4.99855 10.961 5.06873 10.7271 5.16349 10.5028C5.20209 10.4098 5.24442 10.3198 5.29046 10.2328C5.31372 10.1863 5.33698 10.1419 5.36023 10.0995C5.41046 10.0112 5.46442 9.92372 5.52209 9.83721C5.55093 9.79395 5.5807 9.75093 5.6114 9.70814C5.80527 9.44222 6.02341 9.19488 6.26302 8.9693C6.30442 8.92977 6.34674 8.8907 6.39 8.85209C6.7084 8.56786 7.05032 8.31113 7.41209 8.08465C7.46605 8.0507 7.52093 8.01698 7.57674 7.98349C7.68791 7.91651 7.80186 7.85116 7.9186 7.78744C8.36879 7.54322 8.83497 7.32971 9.31395 7.14837C9.78116 6.97282 10.2574 6.82237 10.7407 6.69768C11.4639 6.50877 12.1991 6.36892 12.9412 6.27907C13.3737 6.22558 13.8156 6.18767 14.2667 6.16535C14.5793 6.14954 14.8956 6.14163 15.2156 6.14163C17.5566 6.10397 19.8774 6.58028 22.0144 7.53698C22.0525 7.5553 22.0946 7.56371 22.1369 7.56142C22.1791 7.55913 22.22 7.54622 22.2559 7.52389C22.2918 7.50156 22.3215 7.47052 22.3422 7.43366C22.3629 7.3968 22.374 7.3553 22.3744 7.31302C22.3797 6.90395 22.3347 6.49578 22.2405 6.09767C22.2158 5.99603 22.1631 5.90335 22.0884 5.8302C22.0136 5.75705 21.9198 5.70638 21.8177 5.68395C19.9871 5.29946 18.1256 5.08043 16.2558 5.02954C15.9144 5.0193 15.5705 5.01395 15.224 5.01349H14.7984C14.0209 5.02296 13.2439 5.05902 12.4688 5.12163C12.0679 5.15419 11.6726 5.19372 11.2828 5.24023C10.3598 5.34977 9.46884 5.49698 8.62535 5.67767C8.40349 5.72419 8.18465 5.77395 7.96884 5.82698C7.64326 5.90512 7.32698 5.98814 7.02 6.07605C6.81395 6.13465 6.61163 6.19535 6.41302 6.25814C5.91581 6.41535 5.4414 6.58512 4.98977 6.76744C4.80977 6.84 4.63349 6.91465 4.46093 6.9914C4.20279 7.10628 3.95395 7.22512 3.71442 7.34791C3.55488 7.42977 3.39977 7.51326 3.24907 7.59837C3.17372 7.6407 3.09953 7.68372 3.02651 7.72744C2.88046 7.81442 2.73907 7.90279 2.60233 7.99256C2.39721 8.12744 2.20302 8.26581 2.01977 8.40767C1.83651 8.54953 1.66465 8.69419 1.50419 8.84163C1.29803 9.03056 1.10502 9.23336 0.926512 9.44861C0.800809 9.59935 0.684319 9.75755 0.577674 9.92233C0.444357 10.1292 0.33061 10.3481 0.237907 10.576C0.193769 10.6858 0.155345 10.7979 0.122791 10.9116C0.0414734 11.1928 0.000137688 11.484 0 11.7767C0 13.2823 1.10721 14.6728 2.97977 15.7967C3.00567 15.8123 3.03467 15.8219 3.06472 15.8249C3.09476 15.828 3.1251 15.8244 3.1536 15.8144C3.1821 15.8044 3.20805 15.7883 3.22961 15.7672C3.25117 15.746 3.26782 15.7204 3.27837 15.6921C3.6751 14.5968 4.15318 13.5326 4.7086 12.5086C4.83644 12.2875 4.90337 12.0364 4.90256 11.7809L4.90116 11.7781ZM17.1223 3.93907L17.1921 3.91535C17.3037 3.87837 17.4146 3.84558 17.5249 3.8107L17.6184 3.78349C17.7077 3.75791 17.7967 3.73465 17.8856 3.71372L17.9651 3.69349C18.074 3.66698 18.1819 3.64372 18.2888 3.62372L18.3698 3.60767C18.4567 3.59047 18.5433 3.57488 18.6293 3.56093L18.7116 3.54767C18.817 3.53163 18.9209 3.51767 19.0256 3.50651L19.0877 3.50093C19.1747 3.49209 19.2609 3.48535 19.3465 3.4807L19.4274 3.47581C19.5251 3.47093 19.6228 3.46814 19.7184 3.46814H19.7588C19.8516 3.46814 19.943 3.47233 20.0337 3.47721H20.0916C20.1856 3.48465 20.2791 3.49302 20.3721 3.50233L20.423 3.5093C20.5095 3.52093 20.5947 3.53465 20.6784 3.55047L20.7112 3.55605C20.8012 3.57419 20.8898 3.59512 20.9763 3.61814L21.03 3.63279C21.1172 3.65721 21.2037 3.68442 21.2874 3.71442H21.2958C21.3774 3.74372 21.4563 3.77651 21.5344 3.8114L21.5826 3.83302C21.6602 3.8693 21.7365 3.90791 21.8114 3.94884L21.8491 3.97047C21.9165 4.00953 21.9826 4.0507 22.0472 4.09395L22.08 4.11558C22.1498 4.16372 22.2195 4.21465 22.2816 4.26767L22.3256 4.30814C22.3912 4.36395 22.456 4.42116 22.5174 4.48326C22.7476 4.71519 22.9408 4.98108 23.0902 5.27163C23.2211 5.52518 23.3222 5.793 23.3916 6.06977C23.5153 6.57142 23.5624 7.08891 23.5312 7.60465C23.5183 7.84274 23.4934 8.08002 23.4565 8.31558C23.4565 8.33302 23.4495 8.35116 23.4467 8.3686C23.4105 8.59395 23.3637 8.82349 23.3072 9.05651L23.2905 9.11721C22.8595 10.6634 22.1526 12.1189 21.2037 13.4135C21.014 13.6805 20.8137 13.9463 20.603 14.2109C20.4974 14.343 20.3893 14.4744 20.2786 14.6051C19.9465 14.9977 19.5914 15.3833 19.2133 15.7619C19.198 15.7768 19.188 15.7964 19.185 15.8175C19.182 15.8387 19.186 15.8603 19.1965 15.8789C19.207 15.8975 19.2234 15.9121 19.2431 15.9205C19.2628 15.9289 19.2847 15.9305 19.3053 15.9251C19.604 15.8498 19.9835 15.7479 20.3777 15.6349C20.8469 15.5008 21.2677 15.2343 21.5895 14.8674L21.5944 14.8619C21.6772 14.7688 21.7593 14.6737 21.8407 14.5765C22.3286 14.0044 22.7853 13.4302 23.2109 12.854C23.3505 12.6623 23.4884 12.4707 23.6246 12.2791C23.987 11.7633 24.3219 11.2502 24.6293 10.74C24.7726 10.5028 24.91 10.2667 25.0416 10.0319C25.2035 9.74209 25.356 9.45442 25.4993 9.16884C25.6853 8.80093 25.8535 8.43791 26.0037 8.07977C26.0795 7.90116 26.1514 7.72395 26.2193 7.54814C26.2533 7.46023 26.286 7.37279 26.3177 7.28581L26.3602 7.16442C26.4077 7.03186 26.453 6.8993 26.4949 6.76884C26.5237 6.67953 26.5514 6.5907 26.5779 6.50233C26.6272 6.33814 26.6723 6.17535 26.7133 6.01395C26.776 5.76698 26.8291 5.52488 26.8723 5.28767C26.9012 5.12954 26.9244 4.97395 26.9421 4.82093C26.9598 4.66791 26.9749 4.51744 26.9874 4.36953C26.9977 4.22163 27.0035 4.07651 27.0049 3.93419C27.0063 3.79186 27.0028 3.65233 26.9944 3.51558C26.9902 3.44721 26.9849 3.37977 26.9784 3.31326C26.9653 3.17977 26.9477 3.0493 26.9253 2.92186C26.8185 2.20456 26.4904 1.53849 25.987 1.01651C25.9447 0.974186 25.9014 0.933256 25.8572 0.893721L25.8112 0.855349C25.7816 0.829446 25.7513 0.804321 25.7205 0.78L25.6633 0.737442C25.6444 0.723488 25.6046 0.697674 25.5733 0.673954L25.5105 0.632093C25.4819 0.613256 25.4533 0.593721 25.424 0.575581L25.3542 0.535814C25.3256 0.518372 25.2977 0.50093 25.2684 0.488372C25.2391 0.475814 25.2202 0.463256 25.1986 0.450698C25.177 0.43814 25.1372 0.418605 25.1072 0.402558L25.0319 0.367674L24.9398 0.327907L24.8609 0.296512L24.7674 0.26093L24.6858 0.233023L24.5881 0.201628L24.5037 0.176512L24.4046 0.15L24.3167 0.12907L24.2149 0.106047L24.1249 0.0886047L24.0202 0.0697674L23.9302 0.055814L23.8207 0.0418605L23.7258 0.0306977L23.6156 0.0202326L23.5186 0.0132558L23.4056 0.00697674L23.3079 0H23.0979C23.0049 0 22.9119 0.00232558 22.8188 0.00697674H22.7595C22.6795 0.0111628 22.5986 0.0167442 22.5167 0.0237209L22.447 0.0293023C22.3498 0.0386047 22.2514 0.0495349 22.1519 0.062093L22.096 0.0697674C22.0105 0.0813954 21.9242 0.0946512 21.8372 0.109535L21.7619 0.122093C21.6595 0.140233 21.5563 0.16 21.4521 0.181395L21.404 0.195349C21.3109 0.214884 21.2179 0.235814 21.1249 0.25814L21.0453 0.27907C20.9386 0.305581 20.8312 0.333488 20.7223 0.363488L20.686 0.373954C20.587 0.401861 20.4879 0.431163 20.3874 0.462558L20.3023 0.488372C20.1914 0.523256 20.0791 0.55814 19.9667 0.598605L19.95 0.604884C19.8419 0.64186 19.733 0.681628 19.6235 0.722093L19.5349 0.755581C19.4233 0.79814 19.3109 0.841395 19.1979 0.886744L19.1874 0.89093C19.0716 0.937674 18.9544 0.987209 18.8386 1.03744L18.7465 1.07721C18.6386 1.12372 18.5305 1.17209 18.4221 1.22233L18.3886 1.23767C18.27 1.29209 18.1514 1.3493 18.0321 1.40721L17.94 1.45256C17.8344 1.50465 17.7286 1.55791 17.6226 1.61233L17.5709 1.63814C17.4509 1.70047 17.3305 1.76442 17.2095 1.83L17.114 1.88372C17.0098 1.94093 16.9051 1.9993 16.8 2.05884L16.7372 2.09302C16.6153 2.16279 16.4933 2.23419 16.3709 2.30721L16.2816 2.36093C16.1774 2.42372 16.0733 2.48744 15.9691 2.55209L15.8958 2.59744C15.7726 2.67465 15.6493 2.75349 15.526 2.83395L15.4409 2.88977C15.3367 2.95814 15.2326 3.02791 15.1284 3.09907L15.046 3.15419C14.9223 3.23837 14.7984 3.32419 14.6742 3.41163L14.5953 3.46814C14.4907 3.54256 14.386 3.61791 14.2814 3.69419L14.1935 3.75837L13.8209 4.03744L13.8119 4.04442C14.8652 4.03381 15.9185 4.0173 16.9716 3.99488L17.1223 3.93907ZM62.1258 27.0426C61.6849 26.6791 61.1229 26.4959 60.5526 26.5298H58.2963V32.6456H59.1021V30.2519H60.5442C61.1165 30.2901 61.6832 30.1193 62.1391 29.7712C62.3286 29.5988 62.4771 29.3863 62.5737 29.149C62.6703 28.9118 62.7125 28.6559 62.6972 28.4002C62.7075 28.1462 62.6618 27.8929 62.5634 27.6585C62.465 27.424 62.3164 27.214 62.1279 27.0433L62.1258 27.0426ZM61.5439 29.287C61.2622 29.507 60.9092 29.6153 60.5526 29.5912H59.1028V27.1891H60.5986C60.9461 27.1776 61.2847 27.3 61.5446 27.5309C61.6603 27.6443 61.7508 27.7809 61.8101 27.9316C61.8693 28.0824 61.8961 28.244 61.8886 28.4058C61.8994 28.569 61.8742 28.7326 61.8147 28.885C61.7553 29.0374 61.6631 29.1749 61.5446 29.2877L61.5439 29.287ZM16.3423 19.516C15.4772 19.5279 14.3247 19.5314 13.8133 19.5321C13.6435 19.5325 13.475 19.5608 13.3144 19.6158L13.2558 19.6367C13.1428 19.6744 13.0298 19.7065 12.9174 19.7428L12.8316 19.7672C12.7386 19.7937 12.6456 19.8188 12.5526 19.8426L12.4828 19.8607C12.3726 19.8877 12.2633 19.9123 12.1549 19.9347L12.0809 19.9493C11.9912 19.967 11.9021 19.983 11.8137 19.9974L11.7356 20.01C11.6291 20.0263 11.5235 20.04 11.4188 20.0512L11.3616 20.0567C11.2733 20.0656 11.1856 20.0726 11.0986 20.0777L11.0198 20.0819C10.9226 20.0868 10.8254 20.0894 10.7281 20.0895H10.6877C10.5949 20.0895 10.5035 20.0854 10.4128 20.0805H10.3535C10.2605 20.074 10.1674 20.0651 10.0744 20.054L10.0221 20.047L9.76744 20.0023L9.73256 19.996C9.64405 19.978 9.55611 19.9573 9.46884 19.934L9.41302 19.9186C9.32671 19.8948 9.2413 19.8678 9.15698 19.8377L9.14581 19.8335C9.06595 19.8042 8.98707 19.7723 8.9093 19.7379L8.86047 19.7163C8.78279 19.6805 8.70674 19.6419 8.63233 19.6005L8.59395 19.5781C8.52651 19.5395 8.4607 19.4986 8.39651 19.4553L8.36302 19.4337C8.29326 19.3856 8.22349 19.3347 8.1614 19.2816L8.11884 19.246C8.0524 19.1905 7.98839 19.132 7.92698 19.0709C7.69685 18.839 7.50368 18.5731 7.35419 18.2826C7.22277 18.0289 7.12117 17.7608 7.0514 17.4837C7.03256 17.4091 7.01302 17.3344 6.99837 17.257C6.95742 17.0476 6.93038 16.8357 6.91744 16.6228C6.90444 16.3979 6.90444 16.1724 6.91744 15.9474C6.93029 15.7094 6.95521 15.4721 6.99209 15.2365C6.99209 15.2191 6.99907 15.2009 7.00186 15.1835C7.03814 14.9581 7.08488 14.7286 7.1414 14.4956L7.15814 14.4349C7.21744 14.2033 7.28581 13.9681 7.36744 13.7302C7.50341 13.3284 7.66085 12.9341 7.83907 12.5491C7.9614 12.2835 8.09535 12.0165 8.24093 11.7481C8.38651 11.4798 8.54302 11.2112 8.71046 10.9423C8.87837 10.674 9.05721 10.4058 9.24698 10.1379C9.43674 9.87 9.63674 9.60419 9.84698 9.34047C10.2797 8.79798 10.7423 8.27997 11.2326 7.78884C11.2426 7.77881 11.249 7.76579 11.2509 7.75177C11.2528 7.73774 11.2501 7.72347 11.2431 7.71114C11.2362 7.69881 11.2254 7.68909 11.2124 7.68347C11.1994 7.67784 11.1849 7.67663 11.1712 7.68C10.9823 7.72631 10.7942 7.77538 10.6067 7.82721C9.72359 8.06972 8.93563 8.57629 8.34837 9.27907C7.41788 10.3907 6.57202 11.5705 5.81791 12.8086C5.67465 13.0458 5.53721 13.2819 5.40558 13.5167L5.38953 13.5447C5.28535 13.7307 5.18512 13.9167 5.08884 14.1028C4.99256 14.2888 4.89953 14.4728 4.80977 14.6547C4.7214 14.8374 4.63721 15.0191 4.55721 15.1995C4.47721 15.38 4.40116 15.5588 4.32907 15.736C4.25744 15.9133 4.18977 16.0891 4.12605 16.2635L4.08349 16.3849C4.00395 16.6086 3.9314 16.8295 3.86581 17.0477C3.7219 17.5226 3.61048 18.0067 3.53233 18.4967C3.50814 18.6526 3.4886 18.8056 3.47372 18.9558C3.45884 19.106 3.44837 19.254 3.44233 19.3995C3.43953 19.4721 3.43767 19.544 3.43674 19.6151C3.43581 19.6863 3.43581 19.756 3.43674 19.8244C3.44 19.964 3.44814 20.1005 3.46116 20.234C3.47975 20.4289 3.51003 20.6225 3.55186 20.8137C3.62904 21.1717 3.75807 21.5165 3.93488 21.8372C4.0197 21.9901 4.11701 22.1357 4.22581 22.2726C4.29825 22.3636 4.37582 22.4505 4.45814 22.5328C4.49953 22.5742 4.54186 22.6142 4.58512 22.6528C4.60046 22.6667 4.61651 22.6786 4.63186 22.6919C4.66186 22.717 4.69116 22.7428 4.72186 22.7672L4.77907 22.8098C4.79791 22.8237 4.83558 22.853 4.86488 22.8733C4.89419 22.8935 4.90674 22.9012 4.92837 22.9151C4.95 22.9291 4.98488 22.9535 5.01419 22.9709L5.08395 23.0114C5.11256 23.0281 5.14116 23.0456 5.17116 23.0616L5.24093 23.0993C5.27023 23.1147 5.29953 23.13 5.32953 23.144L5.40558 23.1788L5.49698 23.2186L5.5814 23.257L5.67488 23.2926L5.75721 23.3205L5.85349 23.3512L5.9386 23.3756L6.03767 23.4021L6.12558 23.4237L6.22744 23.446L6.31744 23.4642L6.42209 23.4823L6.51419 23.497L6.62163 23.5109L6.71651 23.5221L6.82674 23.5319L6.92372 23.5395L7.03674 23.5458L7.13512 23.55H7.34512C7.43814 23.55 7.53116 23.5477 7.62419 23.543H7.68419C7.76419 23.5388 7.84488 23.5333 7.92628 23.5263L7.99605 23.52C8.09326 23.5107 8.1914 23.4998 8.29047 23.4872L8.34628 23.4795C8.43186 23.4679 8.51814 23.4549 8.60512 23.4405L8.68116 23.4279C8.78302 23.4098 8.88628 23.3902 8.99023 23.3686L9.03907 23.3581C9.13209 23.3386 9.22512 23.3177 9.31814 23.2953L9.39977 23.2758C9.50651 23.2493 9.61395 23.2214 9.72209 23.1914L9.75907 23.1809C9.85767 23.153 9.95698 23.1237 10.057 23.093L10.1428 23.0665C10.254 23.0316 10.3658 22.9949 10.4784 22.9563L10.4979 22.9493C10.6053 22.9123 10.7135 22.8733 10.8216 22.8328L10.9109 22.7993C11.0226 22.7567 11.1356 22.7135 11.2486 22.6681L11.2584 22.664C11.3749 22.6172 11.4914 22.5677 11.6072 22.5167L11.6986 22.477C11.8065 22.4305 11.9147 22.3821 12.023 22.3319L12.0572 22.3165C12.1758 22.2621 12.2944 22.2049 12.4137 22.147L12.5058 22.1016C12.6114 22.0495 12.7174 21.9963 12.824 21.9419L12.8749 21.916C12.9949 21.8537 13.1156 21.7898 13.237 21.7242L13.3291 21.674C13.4333 21.6167 13.5377 21.5586 13.6423 21.4995L13.7065 21.4633C13.8284 21.3935 13.9505 21.3221 14.0728 21.2491L14.1628 21.1953C14.2665 21.133 14.3702 21.0695 14.474 21.0049L14.5486 20.9588C14.6714 20.8816 14.7944 20.803 14.9177 20.723L15.0028 20.6672C15.1065 20.5993 15.2105 20.5295 15.3147 20.4579L15.397 20.4028C15.5207 20.3186 15.6444 20.2328 15.7681 20.1453L15.8491 20.0881C15.9533 20.0142 16.0574 19.9393 16.1616 19.8635L16.2502 19.7993L16.4009 19.687C16.4166 19.6751 16.4282 19.6586 16.434 19.6398C16.4398 19.621 16.4395 19.6008 16.4332 19.5822C16.4268 19.5636 16.4148 19.5474 16.3987 19.536C16.3826 19.5247 16.3634 19.5186 16.3437 19.5188L16.3423 19.516ZM30.203 10.5795C30.1103 10.3515 29.9966 10.1327 29.8633 9.92581C29.7566 9.76103 29.6401 9.60284 29.5144 9.45209C29.3359 9.23683 29.1429 9.03403 28.9367 8.84512C28.7763 8.69721 28.6044 8.55256 28.4212 8.41116C28.2379 8.26977 28.0437 8.1314 27.8386 7.99605L27.7151 7.91581C27.6793 7.89357 27.6391 7.87949 27.5973 7.87456C27.5554 7.86964 27.513 7.87399 27.4731 7.88731C27.4331 7.90063 27.3966 7.9226 27.366 7.95164C27.3355 7.98068 27.3118 8.01609 27.2965 8.05535C26.8795 9.19264 26.3385 10.2806 25.6835 11.2995C25.5882 11.4401 25.5374 11.6062 25.5377 11.776C25.5377 13.6912 23.7935 15.3837 21.1193 16.403C20.6547 16.5797 20.181 16.7316 19.7002 16.8579C18.977 17.0468 18.2418 17.1867 17.4998 17.2765C17.0672 17.33 16.6253 17.3679 16.1742 17.3902C15.8616 17.4056 15.5451 17.4135 15.2247 17.414C12.8222 17.4552 10.4418 16.9499 8.26326 15.9363C8.2273 15.9183 8.18731 15.91 8.14719 15.9121C8.10706 15.9142 8.06815 15.9266 8.03423 15.9481C8.00032 15.9697 7.97256 15.9997 7.95364 16.0351C7.93473 16.0706 7.9253 16.1103 7.92628 16.1505C7.93152 16.3733 7.94875 16.5957 7.97791 16.8167C8.01469 17.0949 8.13782 17.3546 8.32994 17.5591C8.52206 17.7636 8.7735 17.9027 9.04884 17.9567C10.7449 18.2856 12.4651 18.4743 14.1921 18.5212C14.533 18.5314 14.877 18.5367 15.224 18.5372H15.6495C16.4271 18.5277 17.204 18.4917 17.9791 18.4291C18.38 18.3965 18.7753 18.357 19.1651 18.3105C25.6605 17.5388 30.4444 14.9065 30.4444 11.7774C30.4442 11.4859 30.4031 11.1959 30.3223 10.9158C30.2898 10.802 30.2513 10.69 30.2072 10.5802L30.203 10.5795ZM120.804 28.0165C120.415 28.0095 120.032 28.1107 119.697 28.3088C119.371 28.5062 119.111 28.7952 118.948 29.1398C118.766 29.5223 118.676 29.9415 118.683 30.3649V30.4828C118.669 30.7837 118.718 31.0843 118.826 31.3655C118.934 31.6468 119.099 31.9025 119.311 32.1167C119.527 32.3228 119.783 32.4832 120.063 32.5885C120.342 32.6939 120.64 32.742 120.939 32.73C121.296 32.7346 121.649 32.6605 121.974 32.513C122.269 32.3815 122.525 32.1737 122.713 31.9109L122.117 31.2426C121.988 31.4092 121.821 31.5425 121.63 31.631C121.439 31.7195 121.23 31.7607 121.019 31.7512C120.744 31.7609 120.476 31.6648 120.27 31.4826C120.068 31.296 119.942 31.0421 119.915 30.7688H122.81V30.2721C122.849 29.6686 122.657 29.0727 122.274 28.6047C122.087 28.4059 121.858 28.2504 121.605 28.1488C121.351 28.0472 121.078 28.0021 120.805 28.0165H120.804ZM121.615 29.9407H119.927C119.949 29.6842 120.049 29.4408 120.214 29.243C120.288 29.1622 120.379 29.0985 120.48 29.0562C120.581 29.0139 120.691 28.9941 120.8 28.9981C120.91 28.9912 121.02 29.0073 121.122 29.0456C121.225 29.0838 121.319 29.1432 121.397 29.22C121.547 29.394 121.625 29.6185 121.615 29.8479V29.9407ZM110.56 32.6456H111.779V28.1009H110.56V32.6456ZM111.17 26.2967C110.987 26.2872 110.807 26.3507 110.671 26.4733C110.554 26.5944 110.488 26.7569 110.489 26.9259C110.49 27.0948 110.557 27.2567 110.676 27.3767C110.815 27.4908 110.989 27.5531 111.17 27.5531C111.35 27.5531 111.524 27.4908 111.663 27.3767C111.783 27.2566 111.849 27.0942 111.849 26.925C111.849 26.7558 111.783 26.5935 111.663 26.4733C111.528 26.3512 111.35 26.2877 111.167 26.2967H111.17ZM108.309 26.8912C107.868 26.645 107.37 26.5198 106.866 26.5284H104.982V32.6442H106.877C107.381 32.6495 107.878 32.5222 108.318 32.2751C108.741 32.0349 109.085 31.6772 109.308 31.2453C109.548 30.7765 109.667 30.2557 109.657 29.7293V29.4502C109.666 28.9208 109.543 28.3975 109.3 27.9272C109.074 27.4945 108.729 27.1358 108.306 26.894L108.309 26.8912ZM108.379 29.7663C108.406 30.2587 108.266 30.7459 107.98 31.1484C107.843 31.3113 107.669 31.4399 107.472 31.5237C107.276 31.6075 107.063 31.6443 106.85 31.6312H106.24V27.5505H106.863C107.076 27.5367 107.289 27.5731 107.485 27.6566C107.681 27.74 107.855 27.8683 107.993 28.0312C108.279 28.4451 108.415 28.9438 108.38 29.4454L108.379 29.7663ZM116.63 26.5256C116.478 26.6821 116.361 26.8683 116.285 27.0725C116.21 27.2767 116.178 27.4943 116.191 27.7116V28.0981H115.515V28.9884H116.191V32.6428H117.41V28.9912H118.312V28.1009H117.41V27.7354C117.41 27.307 117.638 27.0928 118.095 27.0928C118.219 27.0906 118.343 27.1032 118.464 27.1305L118.477 26.1893C118.275 26.1388 118.067 26.1107 117.859 26.1056C117.41 26.077 116.968 26.2275 116.63 26.5242V26.5256ZM84.0998 28.0151C83.742 28.0143 83.3919 28.1186 83.093 28.3151C82.7801 28.5202 82.5301 28.8081 82.3709 29.1467C82.1932 29.5241 82.1047 29.9373 82.1121 30.3544V30.494C82.0974 30.7894 82.141 31.0848 82.2405 31.3634C82.34 31.6419 82.4933 31.8982 82.6919 32.1174C82.8856 32.319 83.1198 32.4773 83.379 32.582C83.6382 32.6867 83.9167 32.7355 84.196 32.7251C84.534 32.744 84.8709 32.6727 85.1722 32.5183C85.4735 32.3639 85.7282 32.1321 85.9102 31.8467L85.4358 31.4777C85.2992 31.6566 85.1294 31.8075 84.9356 31.9221C84.7224 32.0399 84.4814 32.0982 84.2379 32.0909C84.0581 32.0955 83.8795 32.0609 83.7144 31.9894C83.5493 31.918 83.4018 31.8114 83.2821 31.6772C83.0223 31.3756 82.8827 30.9889 82.89 30.5909H85.9695V30.2721C86.0094 29.6732 85.8348 29.0796 85.477 28.5977C85.3072 28.403 85.0954 28.2495 84.8575 28.1488C84.6196 28.0481 84.3619 28.0029 84.104 28.0165L84.0998 28.0151ZM85.1916 29.956H82.9144C82.941 29.6023 83.0793 29.2661 83.3093 28.996C83.4088 28.8859 83.5308 28.7985 83.6671 28.7396C83.8034 28.6808 83.9507 28.6519 84.0991 28.6549C84.244 28.6483 84.3885 28.674 84.5222 28.7303C84.656 28.7865 84.7755 28.8718 84.8721 28.98C85.0793 29.2412 85.1919 29.5648 85.1916 29.8981V29.956ZM113.546 26.5263C113.394 26.6828 113.277 26.869 113.202 27.0732C113.126 27.2774 113.094 27.495 113.107 27.7123V28.0988H112.431V28.9891H113.107V32.6435H114.326V28.9912H115.229V28.1009H114.326V27.7354C114.326 27.307 114.554 27.0928 115.011 27.0928C115.135 27.0906 115.259 27.1032 115.38 27.1305L115.393 26.1893C115.191 26.1388 114.984 26.1107 114.775 26.1056C114.326 26.077 113.884 26.2275 113.546 26.5242V26.5263ZM124.674 28.6416L124.641 28.0995H123.494V32.6442H124.708V29.6721C124.793 29.5109 124.926 29.3797 125.088 29.2963C125.25 29.213 125.434 29.1815 125.615 29.206C125.761 29.2075 125.907 29.2187 126.052 29.2395L126.068 28.0723C125.946 28.0352 125.819 28.0166 125.691 28.0172C125.48 28.0165 125.274 28.0749 125.094 28.1859C124.915 28.297 124.771 28.4561 124.678 28.6451L124.674 28.6416ZM101.74 27.9991C101.616 28.0032 101.499 28.0558 101.413 28.1456C101.357 28.2069 101.315 28.279 101.288 28.3575C101.261 28.4361 101.251 28.5192 101.258 28.6019C101.258 28.6535 101.258 28.7212 101.267 28.8042C101.275 28.8872 101.28 28.9751 101.288 29.0665C101.297 29.1579 101.304 29.2486 101.31 29.3372C101.316 29.4258 101.319 29.4998 101.319 29.5563C101.317 29.7455 101.288 29.9334 101.233 30.1144C101.175 30.3152 101.1 30.5108 101.009 30.6991C100.919 30.8889 100.817 31.0728 100.704 31.2495C100.601 31.4114 100.491 31.5679 100.372 31.7184H100.337L100.045 30.3335C99.9651 29.9437 99.8833 29.5981 99.7995 29.2967C99.7341 29.0512 99.6579 28.8087 99.5714 28.5698C99.5214 28.4071 99.4412 28.2554 99.3349 28.1226C99.2994 28.0841 99.2562 28.0534 99.2081 28.0326C99.1601 28.0118 99.1082 28.0014 99.0558 28.0019C98.9187 28.0058 98.7863 28.0523 98.677 28.1351C98.5366 28.2395 98.4157 28.3677 98.3198 28.514C98.1975 28.6967 98.0938 28.8911 98.01 29.0944C97.9116 29.3306 97.8352 29.5754 97.7819 29.8256L98.1 29.9114C98.1612 29.642 98.2525 29.3804 98.3721 29.1314C98.4614 28.9681 98.5605 28.8865 98.6693 28.8865C98.7781 28.8865 98.8772 28.9767 98.9665 29.1572C99.1008 29.4696 99.1945 29.7978 99.2456 30.134L99.7102 32.5514C99.6328 32.7625 99.5272 32.9623 99.3963 33.1451C99.2543 33.3526 99.0976 33.5496 98.9274 33.7347C98.7768 33.9015 98.6096 34.0527 98.4286 34.186C98.3121 34.2863 98.1682 34.3492 98.0156 34.3667C97.9798 34.3687 97.9442 34.3605 97.9129 34.3429C97.8816 34.3254 97.856 34.2993 97.8391 34.2677C97.7989 34.1952 97.763 34.1204 97.7316 34.0437C97.6989 33.9627 97.654 33.8872 97.5984 33.8198C97.5665 33.7849 97.527 33.7578 97.4829 33.7407C97.4389 33.7235 97.3915 33.7166 97.3444 33.7207C97.2849 33.7185 97.2256 33.7293 97.1707 33.7523C97.1157 33.7753 97.0665 33.81 97.0263 33.854C96.943 33.9506 96.8999 34.0754 96.9056 34.2028C96.9042 34.2933 96.9222 34.3831 96.9583 34.4661C96.9944 34.5491 97.0478 34.6235 97.1149 34.6842C97.2725 34.8222 97.4778 34.8932 97.687 34.8823C98.0674 34.8604 98.4307 34.7171 98.7237 34.4735C99.1822 34.1105 99.589 33.6866 99.9328 33.2135C100.234 32.8269 100.514 32.4234 100.77 32.0051C101.04 31.5665 101.278 31.1363 101.484 30.7144C101.676 30.3299 101.842 29.9338 101.984 29.5284C102.095 29.2392 102.159 28.9342 102.173 28.6249C102.176 28.4722 102.141 28.3212 102.07 28.186C102.039 28.1264 101.992 28.0769 101.934 28.0434C101.876 28.0098 101.809 27.9937 101.743 27.997L101.74 27.9991ZM133.667 28.0151C133.416 28.0063 133.168 28.0569 132.941 28.1628C132.714 28.2687 132.515 28.4268 132.361 28.6242L132.323 28.0995H131.18V32.6442H132.394V29.4419C132.469 29.3048 132.58 29.1913 132.716 29.1141C132.851 29.0369 133.006 28.9992 133.162 29.0051C133.262 28.9954 133.362 29.0058 133.458 29.0356C133.554 29.0655 133.643 29.1142 133.72 29.1788C133.845 29.3367 133.905 29.5363 133.888 29.737V32.6435H135.102V29.7098C135.131 29.258 135.003 28.8101 134.74 28.4414C134.606 28.2942 134.44 28.1796 134.254 28.106C134.069 28.0324 133.869 28.0018 133.67 28.0165L133.667 28.0151ZM89.7398 28.5614C89.5749 28.3819 89.3732 28.2402 89.1483 28.1461C88.9235 28.0519 88.681 28.0076 88.4374 28.0162C88.1938 28.0247 87.955 28.086 87.7373 28.1956C87.5197 28.3053 87.3284 28.4608 87.1765 28.6514C86.8261 29.1403 86.6515 29.7334 86.6812 30.3342V30.3928C86.6533 30.9958 86.829 31.5907 87.18 32.0819C87.3263 32.2857 87.5198 32.451 87.744 32.5637C87.9682 32.6763 88.2163 32.7329 88.4672 32.7286C88.7132 32.741 88.9586 32.6958 89.184 32.5966C89.4094 32.4974 89.6086 32.3469 89.7656 32.1572L89.8033 32.6456H90.5177V26.1935H89.7405L89.7398 28.5614ZM89.7398 31.4058C89.6461 31.6112 89.4933 31.784 89.3009 31.9021C89.1085 32.0201 88.8853 32.0781 88.6598 32.0686C88.4878 32.0751 88.317 32.0386 88.1627 31.9623C88.0085 31.886 87.8757 31.7724 87.7765 31.6319C87.5444 31.2727 87.4325 30.849 87.457 30.4221C87.4259 29.9642 87.5375 29.5079 87.7765 29.116C87.8769 28.9728 88.0118 28.8572 88.1688 28.78C88.3258 28.7028 88.4997 28.6665 88.6744 28.6744C88.8961 28.6661 89.1154 28.7224 89.3057 28.8365C89.4959 28.9506 89.6489 29.1175 89.746 29.317L89.7398 31.4058ZM97.4379 30.0551C97.5168 29.7868 97.5574 29.5087 97.5586 29.2291C97.5768 28.9062 97.4757 28.5879 97.2747 28.3347C97.1727 28.2234 97.0472 28.1363 96.9073 28.0797C96.7674 28.0231 96.6167 27.9984 96.466 28.0074C96.1858 28.0072 95.9107 28.0829 95.67 28.2265C95.4155 28.3783 95.2015 28.5894 95.0463 28.8419L95.0205 28.8244L96.113 25.5126L94.4609 25.59L94.3835 25.8481C94.8258 25.8481 95.0467 25.9486 95.0463 26.1495C95.0417 26.2299 95.0271 26.3093 95.003 26.386L94.9172 26.7L93.8763 30.0551C93.7558 30.4337 93.6639 30.7593 93.6007 31.0319C93.547 31.2386 93.5152 31.4505 93.5058 31.664C93.501 31.8068 93.5264 31.949 93.5806 32.0813C93.6347 32.2136 93.7162 32.3329 93.8198 32.4314C94.0382 32.6326 94.3274 32.7392 94.6242 32.7279C94.8652 32.7254 95.1034 32.6756 95.3253 32.5814C95.5695 32.4807 95.7982 32.3461 96.0049 32.1816C96.2276 32.0057 96.4311 31.8067 96.6119 31.5879C96.8005 31.3626 96.9662 31.1191 97.1065 30.8609C97.2469 30.6046 97.358 30.3334 97.4379 30.0523V30.0551ZM96.616 29.836C96.5553 30.0768 96.4762 30.3126 96.3795 30.5414C96.283 30.7727 96.1677 30.9958 96.0349 31.2084C95.9139 31.4062 95.7757 31.593 95.6219 31.7665C95.4943 31.9141 95.3465 32.0431 95.183 32.1495C95.0595 32.2347 94.9143 32.2831 94.7644 32.2891C94.4719 32.2891 94.3256 32.054 94.3256 31.5837C94.3276 31.3574 94.3564 31.1321 94.4114 30.9126C94.4709 30.6739 94.5501 30.4406 94.6479 30.2149C94.7469 29.9863 94.8621 29.765 94.9926 29.5528C95.1128 29.3565 95.2481 29.1699 95.3972 28.9947C95.5216 28.8459 95.6666 28.7155 95.8277 28.6074C95.9478 28.5227 96.0897 28.4743 96.2365 28.4679C96.3047 28.4696 96.3713 28.4887 96.43 28.5234C96.4887 28.5581 96.5377 28.6072 96.5721 28.666C96.6692 28.8139 96.7179 28.9882 96.7116 29.1649C96.7088 29.3918 96.6778 29.6174 96.6195 29.8367L96.616 29.836ZM128.512 28.0165C128.123 28.0095 127.739 28.1107 127.404 28.3088C127.078 28.5062 126.818 28.7952 126.655 29.1398C126.474 29.5223 126.383 29.9415 126.39 30.3649V30.4828C126.376 30.7837 126.425 31.0843 126.533 31.3655C126.641 31.6468 126.806 31.9025 127.018 32.1167C127.234 32.3228 127.49 32.4832 127.77 32.5885C128.05 32.6939 128.348 32.742 128.646 32.73C129.002 32.7346 129.355 32.6606 129.68 32.513C129.975 32.3817 130.231 32.1739 130.42 31.9109L129.823 31.2426C129.695 31.4091 129.528 31.5423 129.337 31.6308C129.146 31.7194 128.936 31.7606 128.726 31.7512C128.45 31.7609 128.182 31.6648 127.975 31.4826C127.774 31.2957 127.648 31.0419 127.621 30.7688H130.515V30.2721C130.555 29.6691 130.365 29.0732 129.984 28.6047C129.796 28.406 129.568 28.2505 129.314 28.1489C129.061 28.0474 128.788 28.0022 128.515 28.0165H128.512ZM129.322 29.9407H127.634C127.656 29.6842 127.757 29.4408 127.921 29.243C127.996 29.1622 128.086 29.0985 128.188 29.0562C128.289 29.0139 128.398 28.9941 128.507 28.9981C128.617 28.9912 128.727 29.0073 128.83 29.0456C128.933 29.0838 129.026 29.1432 129.105 29.22C129.254 29.394 129.332 29.6185 129.322 29.8479V29.9407Z" fill="black"/>
<path d="M78.0174 3.86156C77.0619 3.85354 76.121 4.09618 75.2886 4.56529C74.4562 5.03439 73.7613 5.71356 73.2732 6.53505V4.70505C73.2732 4.56498 73.2176 4.43064 73.1185 4.3316C73.0195 4.23255 72.8852 4.17691 72.7451 4.17691H70.3235C70.1834 4.17691 70.049 4.23255 69.95 4.3316C69.851 4.43064 69.7953 4.56498 69.7953 4.70505V18.833C69.7953 18.973 69.851 19.1074 69.95 19.2064C70.049 19.3055 70.1834 19.3611 70.3235 19.3611H72.7472C72.8872 19.3611 73.0216 19.3055 73.1206 19.2064C73.2197 19.1074 73.2753 18.973 73.2753 18.833V10.7902C73.2753 8.43272 74.6846 7.02272 76.6974 7.02272C78.7681 7.02272 79.9472 8.37412 79.9472 10.7316V18.833C79.9472 18.973 80.0028 19.1074 80.1019 19.2064C80.2009 19.3055 80.3352 19.3611 80.4753 19.3611H82.899C83.0391 19.3611 83.1734 19.3055 83.2725 19.2064C83.3715 19.1074 83.4272 18.973 83.4272 18.833V9.69761C83.4244 6.1611 81.4402 3.86156 78.0174 3.86156ZM42.6453 10.3876C40.8621 9.81272 39.2232 9.35226 39.2232 8.2604V8.20249C39.2232 7.31156 39.9997 6.67877 41.3511 6.67877C42.7067 6.75395 44.0236 7.15764 45.1883 7.85505C45.3106 7.92147 45.4542 7.93673 45.5877 7.8975C45.7212 7.85828 45.8338 7.76775 45.9007 7.64575L46.7742 6.08086C46.8405 5.95926 46.8565 5.8165 46.8188 5.68321C46.7811 5.54992 46.6927 5.4367 46.5725 5.36784C45.0148 4.45112 43.2469 3.952 41.4397 3.91877C38.4202 3.91877 36.0328 5.67272 36.0328 8.54714V8.60505C36.0328 11.5088 38.5346 12.429 40.7769 13.0611C42.5602 13.6074 44.1704 14.0099 44.1704 15.1883V15.2455C44.1704 16.2516 43.3074 16.8844 41.8123 16.8844C40.1772 16.8244 38.5964 16.2818 37.269 15.3251C37.2112 15.2862 37.1463 15.2591 37.078 15.2456C37.0096 15.232 36.9393 15.2321 36.871 15.2459C36.8027 15.2597 36.7379 15.287 36.6802 15.3261C36.6225 15.3652 36.5732 15.4153 36.5351 15.4737L35.5583 16.9576C35.4832 17.0709 35.4549 17.2088 35.4792 17.3425C35.5035 17.4762 35.5786 17.5953 35.6888 17.6748C37.4548 18.9295 39.561 19.6165 41.7272 19.6444C44.8904 19.6444 47.3637 18.0627 47.3637 14.8716V14.8144C47.3609 12.0837 44.859 11.0776 42.6453 10.3876ZM58.1749 3.86156C57.1182 3.83843 56.0675 4.02658 55.0845 4.41498C54.1016 4.80338 53.2061 5.3842 52.4506 6.12337C51.6951 6.86253 51.0949 7.74514 50.6851 8.71941C50.2754 9.69368 50.0643 10.74 50.0644 11.7969V11.8562C50.0649 12.9037 50.275 13.9405 50.6823 14.9055C51.0895 15.8706 51.6858 16.7444 52.4359 17.4755C53.186 18.2067 54.0748 18.7803 55.05 19.1627C56.0252 19.5452 57.067 19.7286 58.1141 19.7023C59.1707 19.729 60.2219 19.5445 61.2062 19.1596C62.1905 18.7747 63.088 18.1971 63.8461 17.4607C64.6042 16.7243 65.2077 15.8439 65.621 14.8712C66.0343 13.8985 66.2493 12.8531 66.2532 11.7962V11.7383C66.2552 10.6862 66.0461 9.6444 65.6382 8.67457C65.2303 7.70474 64.632 6.8266 63.8787 6.09215C63.1254 5.35769 62.2324 4.78184 61.2525 4.3987C60.2726 4.01556 59.2266 3.83291 58.1749 3.86156ZM62.7795 11.8541C62.7795 14.4704 60.9962 16.6841 58.1749 16.6841C57.5476 16.6747 56.9286 16.54 56.3542 16.2878C55.7798 16.0357 55.2617 15.6712 54.8302 15.2158C54.3988 14.7605 54.0627 14.2234 53.8419 13.6363C53.6211 13.0491 53.5199 12.4237 53.5444 11.7969V11.739C53.5444 9.09412 55.3276 6.909 58.1169 6.909C58.7471 6.91296 59.37 7.04379 59.9485 7.29369C60.5269 7.54359 61.0492 7.90745 61.484 8.36355C61.9188 8.81965 62.2573 9.35866 62.4793 9.94842C62.7012 10.5382 62.8022 11.1666 62.776 11.7962L62.7795 11.8541ZM94.3018 3.86226C93.3137 3.85949 92.3348 4.05221 91.4214 4.42933C90.5081 4.80646 89.6783 5.36052 88.98 6.05963C88.2817 6.75874 87.7285 7.58908 87.3524 8.50285C86.9763 9.41662 86.7847 10.3958 86.7886 11.3839V11.8248C86.7467 12.8634 86.9189 13.8995 87.2947 14.8686C87.6704 15.8378 88.2416 16.7192 88.9726 17.4581C89.7037 18.197 90.579 18.7776 91.5441 19.1637C92.5091 19.5497 93.5433 19.7331 94.5823 19.7023C95.6746 19.7365 96.7617 19.5367 97.7705 19.1164C98.7794 18.6961 99.6867 18.065 100.432 17.2653C100.48 17.2138 100.518 17.1531 100.543 17.0866C100.568 17.0202 100.579 16.9495 100.576 16.8786C100.573 16.8077 100.556 16.7382 100.526 16.6741C100.495 16.61 100.452 16.5527 100.399 16.5055L99.1109 15.3627C99.0146 15.2776 98.8906 15.2307 98.7621 15.2307C98.6336 15.2307 98.5095 15.2776 98.4132 15.3627C97.4013 16.3381 96.0456 16.8751 94.6402 16.8571C93.5571 16.8957 92.5004 16.5178 91.6873 15.8013C90.8742 15.0847 90.3665 14.0839 90.2686 13.0046H100.939C101.073 13.0049 101.201 12.9547 101.299 12.8641C101.397 12.7735 101.457 12.6492 101.466 12.5162C101.477 12.3509 101.485 12.1897 101.485 12.0278C101.485 7.68621 99.0725 3.91179 94.3025 3.86505L94.3018 3.86226ZM90.2393 10.7044C90.5553 8.34691 92.0532 6.70807 94.179 6.70807C96.4814 6.70807 97.8028 8.46203 98.033 10.7044H90.2393ZM130.329 3.94807C128.496 3.91962 126.678 4.28432 124.998 5.01761C124.876 5.06982 124.777 5.16645 124.723 5.28809C124.669 5.40974 124.663 5.5474 124.706 5.67342L125.319 7.47482C125.342 7.54192 125.378 7.60373 125.425 7.65657C125.472 7.7094 125.53 7.75217 125.594 7.78232C125.658 7.81248 125.728 7.82939 125.799 7.83206C125.869 7.83472 125.94 7.82308 126.006 7.79784C127.225 7.30288 128.528 7.04981 129.843 7.05272C132.259 7.05272 133.582 8.20249 133.582 10.3018V10.5892C132.228 10.1457 130.809 9.93185 129.384 9.95644C125.846 9.95644 123.229 11.5667 123.229 14.9302V14.9881C123.229 18.0355 125.76 19.6744 128.636 19.6744C129.568 19.7075 130.495 19.5279 131.348 19.1493C132.2 18.7707 132.954 18.203 133.554 17.4892V18.833C133.554 18.973 133.61 19.1074 133.709 19.2064C133.808 19.3055 133.942 19.3611 134.083 19.3611H136.478C136.618 19.3611 136.752 19.3055 136.851 19.2064C136.95 19.1074 137.006 18.973 137.006 18.833V10.359C137.001 6.30482 134.815 3.94807 130.329 3.94807ZM133.636 13.8669C133.636 15.7646 131.911 17.0581 129.61 17.0581C127.97 17.0581 126.68 16.253 126.68 14.8157V14.7585C126.68 13.2934 127.974 12.4011 130.16 12.4011C131.346 12.393 132.525 12.5973 133.64 13.0046L133.636 13.8669ZM149.453 3.89017C147.081 3.99551 145.505 5.48644 144.622 7.599V4.70575C144.622 4.56568 144.566 4.43134 144.467 4.3323C144.368 4.23325 144.234 4.17761 144.093 4.17761H141.67C141.53 4.17761 141.395 4.23325 141.296 4.3323C141.197 4.43134 141.142 4.56568 141.142 4.70575V18.833C141.142 18.973 141.197 19.1074 141.296 19.2064C141.395 19.3055 141.53 19.3611 141.67 19.3611H144.093C144.234 19.3611 144.368 19.3055 144.467 19.2064C144.566 19.1074 144.622 18.973 144.622 18.833V13.5788C144.622 9.7597 146.512 7.77831 149.505 7.58575C149.639 7.57724 149.765 7.51812 149.856 7.42041C149.948 7.32271 149.999 7.19373 149.999 7.0597V4.4183C150 4.34728 149.985 4.27694 149.958 4.21151C149.93 4.14608 149.89 4.08692 149.838 4.03759C149.787 3.98825 149.727 3.94976 149.66 3.92442C149.594 3.89909 149.523 3.88744 149.452 3.89017H149.453ZM113.62 3.86156C112.591 3.86033 111.579 4.12097 110.678 4.61894C109.778 5.11691 109.018 5.83584 108.472 6.70807V4.70575C108.472 4.56568 108.417 4.43134 108.318 4.3323C108.219 4.23325 108.084 4.17761 107.944 4.17761H105.52C105.38 4.17761 105.246 4.23325 105.147 4.3323C105.048 4.43134 104.992 4.56568 104.992 4.70575V23.4299C104.992 23.57 105.048 23.7043 105.147 23.8034C105.246 23.9024 105.38 23.9581 105.52 23.9581H107.944C108.084 23.9581 108.219 23.9024 108.318 23.8034C108.417 23.7043 108.472 23.57 108.472 23.4299V17.0002C109.047 17.8325 109.816 18.5114 110.714 18.9775C111.611 19.4436 112.609 19.6826 113.62 19.6737C117.244 19.6737 120.695 16.8271 120.695 11.7962V11.7383C120.696 6.70738 117.216 3.86156 113.62 3.86156ZM117.158 11.7969C117.158 14.7871 115.204 16.6555 112.815 16.6555C110.456 16.6555 108.386 14.7292 108.386 11.7969V11.739C108.386 8.83528 110.456 6.8804 112.815 6.8804C115.173 6.8804 117.158 8.80668 117.158 11.739V11.7969Z" fill="black"/>
</g>
<defs>
<clipPath id="clip0_169_3051">
<rect width="150" height="34.8837" fill="white"/>
</clipPath>
</defs>
</svg>
