<svg width="150" height="21" viewBox="0 0 150 21" fill="none" xmlns="http://www.w3.org/2000/svg">
<path d="M8.50794 4.63293C7.83086 3.46105 7.01985 2.78769 5.58011 2.78769C4.07342 2.78769 2.76761 3.86656 2.76761 5.42162C2.76761 6.88367 4.27431 7.55704 5.42386 8.07787L6.54737 8.57266C8.75348 9.53992 10.621 10.6411 10.621 13.342C10.621 16.3145 8.23636 18.5838 5.28621 18.5838C2.56672 18.5875 0.53919 16.8279 -0.000244141 14.1977L1.84499 13.6805C2.09053 15.4105 3.41865 16.8316 5.24157 16.8316C7.06449 16.8316 8.73115 15.4365 8.73115 13.5243C8.73115 11.5414 7.17982 10.868 5.60243 10.1463L4.56821 9.69617C2.58532 8.79588 0.877732 7.78397 0.877732 5.35465C0.877732 2.72073 3.10615 1.03174 5.62476 1.03174C7.51464 1.03174 9.11062 1.999 10.0109 3.66567L8.50794 4.63293Z" fill="#210800"/>
<path d="M18.8342 11.4281C18.8342 12.6893 18.7896 14.129 19.5745 15.2079C20.3186 16.2421 21.7583 16.8262 22.9934 16.8262C24.21 16.8262 25.5381 16.2645 26.3231 15.3195C27.2234 14.2406 27.1564 12.7563 27.1564 11.4281V1.32397H29.0463V11.9453C29.0463 13.7905 28.9123 15.2525 27.5619 16.6514C26.39 17.9125 24.7048 18.5859 22.9934 18.5859C21.3975 18.5859 19.7531 17.9795 18.6073 16.8522C17.1229 15.4348 16.9443 13.8798 16.9443 11.9453V1.32397H18.8342V11.4281Z" fill="#210800"/>
<path d="M35.665 0.603027L48.8979 14.4646V1.32475H50.7878V19.0591L37.5549 5.21984V18.2928H35.665V0.603027Z" fill="#210800"/>
<path d="M59.8149 3.07615H60.5143C62.7204 3.07615 64.9489 3.27704 64.9489 6.04862C64.9489 8.47793 63.1706 9.11037 61.0798 9.11037H59.8187V3.07615H59.8149ZM59.8149 10.8663H61.1877C62.6051 10.8663 64.0709 10.6878 65.2167 9.74282C66.2733 8.86484 66.835 7.46975 66.835 6.09698C66.835 4.59029 66.184 3.10591 64.9228 2.22793C63.684 1.37228 62.1773 1.32764 60.7152 1.32764H57.925V18.2956H59.8149V10.8663Z" fill="#210800"/>
<path d="M97.325 14.0369L102.816 0.443115L108.303 14.0369L112.76 1.32109H114.806L108.303 19.1671L102.816 5.50636L97.325 19.1671L90.822 1.32109H92.8681L97.325 14.0369Z" fill="#210800"/>
<path d="M119.04 1.32397H127.839V3.07993H120.93V8.12085H127.638V9.8768H120.93V16.536H127.839V18.292H119.04V1.32397Z" fill="#210800"/>
<path d="M136.098 3.07621H136.66C138.933 3.07621 140.979 3.34778 140.979 6.13796C140.979 8.77189 138.818 9.1774 136.682 9.1774H136.098V3.07621ZM136.098 10.8441H136.571L141.701 18.292H144.018L138.617 10.6841C141.228 10.4609 142.873 8.61564 142.873 6.00403C142.873 2.17963 139.882 1.32397 136.664 1.32397H134.212V18.292H136.102L136.098 10.8441Z" fill="#210800"/>
<path d="M8.50794 4.63293C7.83086 3.46105 7.01985 2.78769 5.58011 2.78769C4.07342 2.78769 2.76761 3.86656 2.76761 5.42162C2.76761 6.88367 4.27431 7.55704 5.42386 8.07787L6.54737 8.57266C8.75348 9.53992 10.621 10.6411 10.621 13.342C10.621 16.3145 8.23636 18.5838 5.28621 18.5838C2.56672 18.5875 0.53919 16.8279 -0.000244141 14.1977L1.84499 13.6805C2.09053 15.4105 3.41865 16.8316 5.24157 16.8316C7.06449 16.8316 8.73115 15.4365 8.73115 13.5243C8.73115 11.5414 7.17982 10.868 5.60243 10.1463L4.56821 9.69617C2.58532 8.79588 0.877732 7.78397 0.877732 5.35465C0.877732 2.72073 3.10615 1.03174 5.62476 1.03174C7.51464 1.03174 9.11062 1.999 10.0109 3.66567L8.50794 4.63293Z" fill="black"/>
<path d="M18.8342 11.4281C18.8342 12.6893 18.7896 14.129 19.5745 15.2079C20.3186 16.2421 21.7583 16.8262 22.9934 16.8262C24.21 16.8262 25.5381 16.2645 26.3231 15.3195C27.2234 14.2406 27.1564 12.7563 27.1564 11.4281V1.32397H29.0463V11.9453C29.0463 13.7905 28.9123 15.2525 27.5619 16.6514C26.39 17.9125 24.7048 18.5859 22.9934 18.5859C21.3975 18.5859 19.7531 17.9795 18.6073 16.8522C17.1229 15.4348 16.9443 13.8798 16.9443 11.9453V1.32397H18.8342V11.4281Z" fill="black"/>
<path d="M35.665 0.603027L48.8979 14.4646V1.32475H50.7878V19.0591L37.5549 5.21984V18.2928H35.665V0.603027Z" fill="black"/>
<path d="M59.8149 3.07615H60.5143C62.7204 3.07615 64.9489 3.27704 64.9489 6.04862C64.9489 8.47793 63.1706 9.11037 61.0798 9.11037H59.8187V3.07615H59.8149ZM59.8149 10.8663H61.1877C62.6051 10.8663 64.0709 10.6878 65.2167 9.74282C66.2733 8.86484 66.835 7.46975 66.835 6.09698C66.835 4.59029 66.184 3.10591 64.9228 2.22793C63.684 1.37228 62.1773 1.32764 60.7152 1.32764H57.925V18.2956H59.8149V10.8663Z" fill="black"/>
<path d="M97.325 14.0369L102.816 0.443115L108.303 14.0369L112.76 1.32109H114.806L108.303 19.1671L102.816 5.50636L97.325 19.1671L90.822 1.32109H92.8681L97.325 14.0369Z" fill="black"/>
<path d="M119.04 1.32397H127.839V3.07993H120.93V8.12085H127.638V9.8768H120.93V16.536H127.839V18.292H119.04V1.32397Z" fill="black"/>
<path d="M136.098 3.07621H136.66C138.933 3.07621 140.979 3.34778 140.979 6.13796C140.979 8.77189 138.818 9.1774 136.682 9.1774H136.098V3.07621ZM136.098 10.8441H136.571L141.701 18.292H144.018L138.617 10.6841C141.228 10.4609 142.873 8.61564 142.873 6.00403C142.873 2.17963 139.882 1.32397 136.664 1.32397H134.212V18.292H136.102L136.098 10.8441Z" fill="black"/>
<path d="M88.2217 9.83329C88.2217 14.7812 84.3006 18.5386 79.3229 18.5386C74.4531 18.5386 70.532 14.6026 70.532 9.87049C70.532 5.06394 74.4159 1.12793 79.3229 1.12793C84.3006 1.12793 88.2217 4.88537 88.2217 9.83329ZM72.5223 9.87049C72.5223 13.4791 75.4129 16.6748 79.2113 16.6748C83.1473 16.6748 86.2128 13.7209 86.2128 9.87049C86.2128 5.95308 83.1808 2.99921 79.2113 2.99921C75.3795 2.99921 72.5223 6.19489 72.5223 9.87049Z" fill="black"/>
<path d="M144.806 3.92095C144.806 3.45964 144.921 3.02809 145.152 2.6263C145.383 2.22452 145.699 1.90458 146.101 1.67392C146.503 1.44327 146.938 1.32422 147.403 1.32422C147.864 1.32422 148.296 1.43955 148.698 1.6702C149.099 1.90086 149.419 2.21708 149.65 2.61886C149.881 3.02065 150 3.45592 150 3.92095C150 4.37481 149.888 4.79892 149.665 5.19699C149.442 5.59505 149.129 5.91499 148.727 6.15309C148.326 6.39118 147.883 6.51395 147.407 6.51395C146.93 6.51395 146.491 6.3949 146.086 6.15681C145.684 5.91871 145.368 5.59877 145.145 5.20071C144.918 4.80264 144.806 4.37481 144.806 3.92095ZM145.126 3.92095C145.126 4.33017 145.227 4.70964 145.431 5.05934C145.636 5.40904 145.911 5.68434 146.261 5.88895C146.61 6.09356 146.99 6.19773 147.399 6.19773C147.808 6.19773 148.188 6.09728 148.538 5.89267C148.887 5.68806 149.163 5.41276 149.367 5.06306C149.572 4.71336 149.676 4.33389 149.676 3.92467C149.676 3.52288 149.579 3.15086 149.382 2.80115C149.185 2.45517 148.91 2.17243 148.556 1.96038C148.203 1.74833 147.82 1.64416 147.403 1.64416C146.997 1.64416 146.618 1.74461 146.268 1.94922C145.919 2.15383 145.639 2.43285 145.435 2.78627C145.23 3.1397 145.126 3.51544 145.126 3.92095ZM148.329 3.27362C148.329 3.45592 148.285 3.61589 148.195 3.75353C148.106 3.89118 147.98 4.00279 147.812 4.08092L148.631 5.4388H148.214L147.488 4.19624H146.908V5.4388H146.558V2.39937H147.288C147.615 2.39937 147.872 2.47005 148.054 2.61514C148.236 2.75651 148.329 2.976 148.329 3.27362ZM146.908 3.92095H147.295C147.503 3.92095 147.671 3.86886 147.79 3.76098C147.909 3.65309 147.968 3.49684 147.968 3.29222C147.968 2.89788 147.741 2.69699 147.288 2.69699H146.908V3.92095Z" fill="#231F20"/>
</svg>
