<svg width="150" height="64" viewBox="0 0 150 64" fill="none" xmlns="http://www.w3.org/2000/svg">
<path d="M145.798 39.6918C143.359 40.0888 141.997 40.2333 140.659 40.2333C137.455 40.2333 132.872 39.3011 128.067 37.6734L120.867 35.2327C117.054 33.9433 111.383 32.8809 108.269 32.8809C105.182 32.8809 99.4908 33.9448 95.6939 35.2327L88.4924 37.6734C83.6919 39.3011 79.1026 40.2333 75.8996 40.2333C72.6919 40.2333 68.1041 39.3011 63.3021 37.6734L56.1005 35.2327C52.2973 33.9464 46.6123 32.8809 43.5205 32.8809C40.4144 32.8809 34.7341 33.9433 30.9277 35.2327L23.7278 37.6734C18.9225 39.3011 14.338 40.2333 11.135 40.2333C9.7979 40.2333 8.43541 40.0904 5.99625 39.6934L6.2948 40.1936C6.98716 41.3481 7.3524 41.8467 8.28455 42.9217C9.54859 43.0964 10.0536 43.1345 11.0667 43.1345C14.2792 43.1345 19.5275 42.1278 23.7278 40.7144L30.9293 38.2816C35.8155 36.6333 40.2953 35.7202 43.5205 35.7202C46.2439 35.7202 51.0063 36.5936 54.3109 37.702L63.3021 40.7144C67.5468 42.1325 72.7506 43.1345 75.9012 43.1345C79.0518 43.1345 84.254 42.1309 88.4924 40.7144L97.4852 37.702C100.788 36.5952 105.554 35.7202 108.277 35.7202C111.507 35.7234 115.976 36.6333 120.867 38.2816L128.067 40.7144C132.264 42.1278 137.515 43.1345 140.723 43.1345C141.733 43.1345 142.243 43.0964 143.518 42.9217C144.525 41.7308 144.828 41.3131 145.5 40.1936L145.798 39.6918ZM135.059 49.8232L124.578 46.6043C119.862 45.1561 118.039 44.6479 115.526 44.0937C112.868 43.5045 110.202 43.1647 108.272 43.1647C105.233 43.1647 99.432 44.2477 95.6955 45.5133L88.4924 47.9541C83.6188 49.6056 79.1327 50.5155 75.8599 50.5155C72.5728 50.5155 68.1264 49.6119 63.2306 47.9541L56.0275 45.5133C52.2989 44.2493 46.4773 43.1647 43.4347 43.1647C41.5164 43.1647 38.828 43.5093 36.1855 44.0937C33.7019 44.6431 31.7312 45.1894 27.1356 46.6027L16.6644 49.8232C17.7839 50.8395 18.0809 51.0777 19.3338 51.9257L25.1554 50.1535L29.9638 48.7338L31.8964 48.1621C37.0113 46.6535 40.4826 46.0056 43.4411 46.0056C46.1264 46.0056 50.9856 46.8949 54.2267 47.9843L63.229 51.0046C67.4451 52.4179 72.6664 53.4152 75.8599 53.4152C79.0438 53.4152 84.3112 52.41 88.4908 51.0046L97.4836 47.9843C100.709 46.8997 105.598 46.0025 108.276 46.0056C111.243 46.0056 114.685 46.6488 119.814 48.1621L121.745 48.7338L126.556 50.1535L132.386 51.9257C133.634 51.0681 133.933 50.8363 135.059 49.8232ZM123.327 56.6452L122.666 56.4038L120.867 55.8035C115.642 54.2282 111.463 53.4438 108.271 53.4438C105.597 53.4438 101.074 54.2124 97.4852 55.2747L95.6939 55.8035C94.7856 56.1052 94.179 56.3022 93.8836 56.4038L92.0844 57.0263L90.2931 57.6361L88.4924 58.2474C83.0265 60.0165 79.1327 60.8073 75.8996 60.8073C73.1111 60.8073 68.9807 60.045 65.1013 58.8175L63.3021 58.2474L61.5029 57.6361L59.71 57.0263L57.9092 56.407L56.1005 55.8051C50.884 54.2298 46.6933 53.4454 43.5205 53.4454C40.8304 53.447 36.311 54.2124 32.7174 55.2763L30.9293 55.8051C29.6525 56.218 29.3889 56.3085 28.4679 56.6468L32.0885 58.5253L32.8984 58.2792C37.1209 56.9739 40.7558 56.2942 43.53 56.2942C45.8612 56.2942 49.5088 56.8897 52.5085 57.7552L54.3109 58.2792L56.1005 58.8588L57.9108 59.4559L59.71 60.0784L61.5029 60.6866L63.3021 61.2869C68.706 62.9463 72.6839 63.7085 75.9012 63.707C78.6611 63.7054 82.8788 62.9717 86.6932 61.8268L88.4924 61.2869L90.2931 60.6866L92.0844 60.0784L93.8836 59.4559L95.6939 58.8588L97.4852 58.2792C102.078 56.9135 105.463 56.2942 108.277 56.2974C111.05 56.2974 114.68 56.9755 118.898 58.2792L119.707 58.5253L123.327 56.6452ZM20.5073 14.1092V21.992C18.7081 22.7463 16.9105 23.1243 15.1193 23.1243C10.5014 23.1243 7.25394 19.5576 7.25394 14.4824C7.25394 9.01497 11.135 5.2038 16.7025 5.2038C19.8149 5.2038 22.8988 6.07243 26.637 7.99866V2.75829C21.8603 0.805064 19.5037 0.249268 15.9752 0.249268C6.22492 0.249268 0 5.76436 0 14.3983C0 22.6145 6.04072 28.0772 15.1256 28.0772C19.175 28.0772 23.9771 26.7751 27.477 24.7297V14.1092H20.5073ZM33.2589 1.01785V27.3118H40.119V5.98032H43.079C46.9553 5.98032 48.6957 7.21737 48.6957 9.97412C48.6957 12.7928 46.7504 14.4014 43.3363 14.4014L41.8293 14.3617H41.0575L50.5902 27.3118H59.3607L50.6188 16.7405C53.8646 15.2748 55.5971 12.6753 55.5971 9.25635C55.5971 3.68727 51.9876 1.01785 44.459 1.01785H33.2589ZM97.1056 1.01785V27.3118H103.964V16.0688H116.085V27.3118H122.945V1.01785H116.085V10.7395H103.964V1.01785H97.1056ZM130.269 1.01785V27.3118H150V22.1604H137.118V15.9132H146.591V10.9619H137.118V6.17247H148.499V1.01785H130.269Z" fill="black"/>
<path fill-rule="evenodd" clip-rule="evenodd" d="M67.1023 14.1712C67.1023 8.74189 70.7738 4.95771 76.0427 4.95771C81.3117 4.95771 84.9831 8.74506 84.9831 14.1728C84.9831 19.5879 81.299 23.3832 76.0427 23.3832C70.7849 23.3832 67.0991 19.5831 67.1023 14.1712ZM59.8706 14.1712C59.8706 22.3398 66.7148 28.3329 76.0411 28.3329C85.3721 28.3329 92.2148 22.3383 92.2148 14.1712C92.2148 5.98355 85.3848 0 76.0411 0C66.7006 0 59.8706 5.98355 59.8706 14.1712Z" fill="black"/>
</svg>
