<svg width="150" height="59" viewBox="0 0 150 59" fill="none" xmlns="http://www.w3.org/2000/svg">
<path fill-rule="evenodd" clip-rule="evenodd" d="M8.27639 17.0956V0H0V48.9866H8.27639V28.7134C8.3293 27.1242 8.8892 24.754 9.9757 23.5088C11.0622 22.2627 11.9797 21.742 12.4372 21.5415C12.8964 21.3409 14.0964 20.8851 15.0643 20.8442C16.033 20.8032 17.0555 20.851 17.7195 20.9978C18.3844 21.1437 18.9887 21.3238 19.9429 22.1458C19.9429 22.1458 20.7281 22.7039 21.1523 24.4792C21.5765 26.2554 21.4365 27.3999 21.4484 27.7183V48.9849H29.7248V25.3566C29.689 23.3842 29.4381 21.8675 29.0258 20.7093C28.9004 20.3594 28.7851 20.041 28.6255 19.7542C28.5308 19.5835 28.3652 19.1867 28.0964 18.765C27.4904 17.81 26.4704 16.4964 25.3336 15.7513C23.6727 14.6648 21.9605 13.7379 20.2663 13.4682C19.6578 13.3709 19.0476 13.2625 18.282 13.2156C16.9112 13.1294 15.264 13.2019 13.8361 13.644C11.611 14.3337 10.5689 14.9132 8.82006 16.5306L8.27639 17.0956ZM138.433 19.202V13.831L130.317 13.8404V48.9747H138.416V29.4142C138.577 26.3928 139.343 25.4915 140.933 24.0345C142.522 22.5768 144.886 22.1253 145.362 22.0732C145.838 22.0211 147.799 21.7813 150 22.3122V13.5391C148.383 13.1686 145.227 13.8574 144.567 14.0964C143.904 14.3337 142.418 14.8919 141.015 16.0304C139.612 17.169 138.752 18.5662 138.433 19.202ZM116.265 42.1868C113.797 43.4585 109.345 43.432 106.484 40.1478C104.013 37.309 104.013 33.2848 104.039 33.295L104.044 33.2848H128.797C129.037 30.289 128.904 24.8556 126.653 20.8279C124.399 16.7994 121.137 14.2287 116.475 13.1157C111.81 12.0028 107.941 13.009 105.557 14.0955C103.17 15.182 100.36 16.9053 97.9493 21.4903C97.9493 21.4903 96.0955 24.9623 96.0674 30.9249C96.0409 36.8857 97.3672 39.2985 97.4193 39.6451C97.4714 39.9899 98.7431 42.931 101.078 45.3166C103.408 47.7038 106.961 48.9755 107.569 49.107C108.177 49.2384 111.466 50.2472 116.078 49.5021C120.688 48.7604 123.974 46.0318 125.353 44.3632C126.729 42.6929 128.637 39.7526 128.85 36.7551V36.4649H120.315C120.025 38.6891 118.724 40.9159 116.265 42.1868ZM108.655 20.0325C110.033 19.2379 113.637 18.2299 116.713 20.3508C119.789 22.4709 120.37 24.6448 120.473 26.7649L104.444 26.7376C104.865 22.5503 107.279 20.828 108.655 20.0325ZM86.9622 13.8668V17.1536C84.9454 15.0335 81.3428 13.4418 78.1251 13.4418C74.9108 13.4418 71.4832 14.1493 68.8672 16.2694C66.2529 18.3895 63.7436 21.2171 63.0011 26.5165C62.2602 31.8159 62.7886 36.552 65.4037 40.4747C68.0179 44.3973 71.659 46.9075 77.3126 47.1157C82.9653 47.3291 86.9614 43.5848 86.9614 43.5848V48.1792C86.9614 48.1792 87.5264 52.7702 80.8102 53.0202C74.0974 53.2669 72.754 51.0418 72.5074 48.9909H63.8503V49.3792C64.4145 54.5019 68.0197 56.4453 68.0197 56.4453C73.8141 60.298 85.0871 58.3171 85.0871 58.3171C90.8815 57.1537 93.0033 53.6877 93.0033 53.6877C94.45 51.5343 94.5567 50.3334 94.6651 48.035V13.8668H86.9622ZM84.1679 38.3179C81.5178 40.5463 77.3134 41.1814 73.8499 38.4595C73.8499 38.4595 70.3523 35.6686 70.6348 29.4491C70.9173 23.2306 74.6283 21.6055 75.1566 21.358C75.6875 21.1096 80.2469 18.9204 84.3462 22.4889C84.3462 22.4889 85.8646 23.7691 86.4185 25.6246C86.9784 27.4801 86.9955 29.5908 86.9955 29.5908L87.0305 30.1209C87.0305 33.3368 86.8205 36.0919 84.1679 38.3179Z" fill="black"/>
<path fill-rule="evenodd" clip-rule="evenodd" d="M63.443 48.9995C62.7269 47.8857 61.6139 45.979 61.5883 43.992V22.5768C61.5089 21.5979 61.9067 18.5756 58.7257 15.9784L58.4073 15.713C56.8437 14.5207 54.9097 13.9898 53.2923 13.54C51.6758 13.0902 49.7409 12.9041 47.1437 12.8521C44.5473 12.7992 40.9422 13.54 40.9422 13.54C37.6553 14.4421 35.4832 16.1372 34.2379 18.1514C32.9918 20.1657 32.6743 22.8687 32.5685 25.0947H40.5453C40.5453 25.0947 40.4395 22.3916 41.5524 21.2787C42.6654 20.1657 44.3886 19.5819 47.6746 19.4761C47.6746 19.4761 50.5099 19.3967 52.0206 20.4303C53.5313 21.463 53.5313 22.3379 53.5842 23.1862C53.6371 24.0346 53.4784 24.9888 53.2667 25.2278C53.0542 25.4659 52.682 25.8893 51.8362 26.0224L44.5473 27.5596C40.9166 28.2219 39.4067 28.6981 37.0476 29.4945C34.6886 30.2899 32.6222 32.9665 32.0914 34.0522C31.5605 35.137 30.6601 37.7913 31.2174 40.3604C31.7739 42.9311 32.8331 45.1331 34.9805 46.695C37.127 48.2569 39.1942 49.1591 42.2147 49.4518C45.237 49.742 47.5696 49.1335 48.2054 48.9201C48.8413 48.7067 51.1722 48.07 53.5586 45.8193V49.0003H63.443V48.9995ZM50.5107 41.4998C47.1701 43.6455 43.2219 43.0369 42.4802 42.6367C41.7376 42.2432 39.6969 41.7097 39.3803 38.5595C39.3803 38.5595 39.2198 36.1987 41.1291 35.1139C41.1291 35.1139 42.242 34.397 43.7527 33.9207C45.2626 33.4436 48.3369 32.6772 49.9013 32.4621C51.465 32.2487 53.5595 31.6154 53.5595 31.6154V35.7224C53.5586 35.7224 53.8496 39.3524 50.5107 41.4998Z" fill="black"/>
</svg>
