<svg width="120" height="61" viewBox="0 0 120 61" fill="none" xmlns="http://www.w3.org/2000/svg">
<path fill-rule="evenodd" clip-rule="evenodd" d="M40.9515 20.548C47.2406 21.6462 53.6131 22.197 59.9974 22.1942C66.4955 22.1942 72.8619 21.6295 79.0494 20.5466L79.1457 21.0423C72.8537 22.402 66.4345 23.0857 59.9974 23.0819C53.562 23.0863 47.1446 22.4031 40.8545 21.0437L40.9515 20.548Z" fill="black"/>
<path fill-rule="evenodd" clip-rule="evenodd" d="M87.1351 23.5243C78.2173 25.4469 69.1201 26.4137 59.9974 26.4085C50.6861 26.4085 41.5906 25.4136 32.8604 23.5243L32.9594 23.0307C41.876 24.6923 50.9272 25.5263 59.9974 25.5222C69.0675 25.5255 78.1186 24.6915 87.0354 23.0307L87.1351 23.5243ZM71.4547 18.6546C67.6797 19.3879 63.8429 19.756 59.9974 19.7539C56.1521 19.7564 52.3154 19.3883 48.5408 18.6546L48.6206 18.1576C52.3473 18.626 56.1437 18.8677 59.9974 18.8677C63.8511 18.8677 67.6331 18.626 71.3748 18.1576L71.4547 18.6546ZM54.9181 6.16767C54.9181 3.30539 56.7527 1.52808 59.0155 1.52808C61.253 1.52808 63.0413 3.27808 63.0413 5.65489H62.7948C62.7948 3.71712 61.3295 2.27574 59.5017 2.27574C57.6424 2.27574 56.1348 3.70346 56.1348 6.18474V15.9296H54.9181V6.16767Z" fill="black"/>
<path fill-rule="evenodd" clip-rule="evenodd" d="M54.9275 2.99679C55.3674 2.3128 55.9725 1.75061 56.687 1.36207C57.4014 0.97353 58.2022 0.771153 59.0154 0.773607C61.6913 0.773607 63.8598 2.70319 63.8598 6.16769V15.9289H65.0773V6.08712C65.0773 2.23957 62.525 0 59.5678 0C58.5762 0.000187472 57.6032 0.269347 56.7525 0.778806C55.9018 1.28827 55.2053 2.01894 54.737 2.89301L54.9275 2.99679ZM60.3148 58.3586L62.2942 55.7728V58.3586H60.3148ZM59.8703 58.9123H62.2942V60.4418H63.1648V58.9123H64.0381V58.3586H63.1648V54.9617H62.637L59.8703 58.5183V58.9123ZM69.0996 57.3016C68.5793 57.0298 67.6849 56.8038 67.6849 56.1402C67.6849 55.5386 68.1744 55.2491 68.8087 55.2491C69.4103 55.2491 69.8357 55.5625 69.8357 56.1477C69.8357 56.6837 69.5837 57.0292 69.0996 57.3016ZM68.2024 57.7734C68.9078 58.0868 69.8439 58.319 69.8439 59.1841C69.8439 59.832 69.3413 60.2909 68.6087 60.2909C67.8822 60.2909 67.45 59.832 67.45 59.1841C67.45 58.5668 67.6726 58.1428 68.2024 57.7734ZM69.2649 57.3651C69.8118 57.1493 70.472 56.797 70.472 56.1873C70.472 55.4178 69.512 55.034 68.7889 55.034C67.8685 55.034 66.8778 55.4744 66.8778 56.3634C66.8778 57.077 67.3619 57.3972 68.0058 57.6928C67.3537 58.0301 66.7563 58.39 66.7563 59.152C66.7563 60.0963 67.6473 60.5053 68.4831 60.5053C69.6657 60.5053 70.6619 60 70.6619 58.9676C70.6625 58.1189 70.0665 57.7017 69.2649 57.3651ZM51.3012 60.4418V60.282C50.8301 60.282 50.7051 60.2342 50.7051 59.8887V55.0347H50.5549C50.3432 55.2191 49.842 55.6991 48.9517 55.8602V56.0282C49.4453 56.0685 49.683 56.0685 49.7628 56.1961C49.8154 56.2842 49.8339 56.4365 49.8339 56.6925V59.8894C49.8339 60.2349 49.6427 60.2827 49.1852 60.2827V60.4424L51.3012 60.4418ZM57.6498 55.1064H55.7073C55.4874 55.1064 55.258 55.1064 55.0286 55.0907C54.8435 55.0825 54.7814 55.0668 54.7814 54.8667H54.6414L54.0931 56.3737H54.287L54.3676 56.1497C54.4311 55.9749 54.5308 55.8629 54.709 55.8629H57.0537L55.3297 59.3131C55.0129 59.9372 54.7834 60.4028 54.7834 60.4349C54.7834 60.5947 55.0217 60.5872 55.1446 60.5872C55.4799 60.5872 55.6151 60.4588 55.712 60.211L57.6512 55.3235V55.1064H57.6498ZM1.21538 49.4706H53.013V49.9718H1.21538V49.4706ZM58.6583 49.4706H120V49.9718H58.6583V49.4706ZM52.5411 42.6734C52.5411 40.3532 50.9086 38.8115 48.514 38.8115C46.1194 38.8115 44.4862 40.4277 44.4862 42.6734C44.4862 44.9136 46.1188 46.5353 48.514 46.5353C50.7372 46.5353 52.5411 44.887 52.5411 42.6734ZM50.8294 42.6734C50.8294 44.5722 50.0373 46.1208 48.5133 46.1208C46.9395 46.1208 46.1973 44.5872 46.1973 42.6734C46.1973 40.7691 46.9982 39.2259 48.5133 39.2259C50.1541 39.2259 50.8294 40.754 50.8294 42.6734ZM83.637 40.5396H84.4222C86.5 40.5396 88.3524 40.7172 88.3524 43.2176C88.3524 44.9751 87.3173 45.9378 85.172 45.9378C84.2543 45.9378 83.637 45.7842 83.637 44.9V40.5396ZM83.637 35.0547C83.8077 35.0493 84.0795 35.0547 84.2468 35.0547C87.0114 35.0547 87.6608 36.1629 87.6608 37.5019C87.6608 39.3741 86.2002 40.061 84.5172 40.061H83.637V35.0547ZM80.3924 46.3475C81.8153 46.3475 83.2806 46.4158 84.7595 46.4158C85.9572 46.4158 87.4682 46.3318 88.5347 45.7705C89.8259 45.0905 90.3004 44.1755 90.3004 43.1343C90.3004 41.4498 89.0441 40.2419 87.2477 40.0378C88.689 39.6472 89.4893 38.7439 89.4893 37.3489C89.4893 36.4476 88.9464 35.5129 88.0479 35.1046C86.9062 34.5939 85.7503 34.559 84.498 34.5768C83.0935 34.5938 81.7389 34.5939 80.3917 34.6116V34.9687C81.14 35.0875 81.7757 34.9168 81.7757 35.7846V45.2598C81.7757 45.9569 81.0274 45.9569 80.3917 45.9918V46.3475H80.3924ZM100.508 42.6734C100.508 40.3532 98.8757 38.8115 96.4811 38.8115C94.0865 38.8115 92.454 40.4277 92.454 42.6734C92.454 44.9136 94.0865 46.5353 96.4811 46.5353C98.705 46.5353 100.508 44.887 100.508 42.6734ZM98.7971 42.6734C98.7971 44.5722 98.0051 46.1208 96.4804 46.1208C94.9066 46.1208 94.1637 44.5872 94.1637 42.6734C94.1637 40.7691 94.9653 39.2259 96.4804 39.2259C98.1225 39.2259 98.7971 40.754 98.7971 42.6734ZM0 34.968C0.355737 34.968 0.858957 35.0896 1.18533 35.4071C1.50761 35.7205 1.75888 36.3541 2.14671 37.2984L5.95398 46.5872H6.57464L10.2071 37.1625C10.6339 36.0557 11.0695 34.9687 12.3251 34.9687V34.6116H8.36835V34.9687C8.78827 34.9687 9.36659 34.9325 9.67522 35.4965C9.84387 35.8044 9.79812 36.449 9.35157 37.6555L6.97339 44.0861H6.93584L3.99367 36.7037C3.95339 36.6026 3.74514 35.9861 3.82024 35.6501C3.93768 35.1196 4.58497 34.9687 5.20973 34.9687V34.6116H0V34.968ZM20.5924 34.4573C19.769 34.6949 18.7455 35.0363 17.866 35.2398V35.4439C18.2586 35.461 18.5024 35.5627 18.6704 35.6986C18.9319 35.9376 18.9319 36.3452 18.9319 36.7706V45.0898C18.9319 45.974 18.6888 45.974 17.8469 46.0245V46.3475H21.6207V46.0245C20.8348 45.974 20.5918 45.974 20.5918 45.0898L20.5924 34.4573ZM25.9776 34.4573C25.1549 34.6949 24.1307 35.0363 23.2512 35.2398V35.4439C23.6445 35.461 23.8876 35.5627 24.0563 35.6986C24.3178 35.9376 24.3178 36.3452 24.3178 36.7706V45.0898C24.3178 45.974 24.0754 45.974 23.2328 46.0245V46.3475H27.0066V46.0245C26.2207 45.974 25.977 45.974 25.977 45.0898L25.9776 34.4573ZM41.4655 46.3475V46.0245C40.5116 45.974 40.2679 45.974 40.2679 45.0898V41.8049C40.2679 40.4154 40.9718 39.6616 41.5256 39.6616C42.0117 39.6616 42.1988 40.3321 42.7656 40.3321C43.1582 40.3321 43.5371 40.0323 43.5371 39.5653C43.5371 39.0109 42.967 38.692 42.4242 38.692C41.275 38.692 40.4939 39.7005 40.2303 40.2201V38.7596C39.4629 39.0313 38.5636 39.3891 37.777 39.6274V39.7968C38.4318 40.0863 38.6381 40.1211 38.6381 40.7834V45.0884C38.6381 45.9726 38.395 45.9726 37.5906 46.0232V46.3461H41.4655V46.3475ZM109.303 44.3018C108.834 45.143 108.015 45.8928 106.928 45.8928C104.918 45.8928 104.405 44.138 104.405 42.5737C104.405 41.2122 104.805 39.2266 106.532 39.2266C107.284 39.2266 107.938 39.7012 107.938 40.4092C107.938 40.8442 108.239 41.2614 108.69 41.2614C109.093 41.2614 109.428 40.9664 109.413 40.5642C109.371 39.4547 107.993 38.8122 106.514 38.8122C104.138 38.8122 102.619 40.4898 102.619 42.7478C102.619 44.8228 104.067 46.5366 106.343 46.5366C107.873 46.5366 109.01 45.7057 109.584 44.3886L109.303 44.3018ZM114.622 46.3475V46.0245C113.835 45.974 113.592 45.974 113.592 45.0898V40.5806C114.034 40.0897 114.471 39.5086 115.556 39.5086C116.595 39.5086 117.153 40.3594 117.153 41.4901V45.0891C117.153 45.9733 116.91 45.9733 116.142 46.0239V46.3468H119.879V46.0239C119.056 45.9733 118.813 45.9733 118.813 45.0891V41.6697C118.813 39.2437 117.085 38.8101 116.158 38.8101C114.998 38.8101 114.3 39.3434 113.592 40.0187V34.4566C112.786 34.7461 111.783 35.0179 110.978 35.3238V35.461C111.464 35.5621 111.931 35.7157 111.931 36.2428V45.0898C111.931 45.974 111.689 45.974 110.846 46.0245V46.3475H114.622ZM16.0416 46.3475V46.0245C15.2557 45.974 15.0126 45.974 15.0126 45.0898V38.7275C14.1707 39.017 13.1172 39.3222 12.3122 39.6288V39.7981C12.5744 39.8329 12.7423 39.8486 12.9854 39.9688C13.3227 40.173 13.3227 40.6489 13.3227 41.0067V45.0898C13.3227 45.974 13.0796 45.974 12.2378 46.0245V46.3475H16.0416ZM13.1254 36.5118C13.1254 36.2559 13.227 36.0105 13.408 35.8296C13.5889 35.6487 13.8343 35.547 14.0902 35.547C14.3461 35.547 14.5915 35.6487 14.7724 35.8296C14.9533 36.0105 15.055 36.2559 15.055 36.5118C15.055 36.7677 14.9533 37.0131 14.7724 37.194C14.5915 37.375 14.3461 37.4766 14.0902 37.4766C13.8343 37.4766 13.5889 37.375 13.408 37.194C13.227 37.0131 13.1254 36.7677 13.1254 36.5118ZM30.7695 41.1835H34.2525C34.2525 39.8992 33.4823 39.23 32.7059 39.23C31.8217 39.23 31.0884 39.9859 30.7695 41.1835ZM30.663 41.6956C30.6194 41.986 30.5979 42.2793 30.5988 42.573C30.5988 44.3585 31.229 45.8921 33.2126 45.8921C34.0135 45.8921 35.1032 45.2919 35.6413 44.3012L35.9594 44.3865C35.5764 45.3363 34.5017 46.5346 32.725 46.5346C30.5135 46.5346 28.8119 45.042 28.8119 42.7457C28.8119 40.5615 30.3325 38.8101 32.6527 38.8101C34.3733 38.8101 35.8126 39.7851 35.9198 41.6949L30.663 41.6956ZM57.0449 47.9131L57.6423 46.5353L54.6906 40.2057C54.47 39.7339 54.2249 39.3215 53.5346 39.3215V38.9986H57.4443V39.3215C57.0701 39.3215 56.6741 39.327 56.5532 39.6534C56.5034 39.7892 56.4932 40.0214 56.6167 40.3082L58.4767 44.6105L60.1639 40.7165C60.3209 40.3539 60.4295 39.8964 60.2683 39.6445C60.0471 39.299 59.5371 39.3215 59.2223 39.3215V38.9986H62.2935V39.3215C61.3963 39.3215 61.1362 39.82 60.9027 40.3594L57.4962 48.2197C57.1541 49.0077 56.7246 50.0052 55.6581 50.0052C55.2464 50.0052 54.8865 49.6823 54.8865 49.3252C54.8865 48.9169 55.1487 48.6451 55.5973 48.628C55.8035 48.6451 55.9906 48.7134 56.1968 48.7291C56.6502 48.768 56.894 48.2621 57.0449 47.9131ZM70.1361 40.1088C70.9097 39.4246 71.1589 38.8818 71.2095 38.283C71.288 37.3523 70.7964 37.0239 70.244 37.0239C69.6786 37.0239 69.3236 37.6241 69.3236 37.9764C69.3236 38.5124 69.4915 38.8688 69.7981 39.4793C69.8801 39.6418 69.9948 39.8582 70.1361 40.1088ZM71.6533 44.9321C70.8025 43.9092 69.8746 42.4836 69.2369 41.4204C68.5623 42.0752 68.113 42.8543 68.113 43.774C68.113 44.986 68.9986 45.7248 69.9251 45.7248C70.6038 45.7255 71.1944 45.3615 71.6533 44.9321L72.9922 43.9529C72.9407 44.0507 72.8861 44.1468 72.8284 44.2411C72.9165 44.349 73.0018 44.4493 73.0817 44.5401C73.63 45.1512 74.2315 45.5896 75.0925 45.5896C75.5363 45.5896 75.9686 45.4373 76.3434 44.9225L76.5517 45.1041C76.1078 45.7432 75.3677 46.5353 74.4671 46.5353C73.4511 46.5353 72.7546 46.1222 72.136 45.4776L71.9974 45.3294C71.3358 46.0136 70.4748 46.5353 69.4465 46.5353C67.3728 46.5353 66.6443 45.1403 66.6443 44.0574C66.6443 42.6065 67.9457 41.6874 68.9767 40.9807C68.8164 40.7114 68.6656 40.4365 68.5247 40.1566C68.3301 39.7606 68.0502 39.0819 68.0502 38.6374C68.0502 37.4759 68.8914 36.6409 70.2119 36.6409C71.5618 36.6409 72.2869 37.3489 72.2111 38.3588C72.1442 39.2334 71.219 39.9149 70.3724 40.5219C70.9575 41.5317 71.8076 42.8905 72.5286 43.8546C72.5751 43.7788 72.614 43.7133 72.642 43.6641C72.9581 43.1015 73.4074 42.2719 73.4074 41.4491C73.4074 40.9213 73.0742 40.7691 72.5887 40.7691V40.4905H75.4223V40.7691C74.4766 40.7827 74.0472 41.5986 73.7556 42.3668C73.5767 42.8352 73.2019 43.5644 72.9929 43.9536L71.6533 44.9321Z" fill="black"/>
</svg>
