<svg width="121" height="18" viewBox="0 0 121 18" fill="none" xmlns="http://www.w3.org/2000/svg">
<path d="M52.1747 0.00274545L47.7155 17.8319H55.5939L60.0509 0.00274545H52.1747ZM33.0587 0L22.9252 17.8291H28.1365L29.8184 14.857H37.0527L37.5914 17.8291H45.2827L42.0133 0H33.0587ZM34.1794 10.3353H32.3724L35.2858 5.19262L36.231 10.3353H34.1794ZM88.1566 0.00274545L83.7095 17.8319H91.5862L96.0366 0.00274545H88.1566ZM84.636 0.00274545H76.5624L69.8047 5.83497L71.2792 0.00274545H63.7278L59.2796 17.8319H66.808L68.3456 11.6765L72.3709 17.8319H81.4829L74.734 8.49491L84.636 0.00274545ZM16.3426 0.0109734L14.3052 0.00439021H4.44659L0 17.8269H9.78842L13.6618 17.8319C19.1144 17.8319 24.4809 13.7742 24.4809 7.55688C24.4798 0.240816 16.3426 0.0109734 16.3426 0.0109734ZM16.7425 8.10489C16.7425 8.10489 16.2306 13.8965 11.2958 13.8965H8.5037L10.9629 4.27982H13.4967C14.4034 4.2864 17.0277 4.52064 16.7425 8.10489ZM114.852 0L112.223 10.4988L108.723 0H99.9616L95.5106 17.8319H100.959L103.612 7.24147L107.123 17.8319H115.847L120.306 0H114.852Z" fill="black"/>
</svg>
