<svg width="150" height="42" viewBox="0 0 150 42" fill="none" xmlns="http://www.w3.org/2000/svg">
<g clip-path="url(#clip0_169_3018)">
<path d="M0.0539551 21C0.0539551 9.39671 33.613 0 75 0C116.387 0 149.946 9.39671 149.946 21C149.946 32.6033 116.387 42 75 42C33.613 42 0.0539551 32.6033 0.0539551 21Z" fill="black"/>
<path d="M35.3691 28.6855L39.9082 18.5082C39.9082 18.5082 41.1285 15.446 43.9859 15.446H55.1028L53.4806 18.9886H45.1318C45.1318 18.9886 44.2686 18.7634 43.7775 19.7841L39.7891 28.6855H35.3691ZM115.018 28.6855H130.287C130.287 28.6855 132.549 28.7605 133.814 25.9986C134.841 23.762 135.228 22.6061 135.228 22.6061C135.228 22.6061 135.853 20.4596 133.769 20.4596H123.233C123.233 20.4596 122.846 18.9435 125.257 18.9435H136.88L138.472 15.446H123.501C123.501 15.446 120.837 15.4911 119.914 17.5475C119.036 19.5139 118.113 21.3302 118.113 21.3302C118.113 21.3302 117.22 23.747 119.706 23.747H130.242C130.242 23.747 129.855 25.248 128.397 25.248H116.432L115.018 28.6855ZM101.55 15.461L97.0851 25.7584C97.0851 25.7584 95.582 28.6855 98.7221 28.6855H110.628C110.628 28.6855 113.113 28.8656 114.467 25.8034C115.822 22.7412 118.872 15.461 118.872 15.461H114.408L110.613 24.1823C110.613 24.1823 110.36 25.2931 109.348 25.2931H102.636C102.636 25.2931 101.684 25.2931 102.204 24.1072L105.97 15.461H101.55ZM97.2041 10.5976H101.49L99.9871 14.1251H95.7159L97.2041 10.5976ZM95.076 15.446H99.3174L93.4538 28.7005H89.1678L95.076 15.446ZM69.5384 28.6855L75.387 15.431H89.5994C89.5994 15.431 92.7246 15.2209 91.4001 18.2981C90.1947 21.0751 86.742 28.6855 86.742 28.6855H82.2774L86.3402 19.6941C86.3402 19.6941 86.742 18.9886 85.4473 18.9886H78.2741L73.8244 28.6855H69.5384ZM58.3917 15.431C55.5343 15.431 54.5075 18.4932 54.5075 18.4932L50.9953 26.3588C50.9953 26.3588 49.8047 28.6855 53.2127 28.6855H64.404C64.404 28.6855 66.9786 28.9557 68.2585 26.1036C69.5532 23.2366 71.9046 18.0729 71.9046 18.0729C71.9046 18.0729 73.1101 15.431 70.9224 15.431H58.3917ZM59.3144 18.9736C59.5227 18.9585 59.6567 19.0036 59.6567 19.0036H66.4578C67.1126 19.0036 66.7703 19.8292 66.7703 19.8292C66.7703 19.8292 64.9398 23.9421 64.5826 24.6626C64.2106 25.3831 63.3921 25.218 63.3921 25.218H57.0672C55.8766 25.218 56.3528 24.3924 56.3528 24.3924L58.1238 20.0393C58.481 19.1987 58.987 19.0036 59.3144 18.9736ZM14.6533 28.6855L21.8116 12.0236C21.8116 12.0236 23.0617 8.87134 25.7256 8.87134H43.3906L41.8577 12.3838H27.0501C27.0501 12.3838 26.3655 12.2638 25.9488 13.0743C25.5321 13.8849 20.502 25.233 20.502 25.233H21.9753L25.1005 18.4482C25.1005 18.4482 26.3357 15.461 29.0443 15.461H40.4588L38.9557 18.9435L30.1455 18.9886C30.1455 18.9886 29.4014 18.6133 28.6127 20.2645C27.9132 21.7355 24.8178 28.6855 24.8178 28.6855H14.6533Z" fill="white"/>
</g>
<defs>
<clipPath id="clip0_169_3018">
<rect width="150" height="42" fill="white"/>
</clipPath>
</defs>
</svg>
