<svg width="150" height="30" viewBox="0 0 150 30" fill="none" xmlns="http://www.w3.org/2000/svg">
<g clip-path="url(#clip0_169_3047)">
<path d="M35.0008 23.9069H44.3102C50.9009 23.9069 54.1075 18.7517 54.1075 11.8214C54.1075 3.88722 49.9048 0 44.3137 0H35.0042V23.9069H35.0008ZM39.7459 4.42219H43.1333C47.8478 4.42219 49.3624 7.5 49.3624 12.3217C49.3624 17.6123 46.7323 19.4882 43.9793 19.4882H39.7459V4.42219ZM57.0003 23.9069H61.2917V6.5968H57.0003V23.9069ZM57.0003 3.91848H61.2917V0.00347383H57.0003V3.91848ZM64.7303 23.9069H69.0251V13.8641C69.0251 10.4805 71.0821 9.87957 71.9281 9.87957C74.6504 9.87957 74.5275 12.1897 74.5275 14.1975V23.9069H78.819V14.2635C78.819 12.0889 79.2727 9.87957 81.6913 9.87957C84.1372 9.87957 84.3214 11.7867 84.3214 14.0968V23.9069H88.6128V12.3217C88.6128 7.83696 86.2249 6.12784 82.8989 6.12784C80.7225 6.12784 79.0919 7.5 78.1845 9.00764C77.3385 6.93029 75.5851 6.12784 73.6201 6.12784C71.5938 6.12784 69.9632 7.16651 68.8443 8.94164H68.7829V6.5968H64.7303V23.9069ZM91.9252 30H96.2166V21.7635H96.278C97.3048 23.4727 99.0889 24.3759 100.965 24.3759C105.529 24.3759 107.829 20.0544 107.829 15.4342C107.829 10.5118 105.622 6.12784 100.723 6.12784C98.7887 6.12784 97.0967 6.96503 96.0665 8.80616H96.0051V6.5968H91.9252V30ZM99.8155 20.7909C97.0353 20.7909 96.0665 18.1126 96.0665 15.2987C96.0665 12.4884 96.9739 9.70936 99.7848 9.70936C102.538 9.70936 103.534 12.5544 103.534 15.2987C103.534 18.116 102.626 20.7909 99.8155 20.7909ZM110.445 23.9069H114.737V0.00347383H110.445V23.9069ZM132.868 16.4069C133.171 11.0815 130.599 6.12784 125.277 6.12784C120.532 6.12784 117.298 10.0811 117.298 15.2675C117.298 20.6241 120.352 24.3759 125.277 24.3759C128.818 24.3759 131.387 22.6355 132.598 18.5503H128.818C128.546 19.6237 127.154 20.7944 125.431 20.7944C123.043 20.7944 121.713 19.4222 121.59 16.4104L132.868 16.4069ZM121.59 13.3916C121.651 12.0542 122.439 9.70936 125.158 9.70936C127.242 9.70936 128.18 10.9808 128.576 13.3916H121.59ZM133.707 23.9069H138.513L141.778 18.4495L145.046 23.9069H149.945L144.169 14.7013L149.31 6.60028H144.562L141.839 11.1163L139.086 6.5968H134.191L139.329 14.7985L133.707 23.9069ZM0.058839 11.9257C0.058391 11.2277 0.192948 10.5365 0.454828 9.89145C0.716708 9.24643 1.10078 8.66026 1.58512 8.1664C2.06946 7.67254 2.64458 7.28066 3.27764 7.01313C3.9107 6.74561 4.58931 6.60768 5.27472 6.60723C5.96013 6.60677 6.63891 6.74379 7.27232 7.01047C7.90572 7.27715 8.48134 7.66827 8.96631 8.16149C9.45129 8.6547 9.83611 9.24036 10.0988 9.88503C10.3615 10.5297 10.497 11.2207 10.4974 11.9187C10.4983 13.3283 9.94931 14.6806 8.97114 15.678C7.99297 16.6754 6.66578 17.2362 5.28154 17.2371C3.8973 17.2381 2.56939 16.679 1.58995 15.6829C0.6105 14.6868 0.0597438 13.3353 0.058839 11.9257Z" fill="black"/>
<path d="M16.8833 11.9256C16.8828 10.9947 17.0625 10.0728 17.412 9.21264C17.7616 8.35245 18.2741 7.57082 18.9203 6.9124C19.5666 6.25398 20.3339 5.73167 21.1784 5.37532C22.023 5.01897 22.9282 4.83555 23.8423 4.83555L28.4885 4.8425L28.4851 0.107666H23.8423C20.0421 0.107666 16.6786 1.98006 14.5602 4.85639C13.4838 3.38256 12.0839 2.18554 10.4722 1.361C8.86046 0.536451 7.0817 0.107241 5.27804 0.107666H0.638665L0.635254 4.8425L5.27804 4.83555C6.19214 4.83555 7.09729 5.0189 7.9418 5.37512C8.78632 5.73134 9.55367 6.25347 10.2 6.91168C10.8464 7.56989 11.3591 8.35131 11.7089 9.21131C12.0588 10.0713 12.2388 10.993 12.2388 11.9239C12.2388 12.8548 12.0588 13.7765 11.7089 14.6365C11.3591 15.4965 10.8464 16.2779 10.2 16.9361C9.55367 17.5943 8.78632 18.1165 7.9418 18.4727C7.09729 18.8289 6.19214 19.0123 5.27804 19.0123H0.638665V23.7367H5.27804C7.08127 23.7367 8.85957 23.3076 10.4711 22.4838C12.0827 21.6599 13.4829 20.464 14.5602 18.9914C15.6375 20.464 17.0377 21.6599 18.6492 22.4838C20.2608 23.3076 22.0391 23.7367 23.8423 23.7367H28.4851V19.0123H23.8423C21.9967 19.0123 20.2266 18.2656 18.9215 16.9366C17.6165 15.6076 16.8833 13.8051 16.8833 11.9256Z" fill="black"/>
</g>
<defs>
<clipPath id="clip0_169_3047">
<rect width="150" height="30" fill="white"/>
</clipPath>
</defs>
</svg>
