<svg width="150" height="36" viewBox="0 0 150 36" fill="none" xmlns="http://www.w3.org/2000/svg">
<path fill-rule="evenodd" clip-rule="evenodd" d="M18.9553 0H131.044C141.47 0 150 8.04087 150 17.8681V17.8697C150 27.6977 141.47 35.7369 131.044 35.7369H18.9553C8.52994 35.7369 0 27.6977 0 17.8697V17.8681C0 8.04087 8.52994 0 18.9553 0Z" fill="black"/>
<path fill-rule="evenodd" clip-rule="evenodd" d="M61.1727 7.75205H67.0689L70.4218 3.07056H64.5257L61.1727 7.75205ZM13.5914 21.3555C18.0508 21.6402 22.5102 21.6418 26.9696 19.663C26.5839 15.2589 27.3215 11.4169 29.1816 8.13849C33.0782 2.78192 35.4314 1.93686 36.2387 5.60011C35.5821 11.1828 33.8447 15.1395 31.4995 18.183L33.1848 19.9805C36.9739 15.2213 41.0453 10.5334 47.0882 6.34014C51.1611 4.3646 55.7264 3.87232 60.3605 3.5917L55.0938 12.6853C42.8958 12.9603 36.6308 20.2924 32.0263 29.6025C30.5158 27.4177 29.006 25.2321 27.4971 23.0473C20.2572 30.4539 14.4605 30.0218 8.64209 29.7091C10.2905 26.9238 11.9413 24.1393 13.5914 21.3555ZM30.6553 16.9138C29.6202 15.8571 29.0229 14.2712 29.3909 11.5211C31.1123 8.84324 32.5522 8.56102 33.71 10.6753C33.1135 13.1776 32.0952 15.2581 30.6553 16.9138ZM41.8206 23.364C47.6686 21.8655 53.038 18.7354 57.8318 13.6354L63.8354 13.742L58.6736 21.4598C58.284 24.3533 60.2146 25.1286 64.4672 23.7865C65.568 19.4361 67.6766 15.7616 72.5778 13.9521C76.302 13.3507 78.5493 13.8102 79.3198 15.3271L76.16 19.0272C72.3813 18.0747 71.0793 19.4425 70.4716 21.459C70.5124 25.5664 75.5587 25.2064 81.321 24.209C82.5709 19.9212 84.5938 16.7542 87.7463 15.2213C95.2332 11.6133 97.6513 14.0563 97.3314 19.768C99.3687 19.9092 100.772 19.5219 101.544 18.6047C103.614 14.4195 106.212 10.6304 109.972 7.71436C113.547 5.25937 115.672 4.65885 114.607 8.13689C111.516 15.372 107.706 17.5303 103.968 20.1906C103.681 24.7775 106.559 26.0819 112.605 24.1024C114.305 18.1485 117.636 12.7133 123.347 8.03106C127.002 4.95951 128.652 4.85448 128.299 7.71436C125.934 13.2794 122.763 17.8013 118.924 21.459C118.981 24.3421 121.482 25.568 129.353 23.1499C133.262 24.3621 137.237 25.1118 141.361 24.8424C140.237 26.4988 139.112 28.1545 137.99 29.8109C136.339 30.6343 134.689 30.1573 133.039 29.4942C130 27.8498 126.704 27.3255 123.033 28.4375C118.173 31.8875 114.825 30.9181 112.499 26.9558C106.621 30.7442 101.619 32.8127 99.7543 28.7534L99.6493 22.4099H96.9104C91.4408 33.7989 83.1707 32.6139 81.9528 25.8991C69.5808 32.4744 65.3347 31.1859 64.7839 26.3216C51.8498 33.1021 46.9342 32.3613 50.037 24.1008C47.3335 24.4183 44.63 24.735 41.9272 25.0533L41.8206 23.364ZM93.0532 23.2124C89.2007 25.7604 85.4412 23.8955 86.9902 20.0888C88.334 18.2471 89.9407 17.4045 92.136 18.7675C91.7511 19.4754 91.3639 20.1834 90.979 20.8889L93.0532 23.2124ZM105.173 16.3373C105.691 16.8224 107.4 15.8474 108.977 14.1661C110.556 12.4848 111.422 10.7178 110.903 10.2327C110.386 9.74763 108.678 10.7226 107.099 12.4039C105.522 14.0852 104.655 15.8522 105.173 16.3373ZM117.82 18.1717C118.435 18.7514 120.474 17.5873 122.356 15.5829C124.238 13.5768 125.27 11.4714 124.653 10.8917C124.036 10.3121 121.998 11.4762 120.117 13.4806C118.236 15.4858 117.203 17.5921 117.82 18.1717Z" fill="white"/>
</svg>
