<svg width="150" height="20" viewBox="0 0 150 20" fill="none" xmlns="http://www.w3.org/2000/svg">
<g clip-path="url(#clip0_169_3057)">
<path d="M111.782 11.3016H112.046C112.613 11.3016 113.153 11.2562 113.473 11.221L115.655 15.0007H117.605L115.194 10.8253C115.804 10.4701 116.857 9.43189 116.857 8.09638C116.857 5.27166 114.465 5.00708 112.618 5.00708H110.099V15.0007H111.782V11.3016ZM111.782 6.54921H112.974C114.413 6.54921 115.163 7.0053 115.163 8.1871C115.163 8.94304 114.347 9.83758 112.855 9.83758H111.782V6.54921Z" fill="black"/>
<path d="M144.174 11.3016H144.439C145.006 11.3016 145.545 11.2562 145.865 11.221L148.047 15.0007H149.998L147.586 10.8253C148.196 10.4701 149.249 9.43189 149.249 8.09638C149.249 5.27166 146.858 5.00708 145.011 5.00708H142.491V15.0007H144.182L144.174 11.3016ZM144.174 6.54921H145.366C146.805 6.54921 147.556 7.0053 147.556 8.1871C147.556 8.94304 146.739 9.83758 145.248 9.83758H144.174V6.54921Z" fill="black"/>
<path d="M87.9849 14.998V5.00439H91.059C93.0749 5.00439 94.7556 5.65199 94.7556 7.42091C94.7556 8.78413 93.8712 9.30825 93.279 9.57283C94.2416 9.8097 95.3201 10.4573 95.3201 12.1733C95.3201 13.8893 93.9543 14.998 91.5605 14.998H87.9849ZM91.18 9.01847C92.2887 9.01847 92.9741 8.71357 92.9741 7.7888C92.9741 6.78087 92.3013 6.54904 91.3765 6.54904H89.6731V9.01847H91.18ZM91.8755 13.4685C92.9842 13.4685 93.536 12.9267 93.536 12.0019C93.536 10.9789 92.9842 10.4573 91.8226 10.4573H89.6832V13.4685H91.8755Z" fill="black"/>
<path d="M54.9977 14.998V11.115L51.47 5.00439H53.4203L55.8696 9.24525L58.2634 5.00439H60.2163L56.6885 11.115V14.998H54.9977Z" fill="black"/>
<path d="M38.5862 15.0006L37.7975 9.73923L34.5343 15.3862L31.2711 9.74175L30.4799 15.0006H28.6707L30.3287 4.73486L34.5267 12.0046L38.7399 4.73486L40.3954 15.0107L38.5862 15.0006Z" fill="black"/>
<path d="M73.914 11.3016H74.166C74.733 11.3016 75.2747 11.2562 75.5947 11.221L77.7744 15.0007H79.7273L77.3158 10.8253C77.9256 10.4701 78.9763 9.43189 78.9763 8.09638C78.9763 5.27166 76.5876 5.00708 74.738 5.00708H72.2207V15.0007H73.909L73.914 11.3016ZM73.914 6.54921H75.1084C76.5472 6.54921 77.2981 7.0053 77.2981 8.1871C77.2981 8.94304 76.4817 9.83758 74.99 9.83758H73.914V6.54921Z" fill="black"/>
<path d="M125.757 11.183V9.74422H130.089C130.048 13.6399 127.659 15.2374 125.19 15.2374C122.166 15.2374 119.79 12.9394 119.79 10.0491C119.789 9.34821 119.928 8.6542 120.199 8.0078C120.47 7.36141 120.868 6.77563 121.368 6.28486C121.869 5.79408 122.462 5.40818 123.113 5.14979C123.765 4.89141 124.462 4.76574 125.162 4.78017C127.579 4.78017 128.927 6.04008 129.005 6.11315L128.148 7.37307C128.08 7.28235 127.024 6.30466 125.19 6.30466C123.01 6.30466 121.587 7.94255 121.587 10.0542C121.583 11.0167 121.962 11.9413 122.64 12.6245C123.318 13.3078 124.24 13.6938 125.203 13.6978C126.906 13.6978 128.201 12.6294 128.32 11.178L125.757 11.183Z" fill="black"/>
<path d="M43.4268 15.0005V5.00439H49.3483V6.54149H45.1201V8.92272H48.5017V10.4598H45.1201V13.4634H49.7943V15.0005H43.4268Z" fill="black"/>
<path d="M104.742 5.00439V10.4044C104.742 12.7629 104.343 13.7053 102.582 13.7053C100.821 13.7053 100.042 12.7629 100.042 10.4044V5.00439H98.3513V11.3291C98.3513 13.9296 100.002 15.2374 102.582 15.2374C105.162 15.2374 106.432 13.9296 106.432 11.3291V5.00439H104.742Z" fill="black"/>
<path d="M62.7285 15.0005V5.00439H68.6501V6.54149H64.4244V8.92272H67.8034V10.4598H64.4244V13.4634H69.086V15.0005H62.7285Z" fill="black"/>
<path d="M133.1 15.0005V5.00439H139.021V6.54149H134.795V8.92272H138.175V10.4598H134.795V13.4634H139.46V15.0005H133.1Z" fill="black"/>
<path d="M7.68798 18.1629L1.60009 16.5326L4.17283 12.075L3.56303 11.0217L0 17.1953L8.43385 19.4531L7.68798 18.1629Z" fill="black"/>
<path d="M20.4409 2.73905L10.2331 0L0.0126953 2.73905L9.98111 19.9998L20.4535 17.1953L16.2807 9.9659L20.4409 2.73905ZM18.8408 3.40176L15.6583 8.91261L11.3116 1.38338L18.8408 3.40176ZM18.8408 16.5326L11.3116 18.5484L15.051 12.075L14.4412 11.0343L10.2331 18.3418L5.4026 9.97346L9.6233 2.66597L9.46959 2.39887L8.39362 2.68865L4.7928 8.92521L1.61026 3.41436L9.97859 1.17172L18.8408 16.5326Z" fill="black"/>
</g>
<defs>
<clipPath id="clip0_169_3057">
<rect width="150" height="20" fill="white"/>
</clipPath>
</defs>
</svg>
