<svg width="58" height="55" viewBox="0 0 58 55" fill="none" xmlns="http://www.w3.org/2000/svg">
<path d="M49.3424 7.68969C46.7706 5.2382 43.7383 3.34293 40.2455 2.00576C36.7528 0.668586 32.9188 0 28.7473 0C24.5758 0 20.8024 0.668586 17.284 2.00576C13.7655 3.34293 10.7222 5.2382 8.15035 7.68969C5.57848 10.1412 3.57712 13.014 2.14627 16.3083C0.715418 19.6025 0 23.2301 0 27.193C0 31.1558 0.715418 34.7235 2.14627 38.0402C3.57712 41.3588 5.57848 44.2448 8.15035 46.6962C10.7222 49.1477 13.7655 51.043 17.284 52.3802C20.8006 53.7173 24.6217 54.3859 28.7473 54.3859C32.8729 54.3859 36.7528 53.7173 40.2455 52.3802C43.7383 51.043 46.7706 49.1477 49.3424 46.6962C51.9143 44.2448 53.9156 41.3588 55.3465 38.0402C56.7774 34.7216 57.4928 31.1052 57.4928 27.193C57.4928 23.2807 56.7755 19.6025 55.3465 16.3083C53.9156 13.014 51.9143 10.1412 49.3424 7.68969ZM39.2989 32.6559C38.7174 34.2665 37.9029 35.628 36.861 36.7423C35.8172 37.8566 34.6046 38.7106 33.2215 39.3062C31.8383 39.8999 30.3469 40.1976 28.7455 40.1976C27.144 40.1976 25.6526 39.8999 24.2695 39.3062C22.8863 38.7125 21.6738 37.8566 20.63 36.7423C19.5862 35.628 18.7735 34.2665 18.192 32.6559C17.6105 31.0472 17.3188 29.2268 17.3188 27.1948C17.3188 25.1629 17.6105 23.3444 18.192 21.7338C18.7735 20.125 19.5862 18.7616 20.63 17.6473C21.6719 16.533 22.8863 15.679 24.2695 15.0835C25.6526 14.4879 27.144 14.192 28.7455 14.192C30.3469 14.192 31.8383 14.4898 33.2215 15.0835C34.6046 15.6772 35.8172 16.533 36.861 17.6473C37.9029 18.7616 38.7174 20.125 39.2989 21.7338C39.8804 23.3444 40.1721 25.1647 40.1721 27.1948C40.1721 29.2249 39.8804 31.0472 39.2989 32.6559Z" fill="white"/>
</svg>
