<svg width="46" height="55" viewBox="0 0 46 55" fill="none" xmlns="http://www.w3.org/2000/svg">
<path d="M40.3574 25.5599C38.6844 24.4212 36.8518 23.5054 34.8633 22.8106C32.8729 22.1177 30.8716 21.5727 28.8592 21.1757C26.845 20.7805 25.0014 20.4078 23.3284 20.0614C21.6554 19.7149 20.309 19.2804 19.289 18.7616C18.2709 18.241 17.7609 17.535 17.7609 16.6435C17.7609 16.0498 17.9664 15.5049 18.3791 15.0086C18.79 14.5141 19.4816 14.1171 20.4539 13.8193C21.4243 13.5216 22.7341 13.3736 24.3832 13.3736C26.6139 13.3736 28.9069 13.6957 31.2605 14.34C33.614 14.9842 36.052 15.9506 38.5743 17.2372L43.7419 4.53216C41.0728 2.99647 38.0644 1.85781 34.7165 1.11431C31.3687 0.370813 27.9714 0 24.5281 0C19.289 0 14.9084 0.792191 11.3918 2.37845C7.87336 3.9647 5.22995 6.08283 3.45973 8.73096C1.68767 11.381 0.80348 14.3156 0.80348 17.535C0.80348 20.3104 1.31345 22.6252 2.33156 24.4812C3.34967 26.339 4.69613 27.8372 6.37096 28.9759C8.04396 30.1164 9.88757 31.0322 11.9018 31.7251C13.9141 32.4199 15.9155 32.9761 17.9058 33.3975C19.8944 33.8189 21.727 34.2141 23.4 34.5868C25.073 34.9576 26.4194 35.4164 27.4394 35.9614C28.4575 36.5064 28.9674 37.2499 28.9674 38.19C28.9674 38.7837 28.7491 39.2931 28.3125 39.7126C27.876 40.134 27.1844 40.4561 26.2378 40.6789C25.2912 40.9018 23.9925 41.0142 22.3433 41.0142C19.5293 41.0142 16.6309 40.5816 13.6463 39.7145C10.6617 38.8492 7.95775 37.6975 5.5308 36.2592L0 49.0391C2.57187 50.6253 5.84632 51.912 9.82519 52.9027C13.8022 53.8934 17.9279 54.3878 22.1984 54.3878C27.4871 54.3878 31.8787 53.5825 35.3714 51.9738C38.8642 50.365 41.4966 48.2338 43.2686 45.5838C45.0389 42.9338 45.9249 40.0235 45.9249 36.8528C45.9249 34.1298 45.4149 31.8506 44.3968 30.0171C43.3787 28.1855 42.0322 26.6985 40.3574 25.5599Z" fill="white"/>
</svg>
