<svg width="5122" height="5115" viewBox="0 0 5122 5115" fill="none" xmlns="http://www.w3.org/2000/svg">
<g clip-path="url(#clip0_409_992)">
<path d="M5121.7 2540.51C5121.69 2538.65 5121.66 2536.8 5121.65 2534.94C5121.62 2531.25 5121.59 2527.56 5121.54 2523.88C5121.51 2521.64 5121.47 2519.4 5121.43 2517.15C5121.38 2513.85 5121.33 2510.55 5121.27 2507.26C5121.22 2504.88 5121.16 2502.5 5121.11 2500.12C5121.04 2496.97 5120.98 2493.82 5120.9 2490.67C5120.84 2488.21 5120.76 2485.76 5120.69 2483.31C5120.6 2480.24 5120.52 2477.17 5120.42 2474.11C5120.34 2471.62 5120.25 2469.13 5120.16 2466.64C5120.05 2463.62 5119.95 2460.59 5119.84 2457.57C5119.74 2455.06 5119.63 2452.55 5119.53 2450.04C5119.41 2447.05 5119.29 2444.05 5119.15 2441.06C5119.04 2438.53 5118.91 2435.99 5118.79 2433.46C5118.65 2430.5 5118.51 2427.54 5118.36 2424.58C5118.23 2422.04 5118.09 2419.5 5117.95 2416.96C5117.79 2414.01 5117.64 2411.06 5117.47 2408.12C5117.32 2405.57 5117.16 2403.03 5117.01 2400.48C5116.83 2397.55 5116.66 2394.63 5116.47 2391.7C5116.31 2389.14 5116.13 2386.58 5115.96 2384.02C5115.77 2381.11 5115.57 2378.2 5115.37 2375.29C5115.19 2372.74 5115 2370.19 5114.81 2367.64C5114.6 2364.73 5114.39 2361.82 5114.16 2358.92C5113.96 2356.37 5113.76 2353.82 5113.55 2351.26C5113.32 2348.36 5113.09 2345.47 5112.85 2342.58C5112.64 2340.02 5112.41 2337.47 5112.19 2334.92C5111.94 2332.03 5111.7 2329.15 5111.44 2326.26C5111.21 2323.7 5110.97 2321.15 5110.74 2318.6C5110.47 2315.73 5110.21 2312.85 5109.94 2309.98C5109.7 2307.43 5109.44 2304.88 5109.19 2302.33C5108.91 2299.45 5108.62 2296.58 5108.33 2293.7C5108.07 2291.17 5107.8 2288.64 5107.53 2286.11C5107.23 2283.23 5106.92 2280.35 5106.61 2277.48C5106.33 2274.95 5106.05 2272.42 5105.77 2269.89C5105.45 2267.02 5105.13 2264.15 5104.8 2261.29C5104.51 2258.76 5104.21 2256.23 5103.91 2253.7C5103.57 2250.84 5103.24 2247.99 5102.89 2245.13C5102.58 2242.6 5102.27 2240.07 5101.95 2237.54C5101.59 2234.69 5101.24 2231.83 5100.87 2228.98C5100.55 2226.46 5100.22 2223.95 5099.89 2221.43C5099.52 2218.58 5099.14 2215.72 5098.76 2212.87C5098.42 2210.36 5098.08 2207.85 5097.73 2205.34C5097.34 2202.49 5096.95 2199.64 5096.54 2196.8C5096.19 2194.3 5095.83 2191.8 5095.47 2189.3C5095.06 2186.45 5094.65 2183.59 5094.23 2180.75C5093.86 2178.27 5093.49 2175.79 5093.12 2173.3C5092.69 2170.44 5092.26 2167.59 5091.82 2164.73C5091.44 2162.25 5091.05 2159.77 5090.66 2157.29C5090.21 2154.44 5089.76 2151.6 5089.31 2148.76C5088.91 2146.29 5088.51 2143.81 5088.1 2141.34C5087.63 2138.49 5087.17 2135.64 5086.69 2132.8C5086.28 2130.35 5085.86 2127.89 5085.45 2125.44C5084.96 2122.58 5084.48 2119.73 5083.98 2116.87C5083.56 2114.43 5083.13 2111.99 5082.7 2109.55C5082.2 2106.7 5081.69 2103.84 5081.18 2100.99C5080.74 2098.56 5080.3 2096.13 5079.85 2093.7C5079.33 2090.84 5078.8 2087.98 5078.27 2085.12C5077.82 2082.71 5077.36 2080.3 5076.91 2077.89C5076.37 2075.03 5075.82 2072.16 5075.27 2069.3C5074.81 2066.9 5074.34 2064.5 5073.87 2062.1C5073.31 2059.24 5072.74 2056.38 5072.17 2053.52C5071.69 2051.13 5071.21 2048.73 5070.72 2046.34C5070.14 2043.48 5069.56 2040.62 5068.97 2037.76C5068.48 2035.38 5067.98 2033 5067.49 2030.63C5066.89 2027.77 5066.29 2024.91 5065.68 2022.05C5065.18 2019.68 5064.67 2017.32 5064.16 2014.95C5063.54 2012.08 5062.92 2009.22 5062.29 2006.36C5061.77 2004.01 5061.25 2001.66 5060.73 1999.31C5060.09 1996.44 5059.45 1993.57 5058.8 1990.7C5058.27 1988.37 5057.74 1986.04 5057.21 1983.71C5056.55 1980.83 5055.89 1977.96 5055.22 1975.09C5054.68 1972.77 5054.14 1970.45 5053.59 1968.13C5052.91 1965.26 5052.23 1962.38 5051.54 1959.51C5050.99 1957.2 5050.43 1954.9 5049.88 1952.6C5049.18 1949.72 5048.48 1946.84 5047.77 1943.97C5047.21 1941.68 5046.64 1939.39 5046.07 1937.1C5045.35 1934.21 5044.63 1931.33 5043.9 1928.45C5043.33 1926.18 5042.75 1923.92 5042.17 1921.66C5041.43 1918.76 5040.68 1915.87 5039.93 1912.98C5039.35 1910.73 5038.76 1908.48 5038.17 1906.23C5037.41 1903.33 5036.64 1900.43 5035.87 1897.53C5035.28 1895.3 5034.68 1893.07 5034.08 1890.84C5033.3 1887.93 5032.51 1885.03 5031.72 1882.13C5031.12 1879.91 5030.51 1877.7 5029.9 1875.49C5029.1 1872.58 5028.29 1869.67 5027.47 1866.76C5026.86 1864.57 5026.24 1862.37 5025.62 1860.18C5024.79 1857.25 5023.96 1854.33 5023.12 1851.41C5022.5 1849.25 5021.88 1847.08 5021.25 1844.92C5020.4 1841.98 5019.54 1839.04 5018.68 1836.11C5018.05 1833.97 5017.42 1831.83 5016.79 1829.69C5015.92 1826.74 5015.03 1823.8 5014.15 1820.85C5013.51 1818.73 5012.88 1816.61 5012.24 1814.5C5011.34 1811.53 5010.43 1808.57 5009.52 1805.61C5008.88 1803.52 5008.24 1801.44 5007.6 1799.35C5006.67 1796.36 5005.74 1793.38 5004.8 1790.4C5004.16 1788.35 5003.51 1786.29 5002.86 1784.24C5001.91 1781.24 5000.95 1778.25 4999.99 1775.25C4999.34 1773.22 4998.69 1771.18 4998.03 1769.15C4997.06 1766.14 4996.07 1763.13 4995.09 1760.13C4994.43 1758.13 4993.78 1756.12 4993.12 1754.12C4992.12 1751.08 4991.1 1748.05 4990.09 1745.02C4989.43 1743.06 4988.78 1741.09 4988.12 1739.13C4987.09 1736.06 4986.04 1733 4984.99 1729.94C4984.33 1728.02 4983.68 1726.1 4983.02 1724.18C4981.95 1721.09 4980.88 1718 4979.8 1714.91C4979.14 1713.03 4978.49 1711.15 4977.83 1709.27C4976.73 1706.14 4975.62 1703.01 4974.5 1699.88C4973.85 1698.05 4973.21 1696.23 4972.55 1694.4C4971.41 1691.23 4970.27 1688.07 4969.12 1684.9C4968.47 1683.12 4967.83 1681.34 4967.18 1679.56C4966.01 1676.35 4964.82 1673.14 4963.63 1669.94C4962.99 1668.22 4962.36 1666.5 4961.72 1664.78C4960.5 1661.5 4959.27 1658.23 4958.03 1654.96C4957.41 1653.32 4956.8 1651.68 4956.18 1650.04C4954.91 1646.7 4953.63 1643.36 4952.35 1640.03C4951.75 1638.47 4951.15 1636.9 4950.55 1635.34C4949.23 1631.91 4947.89 1628.49 4946.55 1625.07C4945.98 1623.61 4945.41 1622.14 4944.84 1620.68C4943.44 1617.13 4942.03 1613.58 4940.61 1610.03C4940.08 1608.71 4939.56 1607.39 4939.04 1606.07C4937.56 1602.38 4936.06 1598.69 4934.57 1595C4934.09 1593.83 4933.63 1592.66 4933.15 1591.49C4931.55 1587.57 4929.94 1583.66 4928.32 1579.75C4927.94 1578.83 4927.56 1577.9 4927.18 1576.97C4925.42 1572.74 4923.65 1568.52 4921.88 1564.31C4921.62 1563.7 4921.37 1563.1 4921.12 1562.49C4919.12 1557.76 4917.11 1553.04 4915.08 1548.32C4909.17 1534.57 4903.14 1520.89 4897 1507.26C4893.95 1500.5 4890.87 1493.75 4887.77 1487.02C4887.57 1486.59 4887.37 1486.16 4887.17 1485.72C4884.21 1479.31 4881.22 1472.92 4878.21 1466.54C4878.07 1466.24 4877.93 1465.95 4877.79 1465.65C4874.63 1458.96 4871.43 1452.28 4868.21 1445.61C4868.11 1445.41 4868.02 1445.22 4867.92 1445.02C4864.83 1438.64 4861.72 1432.27 4858.58 1425.92C4858.34 1425.44 4858.11 1424.96 4857.87 1424.48C4851.41 1411.43 4844.84 1398.43 4838.16 1385.51C4837.86 1384.94 4837.57 1384.36 4837.27 1383.79C4830.62 1370.93 4823.86 1358.14 4817 1345.41C4816.67 1344.79 4816.33 1344.17 4816 1343.55C4809.14 1330.85 4802.17 1318.21 4795.1 1305.64C4794.76 1305.03 4794.42 1304.43 4794.08 1303.82C4786.98 1291.22 4779.78 1278.69 4772.48 1266.23C4772.17 1265.69 4771.85 1265.16 4771.54 1264.62C4764.18 1252.09 4756.73 1239.62 4749.16 1227.23C4748.9 1226.81 4748.64 1226.39 4748.39 1225.96C4744.63 1219.81 4740.85 1213.67 4737.04 1207.55C4737.03 1207.53 4737.01 1207.5 4737 1207.48C4733.08 1201.18 4729.12 1194.89 4725.15 1188.63C4725 1188.39 4724.85 1188.16 4724.7 1187.92C4720.87 1181.88 4717.01 1175.87 4713.12 1169.86C4712.96 1169.62 4712.81 1169.38 4712.65 1169.14C4704.68 1156.83 4696.6 1144.59 4688.42 1132.42C4688.17 1132.04 4687.92 1131.67 4687.66 1131.29C4679.53 1119.21 4671.31 1107.21 4662.98 1095.28C4662.67 1094.84 4662.37 1094.4 4662.06 1093.96C4653.75 1082.07 4645.34 1070.25 4636.83 1058.51C4636.51 1058.07 4636.19 1057.62 4635.87 1057.18C4627.35 1045.44 4618.73 1033.77 4610.02 1022.17C4609.71 1021.76 4609.4 1021.34 4609.09 1020.93C4600.33 1009.3 4591.48 997.74 4582.53 986.26C4582.28 985.94 4582.03 985.62 4581.78 985.29C4572.75 973.72 4563.62 962.22 4554.4 950.81C4554.26 950.63 4554.12 950.46 4553.97 950.28C4539.97 932.97 4525.75 915.85 4511.32 898.92C4511.23 898.81 4511.14 898.7 4511.04 898.6C4501.45 887.35 4491.76 876.2 4481.98 865.12C4481.8 864.92 4481.63 864.72 4481.45 864.52C4471.72 853.51 4461.89 842.58 4451.97 831.73C4451.75 831.49 4451.53 831.24 4451.3 831C4441.39 820.18 4431.39 809.44 4421.3 798.78C4421.08 798.55 4420.86 798.32 4420.64 798.09C4410.52 787.41 4400.31 776.83 4390.01 766.33C4389.84 766.15 4389.66 765.98 4389.49 765.8C4379.12 755.24 4368.66 744.77 4358.11 734.39C4358.03 734.31 4357.95 734.24 4357.87 734.16C4320.57 697.46 4282.14 661.9 4242.66 627.53C4242.61 627.49 4242.56 627.44 4242.51 627.4C4231.27 617.62 4219.95 607.94 4208.54 598.35C4208.45 598.27 4208.36 598.2 4208.27 598.12C4196.87 588.55 4185.39 579.07 4173.82 569.69C4173.74 569.63 4173.66 569.56 4173.59 569.5C4161.99 560.1 4150.3 550.79 4138.53 541.59C4138.52 541.58 4138.5 541.57 4138.49 541.56C4085.32 499.98 4030.46 460.46 3974.04 423.12C3974.04 423.12 3974.02 423.11 3974.01 423.1C3759.73 281.29 3522.84 170.89 3269.91 98.47C3235.9 89.21 3201.7 80.76 3167.34 73.17C3164.28 72.5 3161.69 75.47 3162.76 78.41L3912.38 2141.4C3964.22 2284.06 3858.35 2434.8 3706.56 2434.45C3614.98 2434.24 3533.26 2376.93 3501.86 2290.9L2666.67 2.61C2666.59 2.4 2666.49 2.19 2666.38 2C2651.61 1.42 2636.81 0.97 2621.98 0.65C2617.36 0.55 2612.73 0.46 2608.11 0.38C2607.65 0.38 2607.2 0.37 2606.74 0.36C2602.54 0.29 2598.33 0.23 2594.12 0.18C2592.53 0.16 2590.93 0.15 2589.34 0.13C2586.12 0.1 2582.91 0.07 2579.69 0.05C2574.65 0.02 2569.61 0 2564.57 0H2557.17C2551.39 0 2545.61 0.02 2539.84 0.06C2538.28 0.07 2536.71 0.09 2535.15 0.1C2530.89 0.14 2526.64 0.18 2522.39 0.23C2520.75 0.25 2519.11 0.28 2517.48 0.31C2513.25 0.37 2509.02 0.44 2504.8 0.53C2503.31 0.56 2501.83 0.6 2500.35 0.63C2495.92 0.73 2491.5 0.83 2487.08 0.95C2485.82 0.98 2484.56 1.02 2483.31 1.06C2478.61 1.19 2473.91 1.34 2469.22 1.5C2468.24 1.53 2467.25 1.57 2466.27 1.6C2461.24 1.78 2456.22 1.97 2451.19 2.17C2450.52 2.2 2449.85 2.22 2449.18 2.25C2443.79 2.47 2438.41 2.71 2433.03 2.97C2432.69 2.99 2432.35 3 2432 3.02C2426.24 3.3 2420.48 3.59 2414.73 3.91C2399.37 4.75 2384.05 5.73 2368.77 6.85C2368.34 7.76 2368.23 8.84 2368.62 9.9L3153.57 2182.67C3198.04 2305.76 3106.81 2435.66 2975.93 2435.59C2896.62 2435.55 2825.8 2385.95 2798.65 2311.43L1981.3 68.04C1980.88 66.88 1979.97 66.05 1978.88 65.67C1974.98 66.57 1971.08 67.49 1967.18 68.41L1705.66 147.87C1703.48 148.53 1702.31 150.88 1703.08 153.02L2452.96 2215.37C2491.43 2321.18 2413.64 2433.22 2301.05 2434.14C2232.02 2434.7 2170.12 2391.74 2146.5 2326.87L1399.92 276.24C1312.86 320.5 1228.66 369.6 1147.7 423.18L1825.3 2292.75C1851.42 2364.82 1796.45 2440.51 1719.84 2437.9C1719.1 2437.87 1718.35 2437.85 1717.61 2437.82C1673.51 2436.25 1634.72 2408.24 1619.55 2366.8L962.58 571.83C961.61 569.19 958.28 568.36 956.2 570.25L733.81 770.73C732.61 771.81 732.19 773.52 732.74 775.03L1298.72 2331.46C1318.08 2384.7 1277.39 2440.92 1220.8 2438.58C1220.23 2438.56 1219.66 2438.53 1219.09 2438.5C1187.23 2437.03 1159.36 2416.54 1148.21 2386.65L600.79 920.26C599.86 917.76 596.77 916.86 594.66 918.49C594 919 593.32 919.54 592.63 920.1C525.18 1000.95 462.64 1086.03 405.44 1174.89C403.59 1180.46 403 1184.66 403.91 1187.18L827.61 2363.14C841.67 2402.17 809.79 2442.5 768.59 2437.61C768.19 2437.56 767.79 2437.51 767.39 2437.47C746.61 2434.94 729.04 2420.88 721.84 2401.23L324.93 1317.44C324.35 1315.86 322.97 1314.98 321.53 1314.85C256.29 1432 199.99 1554.82 153.55 1682.38C153.57 1682.48 153.59 1682.57 153.62 1682.67L380.4 2386.32C391.17 2419.74 360.27 2451.9 326.55 2442.1C326.2 2442 325.85 2441.9 325.5 2441.79C310.22 2437.21 298.06 2425.58 292.5 2410.64L96.3802 1883.58C95.3902 1880.91 92.0902 1880.22 90.1002 1881.92C39.9402 2065.59 9.75022 2257.49 1.99021 2455.16C1.86021 2458.58 1.73021 2462.01 1.61021 2465.43C1.56021 2466.8 1.51021 2468.16 1.47021 2469.53C1.36021 2472.73 1.26021 2475.93 1.16021 2479.13C1.11021 2480.78 1.07021 2482.43 1.02021 2484.09C0.930215 2487.15 0.850215 2490.2 0.770215 2493.26C0.660215 2497.55 0.570215 2501.85 0.480215 2506.15C0.440215 2508.35 0.400215 2510.55 0.370215 2512.75C0.320215 2515.62 0.270215 2518.48 0.230215 2521.35C0.200215 2523.41 0.180215 2525.47 0.150215 2527.53C0.110215 2530.76 0.0802148 2533.98 0.0602148 2537.21C0.0502148 2538.92 0.0302148 2540.62 0.0202148 2542.33C-0.00978516 2547.25 -0.0297852 2552.18 -0.0297852 2557.11C-0.0297852 2557.14 -0.0297852 2557.17 -0.0297852 2557.2C-0.0297852 2557.49 -0.0297852 2557.78 -0.0297852 2558.07C-0.0297852 2563.09 -0.00978516 2568.1 0.0202148 2573.12C0.0502148 2577.81 0.0902149 2582.5 0.150215 2587.18C0.150215 2587.7 0.150215 2588.21 0.160215 2588.73C0.290215 2599.17 0.480215 2609.6 0.730215 2620.01C6.81021 2872.46 49.4802 3115.84 123.64 3345.05C124.15 3346.63 124.66 3348.22 125.18 3349.8C129 3361.53 132.91 3373.22 136.89 3384.87C137.04 3385.31 137.19 3385.74 137.34 3386.18C164.26 3464.79 194.91 3541.66 229.06 3616.61C230.78 3620.38 232.51 3624.15 234.24 3627.91C234.45 3628.37 234.67 3628.83 234.88 3629.29C236.5 3632.8 238.13 3636.31 239.77 3639.82C296.92 3761.95 363.45 3878.81 438.41 3989.5C439.14 3990.58 439.88 3991.66 440.62 3992.74C460.02 4021.29 479.98 4049.43 500.5 4077.14C501.67 4078.72 502.84 4080.29 504.01 4081.87C591 4198.83 687.74 4308.1 793.05 4408.47C793.8 4409.18 794.55 4409.89 795.3 4410.61C830.73 4444.3 867.13 4476.99 904.45 4508.63C909.9 4513.25 915.37 4517.85 920.86 4522.43C1145.39 4709.58 1402.49 4858.98 1682.42 4960.87C1684.28 4961.55 1686.15 4962.22 1688.01 4962.9C1959.33 5060.94 2251.98 5114.4 2557.12 5114.4H2564.54C2570.25 5114.4 2575.95 5114.38 2581.65 5114.34C2583.51 5114.33 2585.37 5114.3 2587.23 5114.29C2591.07 5114.26 2594.91 5114.22 2598.75 5114.17C2600.95 5114.14 2603.14 5114.1 2605.34 5114.07C2608.84 5114.02 2612.34 5113.96 2615.84 5113.89C2618.16 5113.84 2620.48 5113.79 2622.8 5113.74C2626.17 5113.66 2629.55 5113.59 2632.92 5113.5C2635.29 5113.44 2637.65 5113.37 2640.02 5113.3C2643.35 5113.2 2646.67 5113.11 2649.99 5113C2652.36 5112.92 2654.73 5112.84 2657.1 5112.75C2660.42 5112.63 2663.74 5112.51 2667.06 5112.38C2669.41 5112.29 2671.76 5112.19 2674.11 5112.09C2677.45 5111.95 2680.79 5111.8 2684.13 5111.65C2686.44 5111.54 2688.76 5111.43 2691.07 5111.32C2694.46 5111.15 2697.84 5110.98 2701.22 5110.81C2703.48 5110.69 2705.73 5110.57 2707.99 5110.45C2711.45 5110.26 2714.9 5110.06 2718.35 5109.85C2720.52 5109.72 2722.7 5109.59 2724.87 5109.46C2728.42 5109.24 2731.97 5109.01 2735.52 5108.78C2737.59 5108.64 2739.65 5108.51 2741.72 5108.37C2745.42 5108.12 2749.11 5107.85 2752.8 5107.58C2754.71 5107.44 2756.63 5107.3 2758.54 5107.16C2762.47 5106.87 2766.4 5106.56 2770.32 5106.24C2771.99 5106.11 2773.66 5105.98 2775.32 5105.84C2779.67 5105.49 2784.02 5105.11 2788.36 5104.74C2789.6 5104.63 2790.84 5104.53 2792.07 5104.42C2797.39 5103.95 2802.7 5103.47 2808 5102.96C2808.27 5102.93 2808.53 5102.91 2808.8 5102.89C2820.26 5101.8 2831.69 5100.64 2843.1 5099.41C2977.29 5084.87 3108.36 5059.95 3235.5 5025.47C3235.96 5025.34 3236.43 5025.22 3236.89 5025.09C3240.48 5024.11 3244.07 5023.13 3247.65 5022.14C3250.58 5021.33 3253.5 5020.51 3256.42 5019.69C3257.85 5019.29 3259.28 5018.89 3260.71 5018.49C3263.9 5017.59 3267.09 5016.68 3270.28 5015.76C3271.24 5015.49 3272.2 5015.21 3273.15 5014.93C3276.66 5013.92 3280.16 5012.91 3283.66 5011.88C3295.94 5008.29 3308.19 5004.6 3320.39 5000.83C3321.47 5000.5 3322.55 5000.17 3323.63 4999.83C3375.91 4983.6 3427.47 4965.73 3478.25 4946.3C3497.48 4938.94 3516.6 4931.36 3535.6 4923.55C3535.6 4923.55 3535.62 4923.55 3535.62 4923.54C3540.36 4921.59 3545.08 4919.64 3549.81 4917.66C3549.84 4917.65 3549.88 4917.63 3549.91 4917.62C3554.61 4915.66 3559.31 4913.68 3563.99 4911.68C3564.03 4911.66 3564.07 4911.65 3564.11 4911.63C3568.79 4909.64 3573.47 4907.64 3578.14 4905.62C3578.18 4905.6 3578.22 4905.59 3578.26 4905.57C3582.94 4903.55 3587.61 4901.51 3592.27 4899.46C3780.42 4816.78 3956.72 4712.11 4117.89 4588.68C4124.57 4583.56 4131.22 4578.41 4137.86 4573.22C4138.54 4572.69 4139.22 4572.16 4139.9 4571.63C4146.34 4566.59 4152.75 4561.52 4159.14 4556.41C4159.83 4555.86 4160.51 4555.31 4161.2 4554.76C4167.75 4549.52 4174.28 4544.25 4180.77 4538.94C4180.86 4538.86 4180.96 4538.78 4181.05 4538.71C4187.88 4533.13 4194.69 4527.51 4201.47 4521.86C4201.47 4521.86 4201.47 4521.86 4201.48 4521.85C4208.01 4516.4 4214.51 4510.92 4220.99 4505.4C4221.53 4504.94 4222.08 4504.47 4222.62 4504.01C4228.96 4498.6 4235.27 4493.17 4241.56 4487.7C4242.05 4487.27 4242.54 4486.84 4243.03 4486.42C4256.19 4474.96 4269.23 4463.38 4282.15 4451.66C4328.39 4409.71 4373.08 4366.1 4416.14 4320.91C4421.9 4314.87 4427.62 4308.8 4433.31 4302.7C4433.84 4302.13 4434.37 4301.57 4434.9 4301C4440.36 4295.14 4445.8 4289.25 4451.21 4283.34C4451.99 4282.49 4452.77 4281.64 4453.55 4280.78C4458.94 4274.87 4464.31 4268.94 4469.65 4262.99C4470.21 4262.37 4470.77 4261.74 4471.33 4261.11C4482.43 4248.7 4493.41 4236.18 4504.27 4223.55C4504.83 4222.9 4505.39 4222.25 4505.95 4221.6C4511.19 4215.49 4516.41 4209.35 4521.6 4203.19C4522.27 4202.39 4522.94 4201.59 4523.61 4200.8C4528.85 4194.56 4534.07 4188.29 4539.26 4182C4539.59 4181.6 4539.91 4181.2 4540.24 4180.8C4545.65 4174.22 4551.03 4167.62 4556.38 4160.99C4603.08 4103.06 4647.3 4043.05 4688.89 3981.13C4709.02 3951.16 4728.53 3920.74 4747.41 3889.89C4747.41 3889.89 4747.41 3889.88 4747.42 3889.87C4766.3 3859.02 4784.54 3827.73 4802.12 3796.04C4812.77 3776.85 4823.17 3757.52 4833.34 3738.03C4846.57 3712.66 4859.39 3687.04 4871.78 3661.18C4871.94 3660.85 4872.1 3660.52 4872.26 3660.19C4874.56 3655.39 4876.84 3650.59 4879.11 3645.78C4879.3 3645.37 4879.5 3644.96 4879.69 3644.55C4881.96 3639.73 4884.21 3634.9 4886.45 3630.06C4886.6 3629.75 4886.74 3629.43 4886.89 3629.12C4889.25 3624.02 4891.59 3618.91 4893.92 3613.79C4904.11 3591.37 4913.98 3568.77 4923.53 3546.01C4925.67 3540.9 4927.8 3535.78 4929.91 3530.66C4929.91 3530.66 4929.91 3530.66 4929.91 3530.65C4959.47 3458.89 4985.87 3385.48 5008.92 3310.62C5008.94 3310.55 5008.96 3310.49 5008.98 3310.42C5010.61 3305.14 5012.22 3299.84 5013.81 3294.54C5013.83 3294.48 5013.84 3294.43 5013.86 3294.37C5034.8 3224.69 5052.85 3153.75 5067.87 3081.7C5067.89 3081.61 5067.91 3081.52 5067.93 3081.43C5069.06 3076.01 5070.17 3070.58 5071.27 3065.14C5071.3 3064.99 5071.33 3064.84 5071.36 3064.68C5072.45 3059.26 5073.52 3053.84 5074.58 3048.42C5074.6 3048.3 5074.63 3048.17 5074.65 3048.05C5075.72 3042.53 5076.78 3037.01 5077.81 3031.48C5081.46 3012.04 5084.88 2992.52 5088.09 2972.92C5089.16 2966.38 5090.2 2959.84 5091.22 2953.29C5091.24 2953.16 5091.26 2953.02 5091.28 2952.89C5094.36 2933.07 5097.21 2913.17 5099.83 2893.2C5099.83 2893.17 5099.83 2893.13 5099.84 2893.09C5100.71 2886.48 5101.55 2879.85 5102.37 2873.22C5102.37 2873.15 5102.39 2873.07 5102.4 2872.99C5104.87 2852.94 5107.11 2832.81 5109.11 2812.61C5109.11 2812.61 5109.11 2812.6 5109.11 2812.59C5114.46 2758.65 5118.13 2704.22 5120.07 2649.35C5121.01 2622.68 5121.55 2595.9 5121.67 2569.03C5121.69 2565.08 5121.71 2561.15 5121.71 2557.21V2557.19C5121.71 2551.64 5121.69 2546.09 5121.66 2540.54L5121.7 2540.51Z" fill="black"/>
</g>
<defs>
<clipPath id="clip0_409_992">
<rect width="5121.75" height="5114.36" fill="white"/>
</clipPath>
</defs>
</svg>
