<svg width="1589" height="684" viewBox="0 0 1589 684" fill="none" xmlns="http://www.w3.org/2000/svg">
<g clip-path="url(#clip0_406_939)">
<path d="M819.17 102.564C824.991 86.168 826.716 71.057 825.612 56.1281C823.213 23.6839 781.643 19.3359 755.902 16.5675L757.059 0.112449L949.193 0.257026C949.799 4.3159 950.029 12.7978 949.75 17.8633C902.402 16.2248 874.953 77.745 861.389 115.988L660.568 682.185C653.307 684.862 645.756 684.198 640.321 679.759L479.438 257.331L328.53 669.548C325.864 676.835 324.45 682.378 318.56 683.604C309.055 685.58 306.484 679.973 303.576 672.032L252.421 532.108L88.8707 88.749C83.73 74.8053 75.1835 62.1093 68.87 49.7613C43.9268 0.995977 -11.4593 35.2072 2.11014 0.0910301L257.299 0.342701C257.39 5.60638 257.026 13.4671 256.464 17.4028C237.352 20.2194 219.252 20.9369 206.454 36.3585C198.058 46.4789 195.632 66.8482 200.687 81.0596L294.007 343.446L347.749 490.925L455.292 195.169L405.765 67.2498C394.696 38.6557 370.385 20.9905 340.322 19.8017C336.964 18.9021 328.964 18.5273 328.547 15.7857C328.038 12.4604 327.84 5.52071 327.77 0L593.316 0.315928C594.113 4.15526 594.976 11.9624 594.387 14.8915C593.016 21.6919 541.919 17.8312 532.328 49.0652C526.309 68.6688 529.49 94.2268 537.485 115.057L661.387 437.79L681.752 489.431L819.154 102.559L819.17 102.564Z" fill="black"/>
<path d="M1589 491.085L1532.71 668.101L999.278 668.112C998.994 662.024 998.86 655.02 999.594 652.037C1000.98 646.415 1052.54 658.163 1080.82 628.969C1093.86 615.518 1098.69 595.422 1098.66 575.524L1098.05 82.7245C1098.02 50.4999 1073.93 27.2605 1046.07 22.1949C1029.11 19.1106 1016.02 18.2164 998.544 16.6742L999.545 0.149558L1297.57 0.0371094C1301.11 3.34632 1300.32 14.6715 1296.29 17.033C1275.75 18.8107 1251.71 19.6621 1233.17 30.0396C1216.15 39.5656 1205.09 60.6096 1205.07 82.2962L1204.65 593.034C1204.63 611.004 1217.9 624.134 1235.34 624.15L1390.21 624.305C1492.76 624.407 1533.28 574.78 1570.75 486.711C1575.27 485.533 1582.56 487.439 1588.99 491.096L1589 491.085Z" fill="black"/>
</g>
<defs>
<clipPath id="clip0_406_939">
<rect width="1589" height="684" fill="white"/>
</clipPath>
</defs>
</svg>
