<svg width="28" height="35" viewBox="0 0 28 35" fill="none" xmlns="http://www.w3.org/2000/svg">
  <path
    d="M0.976923 34.4096C0.228477 31.6186 -1.00845 25.3806 1.48165 18.5819C2.66617 15.3478 4.27942 13.1197 4.97912 12.2138C8.68624 7.41412 13.3127 5.34602 15.2184 4.52092C15.5245 4.38822 15.5596 4.37966 19.1121 3.12221C22.8402 1.8027 25.8769 0.723433 27.9095 0L7.49229 15.8021C7.171 16.0509 7.23337 16.5614 7.60497 16.7214L11.5689 18.4299C11.8797 18.5642 11.9877 18.9591 11.789 19.2379L0.976923 34.4096Z"
    fill="#2DB180"
  />
  <path
    d="M26.9325 0C27.681 2.791 28.9179 9.02901 26.4278 15.8278C25.2433 19.0618 23.63 21.2899 22.9303 22.1958C19.2232 26.9955 14.5968 29.0636 12.6911 29.8887C12.385 30.0214 12.3499 30.03 8.79739 31.2874C5.06931 32.6075 2.03255 33.6867 0 34.4102L20.4172 18.6081C20.7385 18.3593 20.6761 17.8488 20.3045 17.6888L16.3406 15.9803C16.0298 15.846 15.9218 15.4511 16.1204 15.1723L26.9325 0Z"
    fill="#23A3D2"
  />
</svg>
